<svg width="649" height="618" fill="none" xmlns="http://www.w3.org/2000/svg"><path d="M223.103 260.153s-2.398-28.777 34.078-25.243c0 0 108.546 7.068 215.451 174.557 0 0 42.913 63.865 35.592 107.914-14.262 85.953-129.75 53.39-129.75 53.39-27.767 37.99-63.991 47.204-101.982 41.651-69.292-10.224-73.079-68.914-73.079-68.914-40.515 25.622-89.108 9.087-89.108 9.087-58.69-23.476-27.263-51.496-27.263-51.496 27.768-20.573 73.71-72.069 73.71-72.069s63.234-89.613 62.351-168.877z" fill="#7EB9FF"/><path d="M454.709 523.321s37.738 3.913 52.758-2.524c0 0-6.816 78.001-129.119 49.981 0 0-63.865 85.196-155.498 15.399 0 0 74.846 48.467 147.546-40.516 0 .127 72.07 13.884 84.313-22.34z" fill="#005EEB"/><path d="M222.974 243.356c.687 2.626 3.277 3.452 4.897 3.551 1.675.104 4.075-.407 5.356-2.386 3.036-4.691 7.613-7.076 13.205-7.879 5.667-.814 12.261.026 18.939 1.761 13.345 3.466 26.269 10.3 31.203 13.061 1.034.578 2.267.783 3.282.815 1.028.033 2.217-.101 3.232-.527 9.197-3.859 20.091-3.449 30.398-1.224 10.266 2.215 19.647 6.166 25.618 9.038 2.06.991 4.171.265 5.382-1.043 1.231-1.328 1.789-3.562.435-5.537-20.674-30.171-52.671-40.032-65.892-42.937 7.647-4.355 17.326-6.894 25.116-8.328 2.546-.469 3.743-2.675 3.804-4.525.062-1.883-1.063-4.252-3.792-4.633-30.84-4.303-53.357 3.879-62.196 7.937 1.83-15.027 9.042-25.069 14.487-30.685 1.666-1.718 1.538-4.075.797-5.625-.749-1.568-2.661-3.286-5.258-2.546-28.311 8.072-38.435 35.141-41.234 44.9-8.01-5.784-15.316-7.94-20.56-8.652-1.153-.157-2.249.14-3.117.808-.826.635-1.32 1.501-1.568 2.332-.481 1.603-.213 3.654 1.183 5.13 3.738 3.949 7.083 10.346 9.89 17.365 2.783 6.957 4.937 14.265 6.393 19.829z" fill="#FF009F" stroke="#000" stroke-width="5" stroke-linejoin="round"/><path d="M196.175 422.189s-47.031 13.377-111.16-26.92c0 0-35.32-22.25-23.05 6.555 0 0 25.61 78.302 110.094 54.191" fill="#7EB9FF"/><path d="M173.528 459.433c1.654-.712 2.548-2.579 2.035-4.379-.563-1.913-2.619-3.049-4.481-2.517-33.62 9.624-61.576 3.875-82.96-16.964-16.159-15.679-22.494-34.643-22.543-34.757l-.147-.341c-3.279-7.615-2.066-9.35-2.066-9.35 1.52-1.328 10.74 1.574 19.885 7.337 64.814 40.676 111.98 27.915 114.062 27.288 1.862-.532 2.928-2.608 2.365-4.521-.562-1.914-2.619-3.049-4.481-2.517-.6.123-46.443 12.314-108.208-26.44-4.995-3.104-21.584-12.803-28.396-6.772-5.292 4.704-1.292 14.299.176 17.709.66 2.141 7.534 21.143 24.255 37.522 16.207 15.793 44.942 31.85 90.222 18.958.062-.161.172-.208.282-.256z" fill="#000"/><path d="M446.335 423.442s46.238 18.821 115.093-13.96c0 0 37.93-18.11 22.662 9.223 0 0-33.672 75.204-116.723 41.312" fill="#7EB9FF"/><path d="M465.542 463.263a3.71 3.71 0 01-1.623-4.609c.758-1.845 2.951-2.74 4.781-1.992 33.047 13.515 61.89 11.024 85.587-7.297 17.897-13.776 26.187-31.975 26.248-32.083l.182-.323c4.072-7.223 3.017-9.096 3.017-9.096-1.405-1.502-11.017.324-20.839 5.015-69.586 33.08-116.021 14.858-118.065 13.99-1.83-.748-2.702-2.944-1.943-4.789.759-1.846 2.952-2.74 4.782-1.993.594.194 45.747 17.693 112.061-13.823 5.359-2.518 23.1-10.275 29.39-3.461 4.886 5.311-.112 14.427-1.936 17.661-.88 2.06-9.718 20.234-28.255 34.645-17.958 13.884-48.613 26.577-93.128 8.443-.046-.168-.152-.228-.259-.288z" fill="#000"/><ellipse cx="320.209" cy="360.968" rx="52.38" ry="75.73" fill="#000"/><mask id="prefix__a" maskUnits="userSpaceOnUse" x="171.953" y="296.645" width="115" height="96" fill="#000"><path fill="#fff" d="M171.953 296.645h115v96h-115z"/><path fill-rule="evenodd" clip-rule="evenodd" d="M241.997 373.093c-6.819 8.822-16.752 14.378-27.81 14.378-20.564 0-37.234-19.213-37.234-42.913 0-23.7 16.67-42.913 37.234-42.913 19.096 0 34.835 16.568 36.984 37.913 1.606 2.571 3.75 4.695 6.561 5.632 1.527.509 3.08.941 4.612 1.307 1.429.341 1.499 3.985.05 4.227-1.226.204-1.37 1.914-.196 2.322 7.121 2.477 16.615 5.84 18.253 6.659 2.524 1.262 0 5.049-11.991 4.418-5.695-.3-10.338-.318-13.61-.239-1.579.038-2.096 1.969-.782 2.845 1.285.856.835 2.859-.689 3.103-2.669.428-5.436.919-6.376 1.232-.546.183-2.48.974-5.006 2.029z"/></mask><path fill-rule="evenodd" clip-rule="evenodd" d="M241.997 373.093c-6.819 8.822-16.752 14.378-27.81 14.378-20.564 0-37.234-19.213-37.234-42.913 0-23.7 16.67-42.913 37.234-42.913 19.096 0 34.835 16.568 36.984 37.913 1.606 2.571 3.75 4.695 6.561 5.632 1.527.509 3.08.941 4.612 1.307 1.429.341 1.499 3.985.05 4.227-1.226.204-1.37 1.914-.196 2.322 7.121 2.477 16.615 5.84 18.253 6.659 2.524 1.262 0 5.049-11.991 4.418-5.695-.3-10.338-.318-13.61-.239-1.579.038-2.096 1.969-.782 2.845 1.285.856.835 2.859-.689 3.103-2.669.428-5.436.919-6.376 1.232-.546.183-2.48.974-5.006 2.029z" fill="#82A6B8"/><path d="M241.997 373.093l-1.927-4.614c-.8.334-1.499.87-2.029 1.556l3.956 3.058zm9.174-33.535l-4.975.501c.077.764.328 1.499.735 2.15l4.24-2.651zm6.561 5.632l-1.581 4.744 1.581-4.744zm4.612 1.307l1.16-4.864-1.16 4.864zm.05 4.227l.822 4.932-.822-4.932zm-.196 2.322l1.642-4.723-1.642 4.723zm18.253 6.659l-2.236 4.472 2.236-4.472zm-11.991 4.418l-.263 4.993.263-4.993zm-13.61-.239l-.12-4.999.12 4.999zm-.782 2.845l-2.773 4.16 2.773-4.16zm-.689 3.103l-.792-4.937.792 4.937zm-6.376 1.232l1.582 4.744-1.582-4.744zm-8.962-1.029c-6.01 7.776-14.557 12.436-23.854 12.436v10c12.82 0 24.138-6.452 31.766-16.321l-7.912-6.115zm-23.854 12.436c-17.159 0-32.234-16.284-32.234-37.913h-10c0 25.772 18.266 47.913 42.234 47.913v-10zm-32.234-37.913c0-21.629 15.075-37.913 32.234-37.913v-10c-23.968 0-42.234 22.141-42.234 47.913h10zm32.234-37.913c15.953 0 30.055 14.007 32.009 33.414l9.95-1.001c-2.344-23.283-19.719-42.413-41.959-42.413v10zm45.126 33.802c-1.334-.445-2.664-1.557-3.902-3.539l-8.48 5.301c1.975 3.159 4.932 6.296 9.22 7.725l3.162-9.487zm4.191 1.186a49.962 49.962 0 01-4.191-1.186l-3.162 9.487a59.836 59.836 0 005.033 1.426l2.32-9.727zm-.288 14.023c2.62-.437 3.972-2.353 4.526-3.56.566-1.232.721-2.505.706-3.525-.016-1.031-.213-2.258-.765-3.431-.519-1.104-1.751-2.927-4.179-3.507l-2.32 9.727c-1.714-.409-2.401-1.648-2.55-1.965-.182-.387-.184-.624-.185-.671-.001-.036-.01-.331.206-.801.204-.445 1.022-1.815 2.917-2.131l1.644 9.864zm.624-7.333c3.7 1.287 3.278 6.683-.624 7.333l-1.644-9.864c-6.353 1.059-7.063 9.873-1.017 11.976l3.285-9.445zm18.847 6.91c-1.153-.576-4.305-1.745-7.608-2.938-3.495-1.263-7.67-2.73-11.239-3.972l-3.285 9.445a1065.13 1065.13 0 0111.127 3.932c1.723.622 3.255 1.186 4.447 1.64.597.227 1.092.421 1.474.576.19.078.341.141.454.191l.158.07 4.472-8.944zm-14.49 13.883c6.313.332 11.101-.41 14.162-2.139 1.413-.799 3.55-2.456 3.926-5.306.449-3.4-1.853-5.566-3.598-6.438l-4.472 8.944c-.483-.241-2.155-1.461-1.844-3.815.239-1.805 1.469-2.318 1.067-2.091-.568.321-3.037 1.157-8.715.858l-.526 9.987zm-13.226-.234c3.145-.076 7.66-.059 13.226.234l.526-9.987c-5.824-.306-10.594-.326-13.993-.244l.241 9.997zm1.871-6.313c1.183.789 1.743 2.317 1.357 3.736-.396 1.453-1.722 2.541-3.228 2.577l-.241-9.997c-3.085.075-5.46 2.147-6.18 4.794-.711 2.613.247 5.545 2.745 7.21l5.547-8.32zm-2.671 12.2c5.923-.95 7.816-8.77 2.671-12.2l-5.547 8.32c-2.576-1.717-1.583-5.533 1.292-5.994l1.584 9.874zm-5.586 1.039c-.018.006.126-.039.525-.128.359-.08.818-.173 1.358-.275a143.55 143.55 0 013.703-.636l-1.584-9.874c-1.356.218-2.765.456-3.971.683-1.082.204-2.348.461-3.194.743l3.163 9.487zm-4.66 1.898c1.256-.525 2.354-.979 3.199-1.322a83.951 83.951 0 011.36-.539c.087-.033.114-.042.101-.037l-3.163-9.487c-.772.257-2.941 1.151-5.352 2.158l3.855 9.227z" fill="#000" mask="url(#prefix__a)"/><ellipse cx="211.032" cy="344.558" rx="34.078" ry="42.913" fill="#C7EFFF"/><ellipse cx="196.96" cy="348.13" rx="13.56" ry="25.722" transform="rotate(-3.285 196.96 348.13)" fill="#000"/><path d="M192.527 356.586c1.549.055 2.698-1.193 3.403-2.553.745-1.434 1.214-3.365 1.289-5.459.074-2.094-.258-4.053-.898-5.536-.608-1.406-1.665-2.733-3.215-2.788-1.549-.055-2.698 1.193-3.404 2.553-.744 1.434-1.214 3.365-1.288 5.459-.074 2.094.258 4.053.898 5.536.608 1.406 1.665 2.733 3.215 2.788z" fill="#1ECDFD" stroke="#000" stroke-width="2"/><path d="M210.879 489.838l.013.002c5.759 1.185 11.765-.021 16.629-3.226 2.15-1.416 3.998-3.171 5.362-5.216 9.575-13.031 29.724-47.894 8.68-91.081-3.927-8.214-12.757-12.857-21.725-12.061l-.019.002-.019.002c-27.041 2.752-94.838 10.763-135.276 26.473l-.066.025-.064.029c-.748.331-1.796.816-2.687 1.403-4.234 2.789-6.614 7.59-6.596 12.648v.066l.003.066c.243 5.111 2.858 9.724 7.218 12.419l.013.008.012.008c11.929 7.213 32.928 19.47 56.469 31.088 23.495 11.595 49.72 22.653 72.053 27.345z" fill="#FFB6E9" stroke="#000" stroke-width="6"/><path d="M223.978 394.767c-.196-3.293-4.566-5.713-9.762-5.404-5.196.309-9.25 3.229-9.054 6.522.196 3.293 4.566 5.712 9.762 5.404 5.196-.309 9.25-3.229 9.054-6.522z" fill="#000"/><mask id="prefix__b" maskUnits="userSpaceOnUse" x="242.894" y="284.016" width="135" height="154" fill="#000"><path fill="#fff" d="M242.894 284.016h135v154h-135z"/><path d="M372.736 360.959c0 39.733-27.947 71.943-62.421 71.943-34.474 0-62.421-32.21-62.421-71.943s27.947-71.943 62.421-71.943c34.474 0 62.421 32.21 62.421 71.943z"/></mask><path d="M372.736 360.959c0 39.733-27.947 71.943-62.421 71.943-34.474 0-62.421-32.21-62.421-71.943s27.947-71.943 62.421-71.943c34.474 0 62.421 32.21 62.421 71.943z" fill="#82A6B8"/><path d="M367.736 360.959c0 37.661-26.351 66.943-57.421 66.943v10c37.879 0 67.421-35.139 67.421-76.943h-10zm-57.421 66.943c-31.07 0-57.421-29.282-57.421-66.943h-10c0 41.804 29.543 76.943 67.421 76.943v-10zm-57.421-66.943c0-37.662 26.351-66.943 57.421-66.943v-10c-37.878 0-67.421 35.138-67.421 76.943h10zm57.421-66.943c31.07 0 57.421 29.281 57.421 66.943h10c0-41.805-29.542-76.943-67.421-76.943v10z" fill="#000" mask="url(#prefix__b)"/><ellipse cx="305.025" cy="360.959" rx="57.131" ry="71.943" fill="#C7EFFF"/><ellipse cx="277.533" cy="361.258" rx="22.733" ry="43.123" transform="rotate(.342 277.533 361.258)" fill="#000"/><path d="M267.204 372.93c2.11-.02 3.703-1.801 4.705-3.967 1.038-2.242 1.637-5.26 1.605-8.534-.032-3.273-.689-6.279-1.77-8.5-1.044-2.146-2.671-3.896-4.78-3.876-2.11.02-3.703 1.802-4.705 3.967-1.038 2.242-1.637 5.261-1.605 8.534.032 3.273.688 6.28 1.769 8.501 1.045 2.146 2.672 3.896 4.781 3.875z" fill="#1ECDFD" stroke="#000" stroke-width="2"/></svg>