<svg width="987" height="680" fill="none" xmlns="http://www.w3.org/2000/svg"><path d="M948.5 455v199.5h-905V455C43.5 205.091 246.091 2.5 496 2.5S948.5 205.091 948.5 455z" fill="#EFF8FF" stroke="#000" stroke-width="5"/><path d="M71 446.5C71 211.503 261.503 21 496.5 21S922 211.503 922 446.5V657H71V446.5z" fill="#000" fill-opacity=".44"/><path d="M919.5 446.5v208h-846v-208c0-233.616 189.384-423 423-423s423 189.384 423 423z" stroke="#0343BF" stroke-opacity=".5" stroke-width="5"/><path d="M104 438.5C104 221.728 279.728 46 496.5 46S889 221.728 889 438.5V632H104V438.5z" fill="#000" fill-opacity=".44"/><path d="M886.5 438.5v191h-780v-191c0-215.391 174.609-390 390-390s390 174.609 390 390z" stroke="#0343BF" stroke-opacity=".4" stroke-width="5"/><path d="M140 429.5C140 232.611 299.61 73 496.5 73 693.389 73 853 232.611 853 429.5V605H140V429.5z" fill="#000" fill-opacity=".44"/><path d="M850.5 429.5v173h-708v-173c0-195.509 158.491-354 354-354s354 158.491 354 354z" stroke="#0343BF" stroke-opacity=".3" stroke-width="5"/><path d="M176 420.5C176 243.493 319.493 100 496.5 100S817 243.493 817 420.5V578H176V420.5z" fill="#000" fill-opacity=".44"/><path d="M814.5 420.5v155h-636v-155c0-175.627 142.373-318 318-318s318 142.373 318 318z" stroke="#0343BF" stroke-opacity=".2" stroke-width="5"/><path d="M211 411.5C211 253.823 338.823 126 496.5 126 654.177 126 782 253.823 782 411.5V552H211V411.5z" fill="#000" fill-opacity=".44"/><path d="M779.5 411.5v138h-566v-138c0-156.297 126.703-283 283-283s283 126.703 283 283z" stroke="#0343BF" stroke-opacity=".1" stroke-width="5"/><path d="M254 400.5C254 266.571 362.571 158 496.5 158S739 266.571 739 400.5V520H254V400.5z" fill="#000" fill-opacity=".44"/><path d="M736.5 400.5v117h-480v-117c0-132.548 107.452-240 240-240s240 107.452 240 240z" stroke="#0343BF" stroke-opacity=".1" stroke-width="5"/><path d="M297 389.5C297 279.319 386.319 190 496.5 190S696 279.319 696 389.5V488H297v-98.5z" fill="#000" fill-opacity=".44"/><path d="M693.5 389.5v96h-394v-96c0-108.8 88.2-197 197-197s197 88.2 197 197z" stroke="#0343BF" stroke-opacity=".05" stroke-width="5"/><path d="M579.594 83.764L528.953 65.69a2 2 0 00-2.664 1.7l-22.536 244.7c-.219 2.378 3.161 3.07 3.895.798l73.176-226.625a2 2 0 00-1.23-2.498z" fill="url(#prefix__paint0_linear_169_612)"/><path d="M488.925 59.964l-53.743 1.709a2 2 0 00-1.857 2.557l68.57 235.975c.666 2.293 4.065 1.7 3.916-.683L490.984 61.838a2 2 0 00-2.059-1.874z" fill="url(#prefix__paint1_linear_169_612)"/><path d="M414.824 83.291l-50.725 17.837a2 2 0 00-1 2.998l136.543 204.309c1.327 1.985 4.389.396 3.528-1.832L417.353 84.457a2 2 0 00-2.529-1.166z" fill="url(#prefix__paint2_linear_169_612)"/><path fill-rule="evenodd" clip-rule="evenodd" d="M439.221 241.575c-.435 90.233-71.526 190.982-71.526 190.982s-52.697 59.067-84.547 82.664c0 0-36.048 32.14 31.271 59.067 0 0 55.737 18.966 102.209-10.423 0 0 4.343 67.319 83.823 79.045 43.576 6.37 85.126-4.198 116.976-47.774 0 0 132.466 37.351 148.825-61.239 8.397-50.526-40.825-123.78-40.825-123.78-66.466-104.133-133.485-154.203-180.929-178.224l-14.786 17.922a2.001 2.001 0 01-3.098-.014l-9.711-11.996a1.999 1.999 0 00-2.522-.492l-24.613 13.602a2 2 0 01-2.486-.449l-10.627-12.397a2 2 0 00-2.867-.176l-13.459 12.289a2 2 0 01-2.976-.314l-8.481-11.874a2 2 0 00-2.645-.559l-7.006 4.14z" fill="#7EB9FF"/><path d="M704.868 540.709s43.287 4.488 60.515-2.896c0 0-7.817 89.47-148.102 57.33 0 0-73.254 97.721-178.359 17.662 0 0 85.85 55.593 169.239-46.471 0 .144 82.665 15.924 96.707-25.625z" fill="#005EEB"/><path d="M379.372 449.312s-53.946 15.343-127.502-30.878c0 0-40.514-25.52-26.44 7.519 0 0 29.374 89.815 126.281 62.158" fill="#7EB9FF"/><path d="M353.395 492.03c1.897-.816 2.923-2.958 2.334-5.023-.645-2.194-3.004-3.497-5.139-2.887-38.564 11.039-70.629 4.444-95.158-19.458-18.534-17.984-25.8-39.736-25.857-39.867l-.168-.391c-3.761-8.735-2.369-10.725-2.369-10.725 1.742-1.523 12.318 1.806 22.808 8.417 74.343 46.655 128.443 32.018 130.831 31.299 2.135-.61 3.359-2.991 2.713-5.186-.645-2.195-3.004-3.497-5.139-2.887-.689.142-53.272 14.125-124.118-30.327-5.729-3.56-24.757-14.686-32.57-7.767-6.071 5.395-1.483 16.401.201 20.312.758 2.456 8.642 24.251 27.822 43.039 18.59 18.114 51.549 36.532 103.486 21.745.07-.185.197-.239.323-.294z" fill="#000"/><path d="M695.263 426.156s53.036 21.588 132.015-16.013c0 0 43.506-20.772 25.992 10.58 0 0-38.622 86.261-133.883 47.386" fill="#7EB9FF"/><path d="M717.294 471.828a4.258 4.258 0 01-1.862-5.286c.87-2.117 3.386-3.143 5.485-2.286 37.905 15.503 70.989 12.645 98.169-8.369 20.529-15.802 30.037-36.676 30.107-36.8l.209-.371c4.671-8.284 3.461-10.433 3.461-10.433-1.611-1.723-12.637.372-23.903 5.753-79.817 37.943-133.078 17.042-135.422 16.046-2.099-.857-3.1-3.376-2.23-5.493.871-2.116 3.386-3.143 5.485-2.285.682.221 52.474 20.294 128.536-15.855 6.148-2.889 26.497-11.786 33.712-3.971 5.604 6.092-.129 16.548-2.221 20.257-1.009 2.364-11.147 23.209-32.409 39.739-20.599 15.925-55.761 30.485-106.819 9.685-.053-.193-.176-.262-.298-.331z" fill="#000"/><path d="M533.222 451.081c39.873 0 71.267-40.585 71.267-89.363s-31.394-89.364-71.267-89.364c-39.872 0-71.266 40.586-71.266 89.364 0 48.778 31.394 89.363 71.266 89.363z" fill="#4E4E4E" stroke="#000" stroke-width="5"/><ellipse cx="541.909" cy="361.718" rx="60.08" ry="86.863" fill="#000"/><path d="M407.969 211.505l36.644 10.259c1.834.514 3.28-1.586 2.145-3.117l-26.06-35.155c-.92-1.242-2.842-1.014-3.447.409l-10.583 24.896a2 2 0 001.301 2.708zM553.188 195.587l-27.978 25.792c-1.401 1.291-.373 3.624 1.525 3.463l43.603-3.709c1.541-.131 2.357-1.886 1.464-3.148l-15.626-22.083a2 2 0 00-2.988-.315zM433.408 142.541l39.445 47.54c1.351 1.628 3.975.317 3.485-1.741l-13.926-58.491a2 2 0 00-2.735-1.374l-25.518 10.951a2 2 0 00-.751 3.115zM528.55 126.923l-17.259 59.314c-.591 2.031 1.965 3.469 3.395 1.91l40.632-44.319a2 2 0 00-.395-3.035l-23.373-14.994a2 2 0 00-3 1.124z" fill="#7EB9FF" stroke="#000" stroke-width="5" stroke-linecap="round" stroke-linejoin="round"/><path d="M531.463 418.374a2.5 2.5 0 002.427 2.571l7.043.204a2.5 2.5 0 002.571-2.427l.266-9.182c5.015-.384 9.551-1.478 13.575-3.325l.007-.003c5.576-2.58 9.958-6.338 13.058-11.278 3.126-4.968 4.754-10.821 4.977-17.466l.001-.028c.1-4.524-.493-8.651-1.837-12.34-1.298-3.637-3.198-6.85-5.706-9.611-2.471-2.721-5.407-5.021-8.785-6.908-3.332-1.86-6.984-3.366-10.946-4.526l-2.428-.754.575-19.873a10.27 10.27 0 013.035 1.897c1.97 1.794 3.141 4.316 3.338 7.842a2.501 2.501 0 002.424 2.36l17.823.515a2.502 2.502 0 002.572-2.461c.096-6.49-1.229-12.347-4.049-17.499-2.814-5.141-6.853-9.207-12.062-12.177-3.702-2.122-7.843-3.518-12.394-4.219l.268-9.275a2.499 2.499 0 00-2.426-2.571l-7.044-.204a2.5 2.5 0 00-2.571 2.426l-.27 9.352c-4.342.477-8.4 1.61-12.158 3.417-5.504 2.649-9.925 6.453-13.21 11.403h0l-.006.01c-3.286 5.001-4.97 10.856-5.132 17.468-.262 8.075 1.83 14.845 6.521 20.028 4.525 4.999 10.699 8.664 18.37 11.085a.126.126 0 01.01.003l3.735 1.213-.62 21.437a15.69 15.69 0 01-1.73-.706c-2.068-1.037-3.678-2.497-4.878-4.404-1.142-1.894-1.823-4.34-1.914-7.456a2.501 2.501 0 00-2.427-2.426l-17.994-.52a2.5 2.5 0 00-2.572 2.475c-.074 7.7 1.334 14.388 4.361 19.947l.009.016c3.044 5.496 7.39 9.722 12.988 12.639l.005.002c4.014 2.08 8.512 3.447 13.466 4.132l-.266 9.197zm12.997-32.7l.504-17.419c.504.237.981.476 1.431.718l.012.006c1.942 1.03 3.245 2.171 4.061 3.361l.017.025c.766 1.089 1.192 2.49 1.138 4.354-.058 2.013-.623 3.691-1.653 5.122-1.043 1.45-2.516 2.614-4.524 3.459l-.01.005c-.314.134-.639.257-.976.369zm-10.243-62.488l-.458 15.833a18.069 18.069 0 01-2.38-1.591c-.993-.823-1.744-1.761-2.283-2.817-.45-.935-.682-2.1-.593-3.58l.004-.078c.051-1.767.522-3.256 1.375-4.539.869-1.264 2.113-2.282 3.842-3.023l.03-.013c.15-.067.305-.131.463-.192z" fill="#F09" stroke="#000" stroke-width="5" stroke-linejoin="round"/><path d="M410.391 407.657c4.021.852 7.991-.8 11.539-3.68 3.569-2.896 7.048-7.289 10.289-12.715 6.495-10.873 12.329-26.395 16.056-43.996 3.728-17.601 4.686-34.155 3.156-46.728-.764-6.273-2.163-11.699-4.252-15.794-2.076-4.07-5.036-7.19-9.058-8.041-4.021-.852-7.991.8-11.539 3.679-3.569 2.897-7.048 7.29-10.289 12.716-6.495 10.873-12.329 26.395-16.056 43.996-3.728 17.601-4.686 34.155-3.156 46.728.764 6.273 2.163 11.699 4.252 15.794 2.076 4.07 5.036 7.19 9.058 8.041z" fill="#4E4E4E" stroke="#000" stroke-width="5"/><ellipse cx="426.981" cy="342.756" rx="19.267" ry="64.429" transform="rotate(11.956 426.981 342.756)" fill="#000"/><path d="M394.238 397.135a2.5 2.5 0 001.811 3.037l4.855 1.228a2.5 2.5 0 003.036-1.811l2.049-8.097c3.496.322 6.832-.018 9.98-1.068l.008-.003c4.575-1.544 8.452-4.34 11.617-8.304 3.184-3.977 5.495-8.943 7-14.808l.006-.021c.991-4.005 1.423-7.755 1.248-11.23-.152-3.426-.807-6.596-1.998-9.483a26.733 26.733 0 00-4.798-7.67c-1.983-2.218-4.273-4.164-6.861-5.841l-1.215-.821 4.276-16.907c.212.283.4.584.567.901.951 1.809 1.284 4.259.675 7.568a2.499 2.499 0 001.845 2.876l12.285 3.108a2.5 2.5 0 003.044-1.837c1.387-5.745 1.672-11.148.774-16.17-.896-5.017-2.879-9.349-5.996-12.908-2.11-2.421-4.655-4.302-7.6-5.653l2.073-8.194a2.5 2.5 0 00-1.811-3.037l-4.855-1.228a2.5 2.5 0 00-3.036 1.811l-2.093 8.271a23.347 23.347 0 00-9.023 1.345c-4.524 1.613-8.437 4.439-11.736 8.389h0l-.006.007c-3.305 3.988-5.652 8.946-7.108 14.786-1.817 7.1-1.78 13.438.435 18.832 2.151 5.237 5.775 9.565 10.768 12.985l2.055 1.438-4.677 18.488c-1.089-1.107-1.878-2.549-2.317-4.426-.406-1.879-.379-4.219.21-7.086a2.499 2.499 0 00-1.835-2.927l-12.404-3.138a2.5 2.5 0 00-3.045 1.847c-1.623 6.843-2.019 13.002-1.062 18.416l.003.015c.983 5.367 3.148 9.904 6.571 13.487l.004.004c2.333 2.431 5.123 4.33 8.333 5.716l-2.052 8.113zm21.272-84.094l-3.092 12.225a12.16 12.16 0 01-.238-.369 7.711 7.711 0 01-.965-2.774c-.124-.935-.043-2.07.34-3.442a.133.133 0 01.005-.019l.01-.039c.418-1.651 1.08-2.96 1.944-3.993a6.485 6.485 0 011.996-1.589zm-.942 54.189c-.857.96-1.839 1.645-2.969 2.083l3.535-13.978c.932 1.047 1.507 2.11 1.801 3.192l.007.025c.306 1.085.324 2.458-.118 4.205-.474 1.876-1.244 3.34-2.256 4.473z" fill="#F09" stroke="#000" stroke-width="5" stroke-linejoin="round"/><path d="M420.344 470.911l.012.002c5.221 1.074 10.663-.02 15.07-2.923 1.946-1.282 3.625-2.874 4.869-4.735 8.565-11.66 26.603-42.874 7.764-81.535-3.565-7.452-11.57-11.654-19.69-10.933l-.019.001-.019.002c-24.101 2.453-84.591 9.598-120.692 23.623l-.065.025-.065.029c-.667.296-1.624.737-2.442 1.276-3.874 2.552-6.044 6.939-6.028 11.55v.066l.004.066c.221 4.659 2.607 8.872 6.589 11.334l.012.007.013.008c10.639 6.434 29.37 17.367 50.37 27.73 20.953 10.341 44.364 20.215 64.317 24.407z" fill="#FFB6E9" stroke="#000" stroke-width="6"/><path d="M432.486 387.373c-.175-2.936-4.072-5.093-8.704-4.818-4.633.275-8.246 2.878-8.072 5.814.174 2.936 4.071 5.093 8.704 4.818 4.632-.275 8.246-2.878 8.072-5.814z" fill="#000"/><rect x="2" y="655" width="983" height="23" rx="11.5" fill="#D9D9D9" stroke="#000" stroke-width="4"/><defs><linearGradient id="prefix__paint0_linear_169_612" x1="554.637" y1="67.411" x2="507.36" y2="312.392" gradientUnits="userSpaceOnUse"><stop stop-color="#fff" stop-opacity="0"/><stop offset="1" stop-color="#FFC700"/></linearGradient><linearGradient id="prefix__paint1_linear_169_612" x1="459.715" y1="53.877" x2="505.362" y2="299.167" gradientUnits="userSpaceOnUse"><stop stop-color="#fff" stop-opacity="0"/><stop offset="1" stop-color="#FFC700"/></linearGradient><linearGradient id="prefix__paint2_linear_169_612" x1="385.139" y1="86.297" x2="502.635" y2="306.4" gradientUnits="userSpaceOnUse"><stop stop-color="#fff" stop-opacity="0"/><stop offset="1" stop-color="#FFC700"/></linearGradient></defs></svg>