<svg width="652" height="707" viewBox="0 0 652 707" fill="none" xmlns="http://www.w3.org/2000/svg">
    <path
        d="M300.713 90.2537C300.017 92.8735 301.849 94.8606 303.222 95.7401C304.635 96.6454 306.985 97.352 309.062 96.2036C314.362 93.2732 319.88 93.3758 325.493 95.5013C331.182 97.6561 336.867 101.865 342.154 106.956C352.717 117.129 361.115 130.252 364.166 135.271C364.782 136.284 365.756 137.069 366.625 137.595C367.506 138.129 368.609 138.596 369.706 138.72C380.299 139.921 390.212 146.053 398.591 153.536C406.937 160.989 413.523 169.57 417.457 175.249C418.763 177.134 420.964 177.537 422.662 176.986C424.383 176.429 425.957 174.758 425.759 172.384C422.522 133.554 397.822 107.749 387.313 98.408C396.948 98.299 407.618 101.171 415.679 103.992C418.128 104.85 420.26 103.517 421.224 101.934C422.203 100.325 422.386 97.715 420.212 96.0366C393.788 75.6381 368.473 71.5392 358.368 70.7281C368.034 57.4961 380.207 52.0017 388.155 49.7267C390.462 49.0666 391.519 46.9534 391.641 45.2369C391.763 43.5016 390.947 41.0753 388.339 40.4256C357.881 32.8361 334.348 52.8065 326.838 60.2448C322.378 50.488 316.601 44.6552 312.105 41.32C311.173 40.6293 310.074 40.3596 308.993 40.5211C307.965 40.6749 307.113 41.1916 306.492 41.7986C305.292 42.9715 304.541 44.8995 305.062 46.8671C306.55 52.4872 306.313 60.2797 305.224 68.3631C304.146 76.3734 302.277 84.3712 300.713 90.2537Z"
        fill="#FF009F" stroke="black" stroke-width="5" stroke-linejoin="round" />
    <!-- <g id="brain">
        <path
            d="M336.195 169.787C339.315 164.696 336.718 157.341 331.501 156.027C331.713 152.022 328.38 148.123 324.242 147.131C322.289 146.668 324.043 145.632 323.834 143.731C323.652 142.021 323.267 140.256 322.577 138.662C321.407 135.975 319.438 133.806 316.754 132.577C315.452 131.981 313.996 131.635 312.561 131.575C311.466 131.532 309.745 132.163 308.932 131.506C307.999 130.755 307.346 128.713 306.606 127.736C305.645 126.46 304.52 125.273 303.282 124.264C298.974 120.751 292.095 120.919 287.217 123.557C285.646 121.885 284.827 119.099 282.553 118.563C279.414 117.823 275.405 118.875 272.311 119.73C270.101 119.605 268.294 121.06 266.279 121.902C264.967 122.126 263.804 121.809 262.4 121.371C260.289 120.711 258.239 120.086 256.12 120.863C254.845 120.638 253.542 120.558 252.159 120.836C248.231 121.625 245.155 124.254 242.394 126.991C240.178 129.189 238.134 129.988 235.041 130.327C233.19 130.53 231.384 130.799 229.606 131.351C226.35 132.363 223.21 134.245 221.4 137.213C220.963 137.921 220.733 138.69 220.363 139.422C219.498 141.109 218.726 141.482 216.962 141.807C215.229 142.123 213.615 142.466 212.029 143.274C209.317 144.657 206.958 146.869 205.428 149.492C203.513 150.779 202.694 152.995 202.623 155.43C202.567 157.397 203.007 159.353 202.941 161.314C202.869 163.56 201.855 165.453 200.929 167.441C198.123 173.466 198.755 180.498 203.38 185.503C204.38 186.58 206.507 187.604 207.079 188.93C207.426 189.735 207.388 190.974 207.635 191.85C207.873 192.694 208.162 193.506 208.533 194.304C209.898 197.228 212.09 199.791 214.829 201.52C220.389 205.024 225.958 205.878 233.975 199.683C236.781 207.048 242.127 209.151 248.113 210.481C255.697 212.169 262.461 208.939 269.778 207.548C274.477 206.653 278.803 207.488 282.303 209.845C282.514 210.044 282.716 210.244 282.919 210.445C284.224 211.813 285.375 213.457 286.904 214.582C287.236 215.09 287.557 215.618 287.85 216.172C288.59 217.579 289.185 219.079 289.568 220.621C289.96 222.195 289.899 224.051 290.762 225.467C292.435 228.201 296.772 227.581 299.462 227.183C303.061 226.659 305.551 225.124 305.742 221.228C305.849 219.015 304.251 216.793 303.753 214.595C308.375 214.376 314.392 212.397 318.293 210.137C322.843 207.497 326.869 204.094 327.998 198.86C328.06 198.593 328.159 197.938 328.087 197.743C328.127 197.122 329.122 194.461 329.016 193.811C332.344 192.384 333.933 191.893 335.964 188.794C337.618 186.274 338.657 181.331 337.565 178.554C339.991 176.641 339.589 176.462 339.286 173.316C338.996 170.914 338.269 170.225 336.195 169.787Z"
            fill="#FF5F76" />
        <path
            d="M337.754 171.049C337.184 170.247 336.396 169.678 335.524 169.236C334.9 168.914 334.172 168.74 333.572 168.377C332.499 167.742 332.13 166.892 331.393 165.983C329.977 164.251 328.271 163.932 326.142 163.818C324.867 163.748 324.118 163.71 323.066 162.906C322.128 162.199 321.485 161.384 320.211 161.407C317.58 161.461 317.191 165.267 314.247 163.879C311.462 162.566 309.784 158.012 308.313 155.478C305.746 151.062 302.99 143.451 296.93 143.139C294.889 143.035 293.287 144.028 291.969 145.482C291.083 146.454 290.275 147.979 288.752 147.944C287.4 147.904 286.115 146.607 284.991 145.97C283.22 144.965 280.915 144.317 279.028 145.399C276.861 146.645 277.226 149.069 276.852 151.186C276.266 154.505 273.983 158.148 270.21 157.75C267.766 157.493 265.053 156.771 263.483 159.284C262.209 161.319 263.385 165.921 259.592 165.177C257.179 164.696 256.326 161.671 253.652 161.513C251.354 161.379 249.68 163.337 249.159 165.392C248.436 168.226 249.855 171.461 247.015 173.43C241.341 177.358 238.716 168.378 234.375 166.516C233.515 166.148 232.673 166.634 232.27 167.401C231.631 168.612 231.455 169.848 231.491 171.196C231.528 172.698 232.085 174.612 231.452 176.028C230.033 179.196 223.533 177.478 220.955 177.113C213.247 176.019 205.001 172.988 202.589 164.764C202.314 163.819 200.914 164.308 200.995 165.205C201.014 165.457 201.05 165.705 201.085 165.953C200.912 166.07 200.76 166.233 200.645 166.464C198.402 171.1 198.406 176.634 200.76 181.239C202.071 183.817 204.291 185.504 205.894 187.837C207.644 190.386 208.053 193.64 209.71 196.284C214.88 204.539 226.972 207.251 233.632 199.624C236.874 203.291 240.405 206.886 245.066 208.632C250.475 210.657 256.811 210.299 262.372 209.17C265.37 208.557 268.199 207.158 271.206 206.698C274.427 206.203 277.608 207.335 280.201 209.217C284.468 212.311 286.324 216.885 289.049 221.188C291.201 224.586 294.726 227.855 299.081 226.594C302.989 225.458 305.706 221.1 304.564 217.108C304.303 216.184 303.606 215.358 303.401 214.445C303.06 212.899 303.667 212.952 305.048 212.786C305.564 212.727 306.335 212.87 306.825 212.904C309.815 213.084 312.889 213.224 315.771 212.231C320.353 210.648 324.504 206.04 326.399 201.879C327.454 199.554 328.082 194.34 328.421 194.108C329.827 193.152 332.077 192.261 333.992 190.518C335.47 189.173 336.721 187.635 337.232 185.669C337.599 184.285 337.454 182.916 337.52 181.505C337.604 179.943 338.032 178.473 338.342 176.95C338.762 174.993 338.984 172.791 337.754 171.049Z"
            fill="#FF385E" />
        <path
            d="M278.738 121.494C278.119 121.557 277.678 122.309 277.95 122.877C278.501 124.01 279.461 124.883 280.034 126.002C280.628 127.167 280.744 128.492 281.31 129.647C281.673 130.387 282.602 130.512 283.14 129.888C285.62 127.041 282.444 121.137 278.738 121.494Z"
            fill="white" />
        <path
            d="M280.665 132.632C280.514 132.984 280.283 133.29 280.051 133.595C279.819 133.901 279.61 134.227 279.32 134.48C278.736 134.997 279.252 136.098 280.042 135.729C280.634 135.451 281.162 135.07 281.48 134.49C281.773 133.944 281.849 133.39 281.823 132.778C281.806 132.138 280.882 132.124 280.665 132.632Z"
            fill="white" />
        <path
            d="M208.724 150.848C207.74 151.108 207.069 151.289 206.58 152.269C206.121 153.172 206.197 154.113 206.568 155.031C206.8 155.61 207.799 155.681 208.001 155.023C208.189 154.411 208.481 153.83 208.698 153.228C208.819 152.893 208.962 152.578 208.989 152.217C209.012 151.902 208.967 151.622 209.087 151.313C209.165 151.102 208.989 150.782 208.724 150.848Z"
            fill="white" />
        <path
            d="M320.553 148.653C319.889 147.637 318.591 146.508 317.277 146.818C316.594 146.984 315.981 147.707 316.352 148.445C316.736 149.196 317.461 149.636 317.924 150.331C318.319 150.942 318.745 151.69 319.006 152.372C319.332 153.226 320.493 153.105 320.852 152.368C321.482 151.064 321.346 149.848 320.553 148.653Z"
            fill="white" />
        <path
            d="M321.397 155.091C321.073 154.46 320.233 154.284 319.765 154.88C319.612 155.069 319.512 155.295 319.441 155.53C319.412 155.641 319.383 155.753 319.357 155.872C319.348 155.9 319.35 155.908 319.344 155.918C319.316 156.003 319.289 156.089 319.261 156.174C319.152 156.548 319.146 156.894 318.908 157.27C318.694 157.606 318.682 158.021 318.98 158.316C319.25 158.575 319.72 158.657 320.024 158.391C320.472 157.998 320.955 157.579 321.226 157.047C321.502 156.47 321.689 155.67 321.397 155.091Z"
            fill="white" />
        <path
            d="M327.85 195.042C327.285 199.258 325.493 203.269 322.672 206.462C319.656 209.881 315.577 212.182 311.119 213.104C308.471 213.652 305.72 213.679 303.059 213.2C302.116 213.028 301.737 214.398 302.678 214.657C302.614 214.641 302.532 214.595 302.492 214.546C302.495 214.554 302.55 214.598 302.55 214.598C302.55 214.598 302.519 214.547 302.597 214.671C302.691 214.825 302.777 215.007 302.846 215.16C303.075 215.697 303.242 216.26 303.399 216.817C303.738 218.02 304.021 219.238 304.248 220.471C304.649 222.687 304.307 226.17 301.396 226.638C299.167 226.991 296.484 227.412 294.116 227.245C293.012 227.17 292.336 226.174 291.858 225.209C291.177 223.828 290.834 222.309 290.356 220.854C289.84 219.297 289.027 217.876 288.147 216.491C287.107 214.876 285.928 213.344 284.608 211.954C282.09 209.303 278.851 206.958 275.223 206.159C273.592 205.802 271.941 205.889 270.335 206.35C268.522 206.87 266.805 207.671 264.994 208.199C261.096 209.34 257.034 209.961 252.973 210.005C249.236 210.044 245.372 209.629 242.034 207.845C239.364 206.423 237.287 204.206 235.859 201.549C235.515 200.907 235.208 200.246 234.939 199.565C234.586 198.677 233.134 199.077 233.49 199.974C234.674 202.923 236.423 205.653 238.954 207.621C241.94 209.951 245.558 211.02 249.292 211.369C253.534 211.755 257.853 211.372 262.016 210.499C264.028 210.078 266.013 209.527 267.945 208.82C269.683 208.184 271.356 207.412 273.235 207.432C275.078 207.446 276.88 208.167 278.481 209.031C280.248 209.994 281.815 211.254 283.222 212.679C285.762 215.256 288.044 218.445 289.125 221.914C289.888 224.38 290.75 228.383 293.885 228.711C295.232 228.856 296.63 228.694 297.975 228.556C299.235 228.424 300.489 228.268 301.742 228.079C305.023 227.584 306.231 223.969 305.858 221.032C305.707 219.854 305.445 218.681 305.154 217.526C304.866 216.352 304.568 215.078 303.968 214.018C303.763 213.655 303.488 213.32 303.075 213.196C302.944 213.679 302.824 214.169 302.694 214.652C307.697 215.572 312.901 214.793 317.426 212.461C321.554 210.335 324.923 206.859 327.027 202.734C328.195 200.445 328.977 197.973 329.325 195.425C329.425 194.469 327.974 194.079 327.85 195.042Z"
            fill="#231F20" stroke="black" stroke-width="2" />
        <path
            d="M271.574 207.058C278.788 202.525 287.229 201.186 295.535 200.195C299.375 199.731 303.206 199.176 307.06 198.821C310.669 198.483 314.288 198.245 317.871 197.691C321.757 197.086 325.69 196.098 329.041 193.959C329.856 193.437 329.081 192.151 328.266 192.673C325.323 194.551 321.914 195.477 318.507 196.076C314.921 196.709 311.275 196.945 307.654 197.27C303.84 197.614 300.049 198.158 296.249 198.61C292.122 199.094 287.981 199.616 283.928 200.543C279.311 201.604 274.823 203.247 270.802 205.781C269.974 206.289 270.751 207.583 271.574 207.058Z"
            fill="#231F20" stroke="black" stroke-width="2" />
        <path
            d="M279.777 202.923C280.759 205.431 283.142 207.149 285.845 207.195C285.603 206.885 285.359 206.567 285.117 206.257C284.305 210.267 287.233 214.1 291.362 214.235C291.838 214.247 292.304 214.193 292.771 214.113C293.172 214.042 293.618 213.917 294.016 214.08C294.471 214.261 294.851 214.661 295.283 214.883C295.664 215.076 296.07 215.237 296.481 215.353C298.267 215.864 300.225 215.587 301.796 214.603C302.614 214.089 301.839 212.804 301.021 213.318C299.728 214.129 298.148 214.316 296.693 213.85C295.899 213.592 295.332 213.013 294.587 212.69C293.827 212.371 293.072 212.558 292.289 212.676C288.831 213.186 285.9 210.041 286.587 206.625C286.683 206.142 286.359 205.692 285.859 205.687C283.871 205.646 281.974 204.375 281.242 202.51C280.873 201.626 279.429 202.024 279.777 202.923Z"
            fill="#231F20" stroke="black" stroke-width="2" />
        <path
            d="M234.717 197.95C233.071 193.146 232.225 187.093 236.274 183.193C237.138 182.357 238.139 181.851 239.265 181.457C239.851 181.249 240.42 181.011 240.895 180.593C241.384 180.163 241.718 179.579 242.074 179.041C243.351 177.108 245.177 175.597 247.252 174.574C249.311 173.555 251.651 173.076 253.943 173.187C255.189 173.248 256.33 173.666 257.555 173.836C258.916 174.029 259.852 173.326 260.556 172.226C262.031 169.928 263.497 167.718 265.561 165.891C267.509 164.173 269.856 162.927 272.42 162.48C273.78 162.243 275.212 162.26 276.558 162.586C277.941 162.918 279.338 163.727 280.477 162.401C280.937 161.867 281.264 161.199 281.65 160.618C282.067 159.993 282.517 159.394 283.014 158.841C284.004 157.746 285.217 156.837 286.747 156.775C287.24 156.757 287.586 156.307 287.465 155.817C286.779 153.079 288.199 150.126 290.709 148.878C291.575 148.445 290.793 147.161 289.934 147.592C286.823 149.148 285.176 152.878 286.024 156.223C286.261 155.907 286.507 155.588 286.742 155.264C283.879 155.383 281.909 157.571 280.403 159.792C280.063 160.292 279.781 160.878 279.398 161.347C278.892 161.962 278.143 161.469 277.521 161.274C276.292 160.907 274.986 160.76 273.708 160.828C268.082 161.115 263.627 164.915 260.58 169.383C260.203 169.936 259.849 170.508 259.502 171.079C259.204 171.575 258.874 172.235 258.256 172.358C257.637 172.481 256.91 172.127 256.314 171.994C255.718 171.861 255.109 171.775 254.499 171.715C252.072 171.488 249.576 171.933 247.344 172.889C245.158 173.823 243.153 175.247 241.657 177.104C240.853 178.096 240.341 179.452 239.083 179.927C237.872 180.388 236.773 180.818 235.754 181.655C233.654 183.382 232.367 186.013 231.985 188.682C231.524 191.957 232.226 195.24 233.287 198.336C233.584 199.267 235.027 198.868 234.717 197.95Z"
            fill="#231F20" stroke="black" stroke-width="2" />
        <path
            d="M240.044 192.61C246.307 195.804 254.505 194.276 259.138 188.974C258.962 189.05 258.778 189.127 258.601 189.203C263.154 188.616 267.842 187.166 271.675 184.573C274.583 182.602 277.268 179.594 277.067 175.861C276.644 176.04 276.214 176.221 275.794 176.408C280.205 179.832 286.416 177.961 291.044 175.961C295.695 173.954 299.808 170.862 302.643 166.617C304.48 163.864 305.685 160.731 306.393 157.507C306.599 156.564 305.143 156.183 304.936 157.127C303.818 162.246 301.341 166.906 297.347 170.361C293.932 173.308 289.57 175.337 285.188 176.348C282.445 176.983 279.18 177.139 276.836 175.315C276.363 174.95 275.526 175.152 275.563 175.863C275.698 178.386 274.248 180.497 272.425 182.11C270.209 184.067 267.377 185.363 264.599 186.301C263.029 186.829 261.425 187.238 259.794 187.517C259.368 187.594 258.909 187.612 258.491 187.713C258.12 187.8 257.945 188.064 257.694 188.332C257.253 188.809 256.768 189.255 256.262 189.656C254.252 191.245 251.795 192.255 249.261 192.625C246.381 193.05 243.374 192.626 240.773 191.296C239.919 190.857 239.179 192.166 240.044 192.61Z"
            fill="#231F20" stroke="black" stroke-width="2" />
        <path
            d="M247.13 196.226C245.781 198.119 246.133 200.984 247.843 202.539C248.144 202.816 248.618 202.82 248.905 202.524C249.185 202.239 249.19 201.739 248.889 201.463C248.798 201.385 248.714 201.297 248.629 201.209C248.594 201.176 248.566 201.141 248.529 201.1C248.608 201.198 248.512 201.07 248.492 201.059C248.354 200.874 248.24 200.683 248.137 200.471C248.139 200.479 248.051 200.289 248.09 200.364C248.122 200.45 248.055 200.271 248.05 200.255C248.009 200.138 247.969 200.029 247.936 199.909C247.907 199.806 247.885 199.7 247.864 199.594C247.856 199.536 247.838 199.473 247.831 199.415C247.844 199.523 247.831 199.415 247.825 199.365C247.804 199.138 247.8 198.908 247.813 198.681C247.815 198.628 247.82 198.584 247.825 198.54C247.838 198.312 247.811 198.612 247.833 198.477C247.852 198.36 247.878 198.241 247.905 198.122C247.928 198.021 247.957 197.909 247.998 197.812C248 197.82 248.067 197.629 248.035 197.698C248.005 197.776 248.076 197.601 248.082 197.591C248.184 197.373 248.306 197.166 248.446 196.964C248.679 196.632 248.486 196.127 248.159 195.944C247.771 195.727 247.365 195.902 247.13 196.226Z"
            fill="#231F20" stroke="black" stroke-width="2" />
        <path
            d="M263.67 200.357C264.592 200.398 265.261 199.814 266.003 199.365C266.911 198.808 267.966 198.983 268.976 199.12C271.058 199.401 272.995 199.354 274.943 198.487C276.836 197.644 278.186 196.241 279.334 194.551C279.886 193.734 280.438 192.856 281.236 192.244C281.929 191.714 282.76 191.428 283.62 191.28C285.422 190.962 287.277 191.204 289.102 191.06C291.094 190.902 292.725 190.253 294.193 188.877C295.002 188.116 295.761 187.335 296.801 186.879C297.818 186.429 298.951 186.273 300.054 186.22C302.03 186.127 304.04 186.489 306.003 186.228C307.932 185.968 309.794 185.315 311.524 184.44C313.203 183.598 314.858 182.487 316.038 181.002C316.634 180.25 315.566 179.202 314.954 179.959C312.933 182.488 309.518 184.06 306.392 184.649C304.563 184.992 302.679 184.681 300.835 184.693C298.692 184.713 296.454 185.034 294.711 186.385C293.877 187.024 293.204 187.867 292.355 188.484C291.642 189.003 290.829 189.292 289.971 189.448C288.196 189.768 286.369 189.535 284.576 189.67C282.774 189.8 281.03 190.292 279.724 191.605C278.323 193.005 277.591 194.922 275.993 196.146C274.172 197.553 271.956 198.014 269.697 197.714C268.591 197.57 267.362 197.297 266.264 197.607C265.786 197.741 265.352 198.001 264.941 198.28C264.557 198.535 264.172 198.875 263.685 198.858C262.695 198.819 262.705 200.32 263.67 200.357Z"
            fill="#231F20" stroke="black" stroke-width="2" />
        <path
            d="M221.298 170.827C225.301 170.455 227.355 166.67 228.622 163.297C229.274 161.557 229.862 159.768 230.911 158.217C231.978 156.636 233.598 155.552 235.366 154.873C237.444 154.073 239.666 153.722 241.862 153.404C242.266 153.341 242.476 152.835 242.383 152.475C242.269 152.043 241.86 151.9 241.454 151.954C237.754 152.49 233.739 153.183 230.938 155.872C228.192 158.51 227.784 162.398 225.984 165.587C224.995 167.353 223.439 169.123 221.293 169.315C220.331 169.406 220.333 170.909 221.298 170.827Z"
            fill="#231F20" stroke="black" stroke-width="2" />
        <path
            d="M239.476 137.251C241.052 135.921 243.492 136.222 244.672 137.909C245.952 139.74 245.058 142.055 244.434 143.958C243.219 147.669 241.688 151.659 243.237 155.511C243.983 157.363 245.282 158.862 247.181 159.565C248.093 159.901 248.455 158.441 247.562 158.108C245.883 157.49 244.842 155.867 244.383 154.208C243.828 152.208 244.12 150.166 244.658 148.201C245.677 144.467 248.828 139.024 244.871 135.962C242.923 134.449 240.255 134.65 238.407 136.203C237.655 136.827 238.739 137.871 239.476 137.251Z"
            fill="#231F20" stroke="black" stroke-width="2" />
        <path
            d="M253.919 127.962C256.423 128.829 258.413 130.95 259.163 133.489C259.433 134.418 260.882 134.01 260.612 133.081C259.712 130.008 257.316 127.546 254.299 126.506C253.918 126.373 253.479 126.677 253.386 127.047C253.272 127.466 253.529 127.831 253.919 127.962Z"
            fill="#231F20" stroke="black" stroke-width="2" />
        <path
            d="M264.144 129.697C260.719 130.258 258.839 134.2 258.675 137.34C258.634 138.142 258.712 138.997 259.001 139.749C259.151 140.128 259.508 140.389 259.93 140.27C260.288 140.169 260.6 139.72 260.45 139.341C260.383 139.162 260.323 138.981 260.277 138.788C260.258 138.69 260.237 138.585 260.218 138.487C260.189 138.323 260.222 138.529 260.203 138.371C260.162 137.952 260.162 137.523 260.189 137.103C260.255 136.268 260.5 135.339 260.85 134.536C261.564 132.891 262.774 131.424 264.558 131.136C264.962 131.074 265.18 130.566 265.079 130.207C264.944 129.79 264.546 129.627 264.144 129.697Z"
            fill="#231F20" stroke="black" stroke-width="2" />
        <path
            d="M258.747 137.596C256.461 139.245 255.181 141.84 254.88 144.615C254.52 147.94 255.7 151.243 257.296 154.102C257.767 154.949 259.052 154.174 258.582 153.327C257.169 150.786 256.123 147.926 256.348 144.975C256.524 142.64 257.594 140.275 259.521 138.881C260.3 138.318 259.533 137.03 258.747 137.596Z"
            fill="#231F20" stroke="black" stroke-width="2" />
        <path
            d="M213.853 157.096C213.645 154.955 213.863 152.771 214.76 150.799C215.568 149.033 216.812 147.531 218.295 146.296C219.925 144.943 221.897 143.829 223.942 143.278C225.284 142.917 226.678 142.8 228.058 142.909C228.692 142.963 229.348 143.156 229.971 142.929C230.557 142.721 230.845 142.218 231.042 141.665C231.888 139.269 234.403 138.526 236.666 137.957C237.604 137.718 237.196 136.269 236.258 136.508C234.132 137.047 231.751 137.778 230.397 139.62C230.073 140.055 229.852 140.522 229.67 141.037C229.567 141.341 229.571 141.477 229.259 141.531C228.892 141.6 228.317 141.418 227.938 141.387C226.537 141.293 225.113 141.427 223.749 141.769C219.628 142.792 215.583 145.823 213.647 149.626C212.477 151.941 212.08 154.528 212.334 157.103C212.448 158.059 213.952 158.057 213.853 157.096Z"
            fill="#231F20" stroke="black" stroke-width="2" />
        <path
            d="M265.196 129.891C264.949 127.52 265.997 125.386 267.762 123.84C269.155 122.622 271.238 121.597 273.124 121.856C274.071 121.984 274.462 120.534 273.505 120.4C271.054 120.059 268.619 121.149 266.781 122.707C264.702 124.479 263.411 127.128 263.7 129.892C263.791 130.854 265.294 130.852 265.196 129.891Z"
            fill="#231F20" stroke="black" stroke-width="2" />
        <path
            d="M259.861 155.577C261.598 155.122 263.559 155.524 264.925 156.712C266.391 157.983 267.104 160.025 266.75 161.938C266.569 162.883 268.028 163.271 268.206 162.319C268.658 159.896 267.858 157.269 265.968 155.627C264.194 154.09 261.717 153.533 259.453 154.128C258.527 154.381 258.925 155.824 259.861 155.577Z"
            fill="#231F20" stroke="black" stroke-width="2" />
        <path
            d="M248.838 160.747C251.415 161.198 252.729 163.939 251.45 166.233C250.892 167.241 250.17 168.218 250.28 169.433C250.385 170.598 251.105 171.659 252.177 172.139C253.054 172.536 253.794 171.228 252.909 170.833C251.796 170.33 251.544 169.189 252.077 168.154C252.685 166.985 253.374 166.018 253.462 164.652C253.639 162.076 251.737 159.75 249.215 159.309C248.27 159.128 247.888 160.576 248.838 160.747Z"
            fill="#231F20" stroke="black" stroke-width="2" />
        <path
            d="M232.733 168.586C233.774 168.774 234.854 168.977 235.762 169.546C236.797 170.199 236.895 171.341 237.341 172.375C238.244 174.45 240.167 175.996 242.375 176.483C243.318 176.69 243.699 175.233 242.755 175.026C241.684 174.795 240.716 174.286 239.93 173.511C239.099 172.696 238.694 171.745 238.334 170.652C237.965 169.526 237.299 168.657 236.255 168.092C235.29 167.565 234.191 167.324 233.113 167.129C232.162 166.959 231.78 168.407 232.733 168.586Z"
            fill="#231F20" stroke="black" stroke-width="2" />
        <path
            d="M217.764 170.913C213.767 171.369 209.745 172.803 207.393 176.259C205.425 179.16 205.352 183.108 207.78 185.776C209.025 187.144 210.716 187.656 212.504 187.839C214.203 188.014 216.239 187.921 217.589 189.174C218.335 189.866 218.36 190.779 218.48 191.725C218.597 192.628 218.855 193.484 219.289 194.29C220.156 195.902 221.63 197.171 223.247 197.996C224.702 198.738 226.411 199.253 228.04 199.421C229.765 199.597 231.499 199.16 233.155 198.693C234.086 198.431 233.68 196.99 232.746 197.244C231.401 197.623 230.017 197.988 228.604 197.947C227.399 197.909 226.186 197.537 225.06 197.141C223.524 196.603 222.054 195.625 221.082 194.309C220.611 193.676 220.265 192.966 220.074 192.195C219.856 191.302 219.925 190.355 219.586 189.488C218.994 187.996 217.533 187.144 216.04 186.757C214.353 186.321 212.565 186.533 210.892 186.025C207.789 185.077 206.756 181.32 207.867 178.523C209.453 174.544 213.817 172.859 217.772 172.406C218.722 172.302 218.72 170.798 217.764 170.913Z"
            fill="#231F20" stroke="black" stroke-width="2" />
        <path
            d="M210.752 173.327C209.186 170.33 207.618 166.75 208.701 163.333C209.605 160.501 212.393 158.409 215.343 158.265C216.309 158.216 216.299 156.715 215.333 156.764C211.789 156.937 208.595 159.298 207.357 162.621C205.923 166.497 207.675 170.67 209.459 174.104C209.913 174.955 211.199 174.18 210.752 173.327Z"
            fill="#231F20" stroke="black" stroke-width="2" />
        <path
            d="M286.27 124.433C288.629 128.503 287.912 133.767 285.225 137.498C283.815 139.451 281.74 140.655 280.076 142.344C278.32 144.136 277.405 146.62 278.374 149.054C279.444 151.752 282.367 153.189 285.17 152.494C286.111 152.263 285.702 150.814 284.762 151.045C282.391 151.627 280.008 150.124 279.547 147.727C279.072 145.248 280.926 143.471 282.672 142.042C284.432 140.601 286.051 139.182 287.211 137.196C288.355 135.25 289.02 133.034 289.176 130.781C289.347 128.309 288.805 125.806 287.558 123.666C287.069 122.815 285.783 123.59 286.27 124.433Z"
            fill="#231F20" stroke="black" stroke-width="2" />
        <path
            d="M289.026 133.145C293.153 129.644 299.468 129.79 303.394 133.505C305.246 135.261 306.373 137.521 306.771 140.031C307.184 142.656 307.072 145.369 306.801 148.006C306.528 150.636 306.051 153.245 305.397 155.802C305.154 156.738 306.61 157.119 306.853 156.182C308.195 150.94 309.062 145.203 308.256 139.81C307.406 134.171 302.844 129.603 297.09 129.128C293.782 128.857 290.469 129.971 287.951 132.107C287.207 132.729 288.299 133.771 289.026 133.145Z"
            fill="#231F20" stroke="black" stroke-width="2" />
        <path
            d="M316.682 180.237C320.547 175.899 321.307 169.291 318.544 164.182C318.398 164.55 318.254 164.925 318.101 165.295C320.763 164.494 323.069 162.675 324.415 160.224C325.807 157.692 326.021 154.667 325.448 151.872C324.387 146.705 320.211 141.857 314.643 141.801C311.748 141.775 308.955 143.026 307.249 145.389C306.688 146.174 308.002 146.904 308.555 146.121C309.822 144.363 311.969 143.414 314.098 143.313C316.361 143.2 318.517 144.019 320.209 145.51C323.709 148.597 325.334 154.181 323.532 158.582C322.501 161.116 320.296 163.052 317.69 163.838C317.207 163.983 317.014 164.519 317.248 164.951C319.683 169.447 318.994 175.357 315.593 179.177C314.958 179.915 316.035 180.96 316.682 180.237Z"
            fill="#231F20" stroke="black" stroke-width="2" />
        <path
            d="M318.874 165.781C321.635 165.699 324.348 166.756 326.354 168.658C328.593 170.777 329.796 173.798 329.893 176.857C329.924 177.819 331.427 177.817 331.394 176.846C331.29 173.395 329.922 169.973 327.398 167.573C325.121 165.413 322.014 164.174 318.869 164.27C317.899 164.302 317.909 165.804 318.874 165.781Z"
            fill="#231F20" stroke="black" stroke-width="2" />
        <path
            d="M329.068 171.519C331.292 171.847 333.497 171.526 335.532 170.575C335.896 170.403 335.976 169.865 335.782 169.542C335.556 169.167 335.121 169.118 334.749 169.291C333.116 170.052 331.225 170.327 329.441 170.065C329.038 170.007 328.631 170.182 328.527 170.606C328.432 170.968 328.665 171.461 329.068 171.519Z"
            fill="#231F20" stroke="black" stroke-width="2" />
        <path
            d="M318.026 197.175C322.845 195.946 324.919 190.497 323.431 186.009C323.193 186.325 322.948 186.644 322.713 186.968C328.797 187.333 334.842 183.988 337.803 178.668C338.27 177.823 336.961 177.083 336.497 177.936C333.781 182.817 328.282 185.811 322.712 185.472C322.232 185.445 321.85 185.982 321.994 186.431C323.223 190.15 321.67 194.704 317.622 195.742C316.679 195.965 317.088 197.414 318.026 197.175Z"
            fill="#231F20" stroke="black" stroke-width="2" />
        <path
            d="M256.788 197.772C258.868 199.481 261.557 200.391 264.255 200.206C264.66 200.178 265.004 199.875 265.006 199.453C265 199.068 264.657 198.675 264.253 198.703C261.951 198.862 259.622 198.16 257.84 196.685C257.527 196.43 257.071 196.395 256.779 196.701C256.506 196.984 256.473 197.509 256.788 197.772Z"
            fill="#231F20" stroke="black" stroke-width="2" />
        <path
            d="M260.541 199.285C258.982 201.469 258.94 204.583 260.368 206.845C260.882 207.663 262.175 206.886 261.653 206.07C260.493 204.24 260.568 201.821 261.849 200.025C262.082 199.693 261.889 199.189 261.562 199.006C261.172 198.78 260.774 198.953 260.541 199.285Z"
            fill="#231F20" stroke="black" stroke-width="2" />
        <path
            d="M246.026 194.079C245.93 195.112 246.085 196.177 246.45 197.14C246.522 197.334 246.625 197.486 246.809 197.589C246.972 197.68 247.206 197.717 247.379 197.66C247.741 197.541 248.046 197.128 247.899 196.731C247.808 196.499 247.733 196.263 247.674 196.021C247.644 195.918 247.623 195.812 247.604 195.714C247.592 195.64 247.574 195.577 247.562 195.503C247.556 195.453 247.554 195.29 247.56 195.495C247.555 195.264 247.508 195.037 247.503 194.806C247.494 194.559 247.511 194.314 247.527 194.069C247.564 193.68 247.147 193.299 246.774 193.318C246.336 193.347 246.07 193.654 246.026 194.079Z"
            fill="#231F20" stroke="black" stroke-width="2" />
        <path
            d="M207.791 187.825C204.669 192.882 208.8 198.756 212.902 201.726C216.82 204.558 222.07 206.018 226.822 204.704C229.837 203.872 232.288 201.927 234.121 199.434C234.692 198.654 233.379 197.932 232.814 198.702C231.373 200.663 229.423 202.253 227.105 203.052C225.044 203.762 222.803 203.86 220.664 203.466C216.421 202.685 212.374 200.216 209.935 196.623C208.333 194.264 207.5 191.156 209.099 188.565C209.615 187.741 208.298 187.003 207.791 187.825Z"
            fill="#231F20" stroke="black" stroke-width="2" />
        <path
            d="M207.884 188.402C204.232 186.268 201.5 182.706 200.45 178.611C199.422 174.629 200.047 170.259 202.115 166.711C202.625 165.837 203.241 165.001 203.531 164.017C203.836 162.934 203.592 161.826 203.523 160.728C203.395 158.718 203.629 156.71 204.194 154.781C205.364 150.79 207.975 147.338 211.515 145.137C213.357 143.991 215.393 143.194 217.525 142.799C218.619 142.594 219.78 142.568 220.692 141.838C221.476 141.204 221.848 140.266 222.318 139.403C224.118 136.094 227.257 133.568 230.807 132.353C232.61 131.733 234.496 131.442 236.398 131.542C237.513 131.598 238.582 131.7 239.515 130.956C240.272 130.347 240.707 129.451 241.242 128.665C243.253 125.709 246.29 123.461 249.62 122.196C252.994 120.901 256.742 120.507 260.291 121.269C261.178 121.457 262.051 121.718 262.899 122.046C263.769 122.386 264.62 122.936 265.582 122.966C266.579 122.995 267.34 122.342 268.187 121.931C268.897 121.585 269.654 121.312 270.424 121.146C270.982 121.023 271.827 120.88 272.311 121.285C273.057 121.891 274.111 120.812 273.354 120.2C272.03 119.129 270.156 119.554 268.693 120.096C267.813 120.421 267.06 120.891 266.229 121.297C265.315 121.744 264.287 120.993 263.436 120.657C259.896 119.257 255.958 119.069 252.252 119.855C248.573 120.643 245.089 122.433 242.371 125.046C241.693 125.693 241.074 126.392 240.512 127.143C239.931 127.917 239.495 128.839 238.843 129.547C238.04 130.418 236.806 130.035 235.756 130.03C234.767 130.025 233.78 130.123 232.814 130.292C228.926 130.983 225.248 133.12 222.729 136.167C222.082 136.951 221.501 137.786 221.014 138.679C220.509 139.603 220.17 140.687 219.078 141.021C217.986 141.354 216.811 141.393 215.71 141.695C214.641 141.988 213.593 142.386 212.593 142.865C208.664 144.72 205.433 147.986 203.675 151.962C202.816 153.888 202.283 155.929 202.095 158.036C201.999 159.069 201.989 160.103 202.082 161.134C202.186 162.325 202.357 163.36 201.763 164.455C201.263 165.395 200.647 166.257 200.19 167.228C199.739 168.188 199.369 169.195 199.093 170.227C198.538 172.317 198.361 174.524 198.606 176.672C199.099 180.985 201.252 185.028 204.542 187.857C205.36 188.563 206.249 189.189 207.177 189.735C207.988 190.203 208.717 188.889 207.884 188.402Z"
            fill="#231F20" stroke="black" stroke-width="2" />
        <path
            d="M219.119 157.331C222.175 156.616 225.446 156.88 228.337 158.111C228.709 158.273 229.145 158.202 229.356 157.824C229.539 157.497 229.439 156.958 229.069 156.805C225.79 155.417 222.181 155.084 218.705 155.892C217.768 156.105 218.174 157.546 219.119 157.331Z"
            fill="#231F20" stroke="black" stroke-width="2" />
        <path
            d="M221.037 151.906C221.169 153.502 221.796 154.967 222.844 156.184C223.1 156.482 223.657 156.445 223.906 156.169C224.191 155.839 224.161 155.426 223.89 155.107C223.875 155.086 223.694 154.87 223.786 154.982C223.744 154.925 223.702 154.868 223.661 154.811C223.562 154.675 223.472 154.538 223.381 154.4C223.299 154.26 223.214 154.112 223.14 153.969C223.106 153.91 223.078 153.841 223.044 153.782C223.022 153.736 223.003 153.698 222.982 153.653C223.01 153.722 223.01 153.722 222.989 153.677C222.869 153.375 222.768 153.077 222.689 152.764C222.652 152.603 222.615 152.441 222.586 152.278C222.547 152.048 222.602 152.428 222.571 152.196C222.563 152.104 222.552 152.004 222.543 151.912C222.509 151.517 222.215 151.145 221.79 151.161C221.405 151.167 220.997 151.488 221.037 151.906Z"
            fill="#231F20" stroke="black" stroke-width="2" />
        <path
            d="M323.916 161.043C325.894 160.253 328.146 160.315 330.048 161.3C330.904 161.746 331.644 160.438 330.78 159.994C328.548 158.844 325.851 158.667 323.51 159.601C323.131 159.751 322.871 160.108 322.99 160.53C323.088 160.88 323.537 161.192 323.916 161.043Z"
            fill="#231F20" stroke="black" stroke-width="2" />
        <path
            d="M329.482 160.358C330.14 158.943 330.927 157.587 331.841 156.315C332.068 155.993 331.883 155.461 331.553 155.296C331.154 155.099 330.773 155.241 330.534 155.583C329.621 156.855 328.834 158.211 328.175 159.626C328.009 159.982 328.084 160.459 328.463 160.645C328.795 160.818 329.304 160.734 329.482 160.358Z"
            fill="#231F20" stroke="black" stroke-width="2" />
        <path
            d="M242.2 127.795C245.102 125.774 248.824 125.773 252.113 126.772C253.042 127.051 253.415 125.597 252.493 125.315C248.847 124.211 244.636 124.272 241.425 126.509C240.634 127.058 241.401 128.346 242.2 127.795Z"
            fill="#231F20" stroke="black" stroke-width="2" />
        <path
            d="M283.268 146.964C283.619 149.186 284.611 151.244 286.068 152.939C286.334 153.242 286.871 153.194 287.13 152.924C287.435 152.605 287.372 152.168 287.114 151.862C285.823 150.361 285.018 148.508 284.711 146.566C284.649 146.163 284.141 145.945 283.782 146.046C283.358 146.157 283.205 146.561 283.268 146.964Z"
            fill="#231F20" stroke="black" stroke-width="2" />
        <path
            d="M273.624 121.524C277.11 117.697 284.031 119.356 286.059 123.898C286.453 124.776 287.736 123.993 287.345 123.124C284.929 117.694 276.632 116.001 272.55 120.486C271.89 121.196 272.975 122.24 273.624 121.524Z"
            fill="#231F20" stroke="black" stroke-width="2" />
        <path
            d="M287.147 124.374C290.095 122.572 293.689 121.938 297.076 122.642C300.444 123.343 303.413 125.368 305.356 128.207C306.451 129.806 307.185 131.585 307.54 133.487C307.638 134.018 308.247 134.105 308.653 133.93C312.185 132.342 316.555 133.362 319.376 135.902C322.614 138.822 323.827 143.371 323.371 147.608C323.335 147.91 323.637 148.28 323.936 148.333C327.632 148.976 330.523 152.373 330.493 156.137C330.49 156.585 330.987 157.038 331.451 156.856C334.334 155.708 335.814 159.923 336.501 161.904C337.304 164.205 337.755 167.455 335.46 169.099C334.923 169.482 335.028 170.252 335.657 170.47C337.235 171.005 338.472 172.53 338.579 174.219C338.686 175.882 337.782 177.46 336.353 178.275C335.968 178.495 335.829 179.162 336.221 179.455C338.943 181.55 337.032 185.32 335.552 187.542C333.85 190.102 331.285 192.56 328.041 192.667C327.078 192.697 327.081 194.201 328.051 194.168C331.951 194.04 334.968 191.205 336.982 188.102C337.972 186.585 338.856 184.901 339.057 183.082C339.248 181.353 338.688 179.456 337.265 178.371C337.22 178.761 337.178 179.16 337.133 179.551C339.042 178.454 340.282 176.24 340.07 174.022C339.844 171.696 338.223 169.755 336.035 169.005C336.103 169.459 336.173 169.921 336.232 170.376C339.208 168.249 338.984 164.341 337.867 161.261C337.274 159.615 336.618 157.806 335.368 156.543C334.271 155.425 332.548 154.802 331.041 155.398C331.357 155.636 331.675 155.881 331.999 156.117C332.026 151.726 328.652 147.623 324.312 146.861C324.5 147.1 324.687 147.34 324.877 147.587C325.281 143.864 324.436 139.89 322.216 136.829C320.145 133.966 316.991 132.105 313.463 131.724C311.54 131.518 309.637 131.839 307.874 132.628C308.242 132.774 308.617 132.917 308.987 133.071C308.297 129.372 306.144 126 303.13 123.755C300.072 121.471 296.187 120.495 292.404 120.976C290.264 121.253 288.21 121.952 286.362 123.083C285.545 123.597 286.319 124.882 287.147 124.374Z"
            fill="#231F20" stroke="black" stroke-width="2" />
        <path
            d="M206.897 218.966C210.604 217.922 212.762 214.07 211.717 210.363C210.673 206.656 206.821 204.498 203.114 205.542C199.407 206.587 197.249 210.439 198.293 214.146C199.338 217.853 203.19 220.011 206.897 218.966Z"
            fill="#FF5F76" />
        <path
            d="M345.449 139.619C349.156 138.574 351.314 134.722 350.27 131.015C349.225 127.308 345.373 125.15 341.666 126.195C337.959 127.239 335.801 131.091 336.846 134.798C337.89 138.505 341.742 140.663 345.449 139.619Z"
            fill="#FF5F76" />
        <path
            d="M198.49 193.68C200.487 193.117 201.649 191.043 201.087 189.046C200.524 187.05 198.45 185.888 196.453 186.45C194.457 187.013 193.294 189.087 193.857 191.084C194.42 193.08 196.494 194.242 198.49 193.68Z"
            fill="#FF5F76" />
        <path
            d="M219.954 222.18C221.951 221.617 223.113 219.543 222.551 217.546C221.988 215.55 219.913 214.388 217.917 214.95C215.921 215.513 214.758 217.587 215.321 219.584C215.883 221.58 217.958 222.742 219.954 222.18Z"
            fill="#FF5F76" />
        <path
            d="M328.496 128.254C330.492 127.692 331.655 125.617 331.092 123.621C330.53 121.624 328.455 120.462 326.459 121.025C324.462 121.587 323.3 123.662 323.863 125.658C324.425 127.654 326.5 128.817 328.496 128.254Z"
            fill="#FF5F76" />
        <path
            d="M339.686 155.492C341.683 154.93 342.845 152.855 342.282 150.859C341.72 148.862 339.645 147.7 337.649 148.263C335.653 148.825 334.49 150.9 335.053 152.896C335.615 154.892 337.69 156.055 339.686 155.492Z"
            fill="#FF5F76" />
    </g> -->
    <path fill-rule="evenodd" clip-rule="evenodd"
        d="M204.671 229.813C204.272 312.609 139.041 405.052 139.041 405.052C139.041 405.052 90.6881 459.25 61.4636 480.902C61.4636 480.902 28.3868 510.393 90.1567 535.101C90.1567 535.101 141.3 552.502 183.941 525.536C183.941 525.536 187.926 587.306 260.854 598.066C300.839 603.911 338.963 594.214 368.188 554.229C368.188 554.229 489.735 588.502 504.746 498.039C512.45 451.678 467.285 384.462 467.285 384.462C406.298 288.913 344.804 242.97 301.271 220.929L287.831 237.219C287.026 238.194 285.53 238.188 284.734 237.205L276.037 226.462C275.427 225.708 274.364 225.5 273.515 225.97L251.169 238.319C250.339 238.778 249.3 238.59 248.683 237.87L239.131 226.726C238.396 225.868 237.097 225.789 236.264 226.55L224.177 237.586C223.291 238.395 221.898 238.248 221.201 237.272L213.614 226.651C213.011 225.807 211.863 225.564 210.969 226.092L204.671 229.813Z"
        fill="#7EB9FF" />
    <path
        d="M448.422 504.293C448.422 504.293 488.14 508.411 503.948 501.637C503.948 501.637 496.775 583.731 368.054 554.241C368.054 554.241 300.838 643.907 204.397 570.447C204.397 570.447 283.171 621.457 359.686 527.806C359.686 527.939 435.536 542.418 448.422 504.293Z"
        fill="#005EEB" />
    <path
        d="M176.323 397.853C176.323 397.853 126.823 411.931 59.3306 369.52C59.3306 369.52 22.1566 346.103 35.0707 376.419C35.0707 376.419 62.0236 458.83 150.942 433.453"
        fill="#7EB9FF" />
    <path
        d="M152.487 437.05C154.228 436.3 155.17 434.335 154.629 432.441C154.037 430.427 151.872 429.232 149.913 429.792C114.529 439.92 85.1061 433.869 62.5991 411.937C45.5931 395.436 38.9255 375.476 38.874 375.357C38.8225 375.237 38.771 375.118 38.7195 374.998C35.2688 366.983 36.5456 365.157 36.5456 365.157C38.1444 363.76 47.8484 366.814 57.4737 372.88C125.688 415.689 175.329 402.259 177.52 401.599C179.48 401.039 180.602 398.854 180.01 396.84C179.418 394.826 177.253 393.631 175.294 394.191C174.662 394.321 126.414 407.152 61.4076 366.365C56.1504 363.098 38.6906 352.889 31.5216 359.237C25.9515 364.188 30.1616 374.286 31.7067 377.875C32.4017 380.129 39.6364 400.128 57.2349 417.366C74.2924 433.987 104.535 450.888 152.191 437.319C152.255 437.15 152.371 437.1 152.487 437.05Z"
        fill="black" />
    <path
        d="M439.607 399.175C439.607 399.175 488.271 418.984 560.74 384.483C560.74 384.483 600.66 365.422 584.59 394.19C584.59 394.19 549.151 473.341 461.743 437.67"
        fill="#7EB9FF" />
    <path
        d="M459.822 441.084C458.136 440.134 457.379 438.062 458.114 436.233C458.912 434.291 461.22 433.35 463.146 434.137C497.927 448.361 528.284 445.739 553.223 426.457C572.06 411.958 580.785 392.804 580.849 392.691C580.913 392.577 580.977 392.464 581.041 392.35C585.326 384.749 584.216 382.777 584.216 382.777C582.738 381.196 572.621 383.118 562.284 388.056C489.046 422.871 440.175 403.693 438.024 402.78C436.098 401.993 435.18 399.681 435.979 397.739C436.777 395.797 439.085 394.855 441.011 395.642C441.637 395.845 489.16 414.263 558.952 381.094C564.593 378.443 583.264 370.279 589.885 377.451C595.027 383.041 589.766 392.634 587.848 396.038C586.921 398.207 577.619 417.334 558.11 432.501C539.209 447.114 506.945 460.473 460.095 441.387C460.047 441.211 459.935 441.147 459.822 441.084Z"
        fill="black" />
    <path
        d="M298.894 415.629C335.636 415.629 364.492 378.249 364.492 333.426C364.492 288.602 335.636 251.223 298.894 251.223C262.152 251.223 233.296 288.602 233.296 333.426C233.296 378.249 262.152 415.629 298.894 415.629Z"
        fill="#4E4E4E" stroke="black" stroke-width="5" />
    <path
        d="M177.28 382.312C180.921 382.971 184.333 381.032 187.197 378.197C190.122 375.303 192.955 371.027 195.586 365.815C200.862 355.36 205.589 340.605 208.59 324.013C211.592 307.42 212.334 291.944 211.054 280.304C210.417 274.5 209.261 269.503 207.535 265.767C205.845 262.109 203.329 259.098 199.688 258.439C196.046 257.78 192.634 259.719 189.77 262.554C186.845 265.448 184.012 269.724 181.381 274.936C176.105 285.391 171.378 300.146 168.377 316.738C165.375 333.331 164.633 348.807 165.913 360.447C166.55 366.251 167.706 371.248 169.432 374.984C171.122 378.642 173.638 381.653 177.28 382.312Z"
        fill="#4E4E4E" stroke="black" stroke-width="5" />
    <ellipse cx="306.864" cy="333.426" rx="55.128" ry="79.7031" fill="black" />
    <ellipse cx="191.098" cy="320.848" rx="15.2764" ry="60.4415" transform="rotate(10.2536 191.098 320.848)"
        fill="black" />
    <mask id="path-63-outside-1_2305_656" maskUnits="userSpaceOnUse" x="54.1206" y="252.707" width="120" height="101"
        fill="black">
        <rect fill="white" x="54.1206" y="252.707" width="120" height="101" />
        <path fill-rule="evenodd" clip-rule="evenodd"
            d="M127.581 332.9C120.403 342.188 109.948 348.037 98.308 348.037C76.6654 348.037 59.1206 327.816 59.1206 302.872C59.1206 277.928 76.6654 257.707 98.308 257.707C118.406 257.707 134.97 275.144 137.232 297.608C138.923 300.313 141.179 302.549 144.137 303.535C145.744 304.071 147.379 304.526 148.991 304.91C150.496 305.269 150.57 309.105 149.044 309.359C147.754 309.574 147.602 311.373 148.838 311.803C156.333 314.41 166.325 317.95 168.048 318.812C170.705 320.14 168.048 324.125 155.428 323.461C149.434 323.145 144.548 323.127 141.104 323.21C139.443 323.25 138.898 325.282 140.281 326.204C141.633 327.105 141.16 329.213 139.556 329.47C136.746 329.921 133.834 330.438 132.846 330.767C132.271 330.959 130.237 331.79 127.581 332.9Z" />
    </mask>
    <!-- <g id="lefteye">
      <path fill-rule="evenodd" clip-rule="evenodd"
        d="M127.581 332.9C120.403 342.188 109.948 348.037 98.308 348.037C76.6654 348.037 59.1206 327.816 59.1206 302.872C59.1206 277.928 76.6654 257.707 98.308 257.707C118.406 257.707 134.97 275.144 137.232 297.608C138.923 300.313 141.179 302.549 144.137 303.535C145.744 304.071 147.379 304.526 148.991 304.91C150.496 305.269 150.57 309.105 149.044 309.359C147.754 309.574 147.602 311.373 148.838 311.803C156.333 314.41 166.325 317.95 168.048 318.812C170.705 320.14 168.048 324.125 155.428 323.461C149.434 323.145 144.548 323.127 141.104 323.21C139.443 323.25 138.898 325.282 140.281 326.204C141.633 327.105 141.16 329.213 139.556 329.47C136.746 329.921 133.834 330.438 132.846 330.767C132.271 330.959 130.237 331.79 127.581 332.9Z"
        fill="#82A6B8" />
      <path
          d="M127.581 332.9L125.653 328.287C124.853 328.621 124.154 329.157 123.624 329.843L127.581 332.9ZM137.232 297.608L132.257 298.109C132.334 298.873 132.586 299.608 132.992 300.258L137.232 297.608ZM144.137 303.535L142.556 308.279L142.556 308.279L144.137 303.535ZM148.991 304.91L150.151 300.047L150.151 300.047L148.991 304.91ZM149.044 309.359L148.222 304.427H148.222L149.044 309.359ZM148.838 311.803L150.48 307.08L150.48 307.08L148.838 311.803ZM168.048 318.812L170.284 314.339L170.284 314.339L168.048 318.812ZM155.428 323.461L155.166 328.454H155.166L155.428 323.461ZM141.104 323.21L141.225 328.208H141.225L141.104 323.21ZM139.556 329.47L140.348 334.407L139.556 329.47ZM132.846 330.767L131.265 326.024L131.265 326.024L132.846 330.767ZM123.624 329.843C117.255 338.084 108.187 343.037 98.308 343.037V353.037C111.71 353.037 123.551 346.291 131.537 335.958L123.624 329.843ZM98.308 343.037C80.0697 343.037 64.1206 325.745 64.1206 302.872H54.1206C54.1206 329.887 73.2611 353.037 98.308 353.037V343.037ZM64.1206 302.872C64.1206 280 80.0697 262.707 98.308 262.707V252.707C73.2611 252.707 54.1206 275.857 54.1206 302.872H64.1206ZM98.308 262.707C115.262 262.707 130.19 277.583 132.257 298.109L142.207 297.107C139.749 272.706 121.549 252.707 98.308 252.707V262.707ZM145.718 298.792C144.237 298.298 142.795 297.074 141.472 294.958L132.992 300.258C135.051 303.553 138.122 306.8 142.556 308.279L145.718 298.792ZM150.151 300.047C148.66 299.691 147.168 299.275 145.718 298.792L142.556 308.279C144.321 308.867 146.097 309.36 147.831 309.774L150.151 300.047ZM149.866 314.291C152.505 313.851 153.871 311.921 154.434 310.694C155.01 309.442 155.169 308.144 155.153 307.098C155.137 306.04 154.935 304.788 154.373 303.594C153.845 302.469 152.599 300.631 150.151 300.047L147.831 309.774C146.136 309.369 145.463 308.145 145.324 307.848C145.152 307.482 145.155 307.272 145.154 307.25C145.154 307.24 145.14 306.971 145.347 306.521C145.542 306.096 146.346 304.74 148.222 304.427L149.866 314.291ZM150.48 307.08C154.118 308.346 153.703 313.652 149.866 314.291L148.222 304.427C141.804 305.497 141.087 314.401 147.195 316.525L150.48 307.08ZM170.284 314.339C169.089 313.742 165.79 312.518 162.306 311.259C158.629 309.931 154.236 308.387 150.48 307.08L147.195 316.525C150.934 317.826 155.285 319.355 158.908 320.664C160.722 321.319 162.336 321.913 163.593 322.392C164.223 322.632 164.745 322.836 165.15 323.001C165.352 323.083 165.512 323.15 165.634 323.204C165.764 323.26 165.815 323.285 165.812 323.284L170.284 314.339ZM155.166 328.454C161.793 328.803 166.771 328.02 169.927 326.236C171.388 325.411 173.549 323.724 173.929 320.847C174.381 317.419 172.062 315.228 170.284 314.339L165.812 323.284C165.362 323.059 163.707 321.864 164.015 319.537C164.25 317.76 165.456 317.277 165.007 317.531C164.343 317.906 161.683 318.783 155.691 318.468L155.166 328.454ZM141.225 328.208C144.542 328.128 149.3 328.145 155.166 328.454L155.691 318.468C149.568 318.146 144.554 318.125 140.984 318.211L141.225 328.208ZM143.055 322.044C144.204 322.81 144.753 324.301 144.376 325.689C143.989 327.111 142.689 328.173 141.225 328.208L140.984 318.211C137.858 318.286 135.455 320.384 134.726 323.063C134.007 325.707 134.975 328.676 137.508 330.364L143.055 322.044ZM140.348 334.407C146.351 333.444 148.267 325.519 143.055 322.044L137.508 330.364C135 328.692 135.969 324.982 138.764 324.533L140.348 334.407ZM134.427 335.51C134.422 335.512 134.584 335.463 135.006 335.369C135.388 335.283 135.873 335.185 136.444 335.078C137.584 334.863 138.964 334.629 140.348 334.407L138.764 324.533C137.338 324.762 135.858 325.012 134.592 325.251C133.449 325.466 132.136 325.733 131.265 326.024L134.427 335.51ZM129.508 337.514C130.83 336.961 131.985 336.483 132.875 336.122C133.321 335.941 133.689 335.793 133.973 335.683C134.115 335.627 134.227 335.584 134.312 335.552C134.405 335.518 134.437 335.507 134.427 335.51L131.265 326.024C130.464 326.291 128.195 327.224 125.653 328.287L129.508 337.514Z"
          fill="black" mask="url(#path-63-outside-1_2305_656)" />
      <ellipse cx="94.987" cy="302.872" rx="35.8664" ry="45.1651" fill="#C7EFFF" />
      <ellipse cx="80.1772" cy="306.634" rx="14.2713" ry="27.0721" transform="rotate(-9.16196 80.1772 306.634)"
          fill="black" />
      <path
          d="M41.9371 326.609C44.8511 326.139 46.5067 323.392 47.2992 320.669C48.1386 317.786 48.2964 314.107 47.6793 310.281C47.0622 306.455 45.7557 303.012 44.0525 300.539C42.4442 298.203 40.0088 296.116 37.0949 296.586C34.181 297.056 32.5254 299.803 31.7328 302.526C30.8935 305.409 30.7357 309.088 31.3528 312.914C31.9699 316.741 33.2764 320.183 34.9796 322.656C36.5879 324.992 39.0232 327.079 41.9371 326.609Z"
          fill="#1ECDFD" stroke="black" stroke-width="4" />
    </g> -->
    <path
        d="M146.575 476.805L146.587 476.808C152.607 478.046 158.885 476.785 163.971 473.435C166.22 471.954 168.149 470.12 169.572 467.987C179.635 454.291 200.806 417.663 178.694 372.285C174.591 363.703 165.362 358.847 155.985 359.68L155.966 359.681L155.947 359.683C127.483 362.58 56.1508 371.01 13.6135 387.535L13.5481 387.561L13.4839 387.589C12.6975 387.938 11.6042 388.444 10.6791 389.054C6.2698 391.958 3.78893 396.96 3.80701 402.234L3.80724 402.3L3.81038 402.366C4.06393 407.695 6.79001 412.502 11.333 415.31L11.3454 415.318L11.3579 415.325C23.9104 422.916 46.0073 435.814 70.778 448.038C95.5025 460.24 123.089 471.871 146.575 476.805Z"
        fill="#FFB6E9" stroke="black" stroke-width="6" />
    <path
        d="M160.328 376.896C160.122 373.43 155.522 370.883 150.054 371.208C144.585 371.533 140.319 374.606 140.525 378.072C140.731 381.538 145.331 384.084 150.799 383.759C156.268 383.435 160.534 380.361 160.328 376.896Z"
        fill="black" />
    <mask id="path-70-outside-2_2305_656" maskUnits="userSpaceOnUse" x="144.724" y="248.719" width="195" height="162"
        fill="black">
        <rect fill="white" x="144.724" y="248.719" width="195" height="162" />
        <path fill-rule="evenodd" clip-rule="evenodd"
            d="M264.493 379.78C252.461 395.349 234.934 405.155 215.42 405.155C179.137 405.155 149.724 371.255 149.724 329.437C149.724 287.619 179.137 253.719 215.42 253.719C249.114 253.719 276.883 282.952 280.675 320.613C283.51 325.148 287.293 328.897 292.252 330.549C295.388 331.595 298.586 332.456 301.715 333.163C304.11 333.703 304.242 339.686 301.82 340.09L300.039 340.387C297.992 340.728 297.749 343.582 299.709 344.263C312.318 348.646 329.416 354.699 332.338 356.16C336.792 358.387 332.338 365.068 311.181 363.954C299.442 363.337 290.238 363.397 284.461 363.616C282.585 363.687 281.975 366.011 283.538 367.053L287.896 369.959C289.424 370.977 288.89 373.354 287.076 373.634C281.722 374.462 275.278 375.551 273.322 376.203C272.358 376.524 268.947 377.919 264.493 379.78Z" />
    </mask>
    <!-- <g id='righteye'>
      <path fill-rule="evenodd" clip-rule="evenodd"
        d="M264.493 379.78C252.461 395.349 234.934 405.155 215.42 405.155C179.137 405.155 149.724 371.255 149.724 329.437C149.724 287.619 179.137 253.719 215.42 253.719C249.114 253.719 276.883 282.952 280.675 320.613C283.51 325.148 287.293 328.897 292.252 330.549C295.388 331.595 298.586 332.456 301.715 333.163C304.11 333.703 304.242 339.686 301.82 340.09L300.039 340.387C297.992 340.728 297.749 343.582 299.709 344.263C312.318 348.646 329.416 354.699 332.338 356.16C336.792 358.387 332.338 365.068 311.181 363.954C299.442 363.337 290.238 363.397 284.461 363.616C282.585 363.687 281.975 366.011 283.538 367.053L287.896 369.959C289.424 370.977 288.89 373.354 287.076 373.634C281.722 374.462 275.278 375.551 273.322 376.203C272.358 376.524 268.947 377.919 264.493 379.78Z"
        fill="#82A6B8" />
      <path
          d="M264.493 379.78L262.566 375.166C261.766 375.5 261.067 376.037 260.537 376.722L264.493 379.78ZM280.675 320.613L275.701 321.114C275.777 321.877 276.029 322.612 276.436 323.263L280.675 320.613ZM292.252 330.549L293.833 325.806L292.252 330.549ZM301.715 333.163L302.816 328.285L302.816 328.285L301.715 333.163ZM301.82 340.09L300.998 335.158L301.82 340.09ZM300.039 340.387L300.861 345.319H300.861L300.039 340.387ZM299.709 344.263L298.068 348.986L298.068 348.986L299.709 344.263ZM332.338 356.16L330.102 360.632L330.102 360.632L332.338 356.16ZM311.181 363.954L310.919 368.948H310.919L311.181 363.954ZM284.461 363.616L284.651 368.613L284.461 363.616ZM283.538 367.053L280.764 371.213L280.764 371.213L283.538 367.053ZM287.896 369.959L290.67 365.799V365.799L287.896 369.959ZM287.076 373.634L287.84 378.576H287.84L287.076 373.634ZM273.322 376.203L274.904 380.946H274.904L273.322 376.203ZM260.537 376.722C249.313 391.245 233.173 400.155 215.42 400.155V410.155C236.695 410.155 255.608 399.453 268.45 382.837L260.537 376.722ZM215.42 400.155C182.542 400.155 154.724 369.183 154.724 329.437H144.724C144.724 373.326 175.733 410.155 215.42 410.155V400.155ZM154.724 329.437C154.724 289.69 182.542 258.719 215.42 258.719V248.719C175.733 248.719 144.724 285.547 144.724 329.437H154.724ZM215.42 258.719C245.97 258.719 272.103 285.391 275.701 321.114L285.65 320.112C281.663 280.514 252.257 248.719 215.42 248.719V258.719ZM293.833 325.806C290.351 324.646 287.382 321.909 284.915 317.962L276.436 323.263C279.639 328.387 284.235 333.148 290.671 335.293L293.833 325.806ZM302.816 328.285C299.822 327.609 296.787 326.791 293.833 325.806L290.671 335.293C293.989 336.399 297.35 337.303 300.615 338.04L302.816 328.285ZM302.642 345.022C305.472 344.55 307.012 342.495 307.697 341.019C308.388 339.532 308.598 337.933 308.573 336.586C308.548 335.228 308.277 333.672 307.583 332.238C306.916 330.859 305.473 328.885 302.816 328.285L300.615 338.04C299.155 337.71 298.627 336.687 298.582 336.594C298.511 336.447 298.57 336.513 298.575 336.769C298.58 337.036 298.518 337.042 298.627 336.807C298.731 336.583 299.38 335.428 300.998 335.158L302.642 345.022ZM300.861 345.319L302.642 345.022L300.998 335.158L299.217 335.455L300.861 345.319ZM301.351 339.54C304.287 340.561 303.918 344.809 300.861 345.319L299.217 335.455C292.066 336.646 291.21 346.602 298.068 348.986L301.351 339.54ZM334.574 351.688C332.778 350.79 327.402 348.788 321.354 346.604C315.112 344.351 307.664 341.735 301.351 339.54L298.068 348.986C304.364 351.174 311.77 353.776 317.959 356.01C324.342 358.314 328.976 360.069 330.102 360.632L334.574 351.688ZM310.919 368.948C321.815 369.521 329.376 368.176 333.824 365.663C335.93 364.472 338.414 362.378 338.843 359.129C339.345 355.329 336.801 352.802 334.574 351.688L330.102 360.632C330.101 360.632 328.671 359.774 328.929 357.819C329.115 356.414 329.998 356.338 328.903 356.957C326.948 358.062 321.705 359.501 311.444 358.961L310.919 368.948ZM284.651 368.613C290.274 368.4 299.327 368.337 310.919 368.948L311.444 358.961C299.556 358.336 290.202 358.395 284.272 358.62L284.651 368.613ZM286.311 362.893C287.391 363.612 287.876 365.002 287.542 366.257C287.2 367.542 286.025 368.561 284.651 368.613L284.272 358.62C277.229 358.887 275.435 367.66 280.764 371.213L286.311 362.893ZM290.67 365.799L286.311 362.893L280.764 371.213L285.123 374.119L290.67 365.799ZM287.84 378.576C294.11 377.606 296.036 369.376 290.67 365.799L285.123 374.119C282.812 372.578 283.67 369.102 286.312 368.693L287.84 378.576ZM274.904 380.946C275.476 380.756 277.198 380.379 279.816 379.905C282.281 379.458 285.184 378.986 287.84 378.576L286.312 368.693C283.614 369.11 280.618 369.597 278.034 370.065C275.602 370.505 273.124 370.999 271.741 371.46L274.904 380.946ZM266.421 384.393C270.989 382.485 274.165 381.193 274.904 380.946L271.741 371.46C270.551 371.856 266.906 373.353 262.566 375.166L266.421 384.393Z"
          fill="black" mask="url(#path-70-outside-2_2305_656)" />
      <ellipse cx="209.853" cy="329.437" rx="60.1289" ry="75.7179" fill="#C7EFFF" />
      <ellipse cx="185.025" cy="335.743" rx="23.9255" ry="45.3856" transform="rotate(-9.16196 185.025 335.743)"
          fill="black" />
      <path
          d="M135.313 364.842C139.383 364.185 141.926 360.282 143.219 355.842C144.559 351.24 144.829 345.281 143.819 339.019C142.81 332.757 140.679 327.185 137.961 323.239C135.337 319.43 131.696 316.524 127.626 317.18C123.556 317.837 121.013 321.74 119.72 326.18C118.381 330.782 118.11 336.741 119.12 343.003C120.13 349.265 122.26 354.837 124.979 358.783C127.602 362.592 131.243 365.498 135.313 364.842Z"
          fill="#1ECDFD" stroke="black" stroke-width="4" />
    </g> -->
    <g style="mix-blend-mode:multiply" filter="url(#filter0_f_2305_656)">
        <circle cx="425" cy="443" r="140" fill="#00C2FF" fill-opacity="0.39" />
    </g>
    
    <defs>
        <filter id="filter0_f_2305_656" x="100" y="118" width="650" height="650" filterUnits="userSpaceOnUse"
            color-interpolation-filters="sRGB">
            <feFlood flood-opacity="0" result="BackgroundImageFix" />
            <feBlend mode="normal" in="SourceGraphic" in2="BackgroundImageFix" result="shape" />
            <feGaussianBlur stdDeviation="92.5" result="effect1_foregroundBlur_2305_656" />
        </filter>
    </defs>
</svg>