<svg width="649" height="618" fill="none" xmlns="http://www.w3.org/2000/svg"><path d="M331.946 92.614l2.427-.6-2.427.6c1.293 5.232 1.065 12.373.072 19.789-.983 7.35-2.678 14.7-4.13 20.22-.691 2.625 1.161 4.616 2.522 5.5 1.408.914 3.748 1.652 5.837.564 4.903-2.551 10.015-2.371 15.236-.333 5.289 2.065 10.574 6.005 15.496 10.759 9.836 9.498 17.671 21.693 20.598 26.497.616 1.012 1.589 1.796 2.457 2.322.88.534 1.981 1.002 3.073 1.13 9.819 1.152 19.025 6.806 26.845 13.746 7.789 6.912 13.973 14.893 17.743 20.296 1.307 1.874 3.503 2.279 5.2 1.735 1.725-.552 3.309-2.224 3.099-4.61-3.177-36.126-25.984-60.241-36.017-69.225 8.692-.027 18.243 2.475 25.658 5.022 2.448.841 4.573-.494 5.534-2.076.978-1.611 1.16-4.227-1.031-5.898-24.528-18.705-47.942-22.62-57.58-23.427 8.889-12.056 19.981-17.22 27.424-19.429 2.294-.68 3.338-2.797 3.453-4.511.117-1.733-.707-4.17-3.334-4.798-28.387-6.787-50.32 11.639-57.515 18.723-4.093-8.872-9.336-14.29-13.516-17.47-.928-.705-2.028-.985-3.113-.831-1.032.146-1.888.657-2.513 1.258-1.208 1.159-1.985 3.075-1.498 5.047z" fill="#FF009F" stroke="#000" stroke-width="5" stroke-linejoin="round"/><path d="M361.372 208.224c2.945-4.804.494-11.745-4.43-12.985.201-3.779-2.945-7.459-6.85-8.394-1.843-.438-.188-1.415-.385-3.209-.171-1.614-.535-3.28-1.186-4.783-1.104-2.536-2.962-4.583-5.495-5.743a10.678 10.678 0 00-3.956-.945c-1.034-.042-2.658.554-3.425-.065-.881-.709-1.497-2.636-2.195-3.559a18.97 18.97 0 00-3.137-3.276c-4.065-3.315-10.557-3.157-15.16-.667-1.483-1.578-2.256-4.207-4.402-4.713-2.962-.698-6.746.295-9.665 1.102-2.085-.118-3.791 1.254-5.692 2.049-1.238.211-2.336-.087-3.661-.501-1.992-.622-3.926-1.213-5.926-.479-1.203-.213-2.433-.288-3.738-.026-3.707.745-6.609 3.225-9.214 5.809-2.092 2.074-4.021 2.828-6.94 3.147-1.746.193-3.451.446-5.129.967-3.072.955-6.035 2.731-7.744 5.532-.412.668-.629 1.394-.978 2.084-.816 1.593-1.544 1.944-3.21 2.251-1.635.299-3.158.622-4.654 1.385-2.56 1.305-4.786 3.392-6.23 5.867-1.807 1.215-2.58 3.306-2.646 5.604-.053 1.856.362 3.702.299 5.552-.068 2.12-1.024 3.906-1.899 5.782-2.647 5.686-2.051 12.322 2.314 17.045.943 1.016 2.951 1.983 3.49 3.234.328.759.292 1.929.525 2.756.225.796.497 1.563.847 2.316 1.289 2.759 3.357 5.177 5.942 6.809 5.246 3.306 10.502 4.113 18.068-1.734 2.648 6.951 7.692 8.936 13.342 10.19 7.156 1.593 13.539-1.455 20.444-2.768 4.434-.844 8.516-.056 11.82 2.168.198.187.39.377.581.566 1.231 1.291 2.317 2.843 3.76 3.904.314.48.616.978.893 1.5a18.753 18.753 0 011.621 4.199c.37 1.485.312 3.237 1.127 4.573 1.578 2.58 5.671 1.995 8.21 1.62 3.396-.495 5.746-1.944 5.926-5.62.101-2.088-1.406-4.186-1.877-6.259 4.362-.207 10.04-2.075 13.721-4.207 4.294-2.492 8.093-5.703 9.158-10.643.059-.251.153-.87.085-1.053.037-.587.976-3.098.876-3.711 3.141-1.347 4.64-1.81 6.557-4.735 1.561-2.378 2.542-7.042 1.511-9.663 2.289-1.805 1.909-1.973 1.624-4.943-.274-2.266-.96-2.916-2.917-3.33z" fill="#FF5F76"/><path d="M362.843 209.415c-.538-.757-1.281-1.294-2.104-1.711-.589-.304-1.276-.468-1.843-.811-1.012-.598-1.36-1.401-2.056-2.259-1.336-1.635-2.946-1.935-4.955-2.042-1.203-.067-1.91-.103-2.902-.861-.886-.667-1.492-1.437-2.694-1.415-2.484.051-2.851 3.642-5.629 2.332-2.627-1.238-4.212-5.536-5.599-7.927-2.423-4.167-5.023-11.35-10.743-11.644-1.925-.098-3.437.839-4.681 2.211-.836.917-1.599 2.356-3.035 2.323-1.276-.038-2.489-1.261-3.55-1.862-1.671-.949-3.846-1.561-5.627-.54-2.045 1.177-1.7 3.464-2.054 5.461-.553 3.133-2.707 6.57-6.267 6.195-2.307-.242-4.867-.924-6.348 1.448-1.203 1.92-.093 6.263-3.673 5.56-2.277-.453-3.081-3.308-5.605-3.457-2.168-.127-3.748 1.722-4.24 3.661-.682 2.674.657 5.727-2.023 7.585-5.355 3.707-7.832-4.768-11.928-6.525-.811-.347-1.607.112-1.987.835-.602 1.143-.768 2.309-.734 3.581.034 1.418.559 3.225-.037 4.561-1.34 2.989-7.474 1.368-9.907 1.023-7.273-1.032-15.054-3.892-17.33-11.653-.26-.892-1.582-.431-1.505.416.018.238.052.472.085.706a1.245 1.245 0 00-.416.482c-2.116 4.375-2.112 9.598.11 13.943 1.237 2.433 3.332 4.025 4.844 6.226 1.651 2.406 2.038 5.476 3.601 7.972 4.879 7.789 16.29 10.348 22.575 3.152 3.059 3.46 6.392 6.852 10.789 8.5 5.105 1.911 11.084 1.573 16.332.508 2.829-.579 5.499-1.899 8.337-2.333 3.039-.467 6.041.601 8.488 2.377 4.026 2.92 5.778 7.236 8.349 11.297 2.031 3.207 5.358 6.292 9.467 5.102 3.688-1.072 6.252-5.185 5.174-8.952-.245-.872-.903-1.652-1.097-2.514-.322-1.458.252-1.409 1.554-1.565.487-.056 1.215.08 1.678.111 2.821.17 5.721.302 8.442-.635 4.323-1.494 8.24-5.842 10.029-9.768.996-2.195 1.588-7.115 1.907-7.334 1.328-.902 3.451-1.743 5.258-3.388 1.395-1.269 2.575-2.721 3.058-4.576.346-1.306.209-2.597.272-3.929.079-1.474.483-2.861.775-4.298.396-1.847.606-3.926-.555-5.569z" fill="#FF385E"/><path d="M307.151 162.651c-.584.059-1 .769-.744 1.305.521 1.07 1.426 1.893 1.967 2.949.561 1.099.67 2.35 1.205 3.44.342.698 1.219.816 1.726.227 2.341-2.687-.656-8.258-4.154-7.921zM308.969 173.162c-.141.332-.36.62-.579.909-.219.289-.416.596-.689.835-.552.488-.065 1.527.681 1.179.558-.263 1.057-.623 1.357-1.169.277-.516.348-1.039.323-1.616-.016-.604-.887-.618-1.093-.138zM241.08 190.352c-.928.246-1.561.416-2.023 1.341-.433.852-.361 1.74-.011 2.606.219.547 1.162.614 1.352-.008.178-.577.453-1.125.658-1.693.114-.316.249-.614.275-.954.021-.298-.021-.562.092-.853.074-.199-.093-.501-.343-.439zM346.611 188.281c-.627-.959-1.852-2.025-3.091-1.733-.645.158-1.223.84-.873 1.536.362.709 1.047 1.124 1.483 1.78.373.576.775 1.282 1.021 1.926.308.806 1.403.692 1.743-.004.594-1.23.465-2.378-.283-3.505zM347.407 194.355c-.305-.595-1.098-.761-1.54-.198a1.781 1.781 0 00-.305.613c-.028.105-.055.21-.08.322-.009.027-.006.035-.012.044l-.078.241c-.103.354-.109.68-.333 1.035-.203.317-.214.709.067.987.256.244.699.322.986.071.422-.371.878-.767 1.134-1.269.261-.544.437-1.299.161-1.846z" fill="#fff"/><path d="M353.497 232.056c-.533 3.979-2.224 7.764-4.887 10.777-2.846 3.227-6.694 5.399-10.902 6.268a20.083 20.083 0 01-7.606.091c-.889-.163-1.247 1.13-.359 1.375a.372.372 0 01-.175-.105c.002.008.054.05.054.05s-.03-.049.044.068c.09.145.17.317.235.461.216.507.374 1.038.522 1.564.32 1.135.587 2.284.801 3.449.379 2.091.056 5.377-2.691 5.819-2.104.333-4.636.73-6.87.573-1.042-.071-1.68-1.011-2.131-1.922-.643-1.303-.966-2.736-1.417-4.109-.487-1.469-1.255-2.81-2.085-4.117a29.033 29.033 0 00-3.34-4.282c-2.375-2.502-5.432-4.714-8.856-5.469-1.539-.337-3.097-.254-4.613.181-1.711.49-3.331 1.247-5.039 1.744a42.084 42.084 0 01-11.345 1.705c-3.526.036-7.172-.355-10.323-2.038-2.519-1.342-4.479-3.434-5.827-5.942a18.06 18.06 0 01-.868-1.872c-.333-.839-1.703-.461-1.367.385 1.117 2.784 2.767 5.36 5.156 7.217 2.817 2.199 6.232 3.208 9.756 3.537 4.003.364 8.078.002 12.007-.821a40.102 40.102 0 005.595-1.585c1.64-.6 3.219-1.328 4.992-1.309 1.74.013 3.44.693 4.951 1.508 1.667.909 3.146 2.099 4.474 3.444 2.396 2.431 4.55 5.441 5.57 8.714.721 2.327 1.534 6.105 4.492 6.415 1.271.136 2.591-.017 3.86-.147a78.797 78.797 0 003.555-.45c3.096-.467 4.235-3.879 3.884-6.651-.143-1.111-.39-2.217-.664-3.308-.272-1.107-.554-2.309-1.12-3.31-.194-.343-.453-.659-.843-.776-.123.456-.236.918-.359 1.374 4.722.868 9.632.133 13.902-2.068 3.896-2.006 7.075-5.286 9.06-9.179a21.598 21.598 0 002.169-6.897c.094-.902-1.275-1.271-1.392-.362z" fill="#231F20" stroke="#000" stroke-width="2"/><path d="M300.391 243.396c6.807-4.278 14.773-5.541 22.611-6.477 3.624-.437 7.239-.961 10.876-1.297 3.405-.319 6.821-.543 10.202-1.066 3.667-.571 7.379-1.503 10.541-3.522.769-.492.038-1.705-.732-1.213-2.777 1.772-5.994 2.646-9.208 3.211-3.384.597-6.825.821-10.243 1.127-3.598.324-7.176.838-10.762 1.264-3.894.457-7.803.95-11.627 1.825-4.357 1.001-8.592 2.551-12.387 4.942-.781.48-.048 1.701.729 1.206z" fill="#231F20" stroke="#000" stroke-width="2"/><path d="M308.132 239.494c.926 2.367 3.176 3.987 5.726 4.031-.228-.293-.459-.593-.687-.885-.766 3.785 1.997 7.402 5.893 7.528a6.74 6.74 0 001.33-.115c.379-.066.799-.185 1.175-.031.429.171.787.549 1.195.758a6.265 6.265 0 006.146-.264c.772-.485.041-1.698-.731-1.213a4.874 4.874 0 01-4.084.502c-.75-.243-1.285-.79-1.987-1.095-.717-.3-1.43-.124-2.169-.013-3.263.482-6.029-2.486-5.381-5.71.091-.455-.215-.88-.687-.885-1.876-.039-3.666-1.238-4.357-2.998-.348-.834-1.71-.458-1.382.39zM265.609 234.801c-1.553-4.534-2.352-10.245 1.47-13.926.815-.789 1.759-1.266 2.822-1.638.553-.197 1.09-.421 1.539-.815.461-.406.776-.957 1.112-1.465 1.205-1.824 2.928-3.25 4.886-4.216a12.955 12.955 0 016.315-1.309c1.176.058 2.252.453 3.408.613 1.284.182 2.168-.481 2.832-1.52 1.393-2.168 2.776-4.253 4.723-5.978 1.838-1.621 4.054-2.796 6.473-3.219 1.283-.223 2.634-.207 3.905.1 1.305.314 2.623 1.078 3.698-.174.434-.503.743-1.134 1.107-1.683.394-.589.818-1.155 1.288-1.676.933-1.034 2.078-1.892 3.522-1.95a.72.72 0 00.678-.904c-.647-2.584.692-5.37 3.061-6.548.818-.409.079-1.62-.731-1.214-2.936 1.468-4.491 4.988-3.69 8.145.224-.299.455-.599.677-.905-2.701.113-4.56 2.177-5.981 4.273-.322.472-.587 1.025-.949 1.468-.477.58-1.185.114-1.771-.069a10.683 10.683 0 00-3.599-.422c-5.308.272-9.513 3.857-12.388 8.074a36.25 36.25 0 00-1.017 1.6c-.282.469-.593 1.092-1.176 1.207-.584.116-1.27-.218-1.833-.343a14.264 14.264 0 00-1.712-.263c-2.291-.215-4.646.206-6.752 1.107-2.063.882-3.955 2.226-5.368 3.978-.758.936-1.241 2.215-2.428 2.664-1.143.435-2.18.841-3.142 1.631-1.982 1.629-3.196 4.112-3.557 6.631-.435 3.091.228 6.189 1.229 9.11.28.878 1.642.503 1.349-.364z" fill="#231F20" stroke="#000" stroke-width="2"/><path d="M270.636 229.762c5.91 3.014 13.647 1.572 18.02-3.431l-.507.215c4.296-.553 8.72-1.922 12.337-4.368 2.744-1.86 5.278-4.699 5.088-8.222-.398.169-.804.34-1.201.516 4.163 3.231 10.024 1.466 14.391-.421 4.389-1.894 8.271-4.813 10.945-8.819 1.734-2.597 2.872-5.553 3.539-8.596.195-.891-1.179-1.249-1.374-.359-1.056 4.831-3.393 9.229-7.162 12.489-3.223 2.781-7.339 4.695-11.474 5.65-2.589.599-5.67.746-7.882-.975-.446-.345-1.236-.154-1.201.517.128 2.381-1.241 4.373-2.961 5.895-2.092 1.847-4.764 3.07-7.386 3.955a30.14 30.14 0 01-4.534 1.148c-.401.072-.835.089-1.23.184-.35.083-.514.332-.751.585-.417.45-.874.871-1.352 1.249-1.897 1.499-4.215 2.453-6.606 2.802-2.718.401-5.556 0-8.01-1.254-.806-.414-1.504.821-.689 1.24zM277.323 233.174c-1.273 1.786-.94 4.49.673 5.958a.722.722 0 001.002-.015c.265-.269.27-.741-.015-1.001-.085-.074-.165-.157-.245-.239-.033-.032-.059-.065-.094-.104.074.093-.016-.028-.036-.038a3.405 3.405 0 01-.379-.656c.031.081-.033-.088-.037-.103-.039-.111-.076-.214-.108-.326-.028-.098-.048-.198-.068-.298-.007-.054-.024-.114-.031-.169.012.102 0 0-.006-.047a4.353 4.353 0 01-.011-.646c.002-.049.007-.091.011-.133.013-.214-.013.069.008-.059.017-.11.042-.223.067-.335.022-.095.049-.2.088-.293.003.008.065-.172.035-.107-.028.073.039-.092.044-.101.097-.206.212-.401.345-.592.22-.313.037-.789-.271-.962-.366-.205-.75-.04-.972.266zM292.932 237.073c.87.038 1.502-.513 2.201-.937.858-.526 1.853-.36 2.806-.231 1.965.265 3.793.221 5.631-.597 1.787-.796 3.06-2.12 4.144-3.715.52-.771 1.041-1.599 1.795-2.176.654-.501 1.437-.77 2.25-.91 1.699-.301 3.451-.072 5.172-.209 1.88-.148 3.419-.76 4.805-2.059.763-.718 1.48-1.455 2.461-1.886.959-.424 2.029-.572 3.069-.621 1.865-.088 3.762.253 5.615.007 1.82-.245 3.577-.862 5.21-1.687 1.584-.795 3.146-1.844 4.26-3.244.562-.71-.446-1.699-1.024-.985-1.906 2.386-5.13 3.87-8.079 4.426-1.726.324-3.504.03-5.244.042-2.023.018-4.135.322-5.779 1.596-.787.603-1.423 1.398-2.224 1.981-.673.49-1.439.763-2.249.91-1.675.301-3.4.082-5.091.21-1.701.122-3.347.586-4.579 1.825-1.323 1.322-2.014 3.13-3.521 4.285-1.718 1.328-3.81 1.763-5.942 1.48-1.044-.136-2.203-.393-3.24-.101-.45.127-.86.372-1.248.636-.362.24-.726.561-1.185.544-.935-.036-.925 1.38-.014 1.416zM252.947 209.205c3.777-.351 5.715-3.922 6.91-7.106.617-1.641 1.171-3.33 2.161-4.793 1.007-1.493 2.536-2.515 4.204-3.156 1.961-.755 4.058-1.086 6.13-1.387.381-.058.579-.536.491-.876-.106-.408-.493-.542-.876-.491-3.491.505-7.281 1.159-9.923 3.696-2.592 2.491-2.977 6.16-4.676 9.169-.933 1.666-2.401 3.336-4.426 3.518-.908.086-.906 1.504.005 1.426z" fill="#231F20" stroke="#000" stroke-width="2"/><path d="M270.1 177.52c1.488-1.254 3.79-.97 4.904.622 1.208 1.728.364 3.912-.225 5.708-1.146 3.502-2.591 7.267-1.129 10.902.704 1.748 1.929 3.163 3.722 3.826.86.317 1.202-1.061.359-1.375-1.584-.584-2.567-2.115-3-3.68-.524-1.888-.248-3.815.26-5.669.962-3.524 3.934-8.66.2-11.549-1.838-1.429-4.355-1.238-6.1.226-.709.59.314 1.575 1.009.989zM283.73 168.755c2.363.818 4.241 2.82 4.949 5.216.255.877 1.622.491 1.367-.386-.849-2.899-3.11-5.222-5.957-6.204-.36-.126-.774.161-.862.51-.108.396.135.741.503.864z" fill="#231F20" stroke="#000" stroke-width="2"/><path d="M293.379 170.392c-3.232.53-5.006 4.25-5.161 7.213-.038.757.035 1.563.308 2.273.141.358.478.603.877.491.338-.095.632-.519.491-.876a4.347 4.347 0 01-.164-.522l-.055-.284c-.028-.155.003.039-.015-.11a7.473 7.473 0 01-.013-1.197 7.892 7.892 0 01.623-2.422c.674-1.552 1.817-2.937 3.5-3.208.381-.059.587-.538.491-.877-.127-.394-.503-.547-.882-.481z" fill="#231F20" stroke="#000" stroke-width="2"/><path d="M288.286 177.846c-2.157 1.557-3.365 4.006-3.649 6.624-.34 3.137.773 6.254 2.28 8.952.444.8 1.657.069 1.213-.731-1.333-2.398-2.32-5.096-2.107-7.881.165-2.204 1.175-4.435 2.994-5.751.734-.531.011-1.746-.731-1.213zM245.921 196.248c-.197-2.021.009-4.082.855-5.942.763-1.667 1.937-3.085 3.337-4.249 1.538-1.277 3.399-2.329 5.329-2.848a11.461 11.461 0 013.884-.349c.598.051 1.217.233 1.805.019.553-.197.825-.671 1.01-1.193.799-2.261 3.172-2.962 5.308-3.499.885-.225.5-1.593-.385-1.368-2.006.509-4.253 1.199-5.531 2.938-.306.41-.515.85-.686 1.336-.097.287-.094.416-.388.466-.346.066-.889-.106-1.246-.135a12.816 12.816 0 00-3.954.36c-3.888.966-7.705 3.826-9.533 7.414-1.103 2.185-1.478 4.626-1.239 7.057.108.902 1.527.9 1.434-.007zM294.372 170.576c-.234-2.238.756-4.252 2.421-5.711 1.315-1.149 3.28-2.117 5.061-1.872.893.121 1.262-1.248.358-1.375-2.312-.321-4.61.707-6.345 2.178-1.962 1.672-3.179 4.172-2.907 6.78.086.908 1.505.906 1.412 0zM289.337 194.815c1.639-.43 3.49-.051 4.779 1.07 1.384 1.2 2.057 3.127 1.722 4.933-.17.891 1.206 1.257 1.375.358.426-2.285-.329-4.765-2.112-6.314-1.674-1.451-4.012-1.976-6.149-1.415-.874.238-.498 1.601.385 1.368zM278.936 199.693c2.431.426 3.671 3.013 2.464 5.177-.527.952-1.208 1.874-1.104 3.02.099 1.1.779 2.1 1.79 2.553.828.375 1.526-.859.691-1.232-1.05-.475-1.288-1.551-.785-2.528.573-1.103 1.224-2.016 1.307-3.305.167-2.431-1.628-4.626-4.008-5.042-.891-.171-1.252 1.196-.355 1.357zM263.737 207.091c.983.177 2.002.368 2.859.905.976.617 1.069 1.694 1.49 2.67.852 1.958 2.666 3.418 4.75 3.877.891.195 1.249-1.18.359-1.375a5.372 5.372 0 01-2.666-1.43c-.784-.769-1.167-1.666-1.506-2.698-.348-1.062-.977-1.882-1.962-2.416-.911-.497-1.948-.724-2.965-.908-.897-.161-1.258 1.206-.359 1.375zM249.611 209.287c-3.772.43-7.567 1.783-9.787 5.045-1.856 2.737-1.925 6.463.365 8.98 1.175 1.291 2.771 1.774 4.458 1.948 1.604.164 3.526.077 4.8 1.259.703.653.727 1.515.84 2.407.111.853.354 1.66.763 2.421.818 1.521 2.21 2.719 3.735 3.497 1.374.7 2.987 1.186 4.524 1.345 1.628.166 3.264-.246 4.826-.687.879-.247.496-1.607-.385-1.367-1.27.358-2.576.701-3.909.663-1.137-.036-2.282-.387-3.345-.76-1.449-.508-2.836-1.431-3.754-2.673a5.597 5.597 0 01-.951-1.995c-.205-.842-.141-1.736-.46-2.555-.559-1.407-1.937-2.211-3.346-2.577-1.592-.411-3.28-.211-4.858-.691-2.929-.894-3.903-4.439-2.855-7.079 1.497-3.755 5.615-5.345 9.347-5.772.897-.099.894-1.517-.008-1.409z" fill="#231F20" stroke="#000" stroke-width="2"/><path d="M242.995 211.564c-1.478-2.827-2.958-6.206-1.936-9.43.853-2.673 3.484-4.647 6.268-4.783.911-.046.902-1.463-.01-1.417-3.344.164-6.358 2.392-7.526 5.527-1.354 3.658.299 7.597 1.983 10.837.429.803 1.642.072 1.221-.734zM314.259 165.424c2.226 3.842 1.549 8.809-.987 12.33-1.329 1.843-3.288 2.979-4.859 4.573-1.656 1.691-2.52 4.035-1.605 6.332 1.009 2.546 3.767 3.902 6.413 3.246.888-.218.502-1.585-.385-1.368-2.238.55-4.487-.868-4.921-3.13-.449-2.34 1.301-4.017 2.949-5.365 1.66-1.36 3.189-2.699 4.283-4.573a13.864 13.864 0 001.854-6.054c.162-2.332-.349-4.694-1.527-6.714-.461-.803-1.675-.072-1.215.723z" fill="#231F20" stroke="#000" stroke-width="2"/><path d="M316.859 173.646c3.895-3.304 9.854-3.166 13.559.34 1.748 1.656 2.812 3.79 3.187 6.158.39 2.477.284 5.037.029 7.526a50.891 50.891 0 01-1.326 7.357c-.229.883 1.145 1.242 1.375.358 1.266-4.947 2.084-10.36 1.323-15.45-.802-5.321-5.106-9.631-10.537-10.08-3.121-.256-6.248.796-8.624 2.811-.702.588.329 1.57 1.014.98z" fill="#231F20" stroke="#000" stroke-width="2"/><path d="M342.958 218.085c3.648-4.093 4.364-10.329 1.757-15.15-.138.347-.273.701-.418 1.05 2.512-.756 4.688-2.473 5.959-4.785 1.314-2.39 1.515-5.245.974-7.882-1.001-4.876-4.942-9.451-10.196-9.503-2.732-.025-5.368 1.155-6.978 3.385-.529.741.711 1.43 1.233.691 1.195-1.659 3.222-2.554 5.231-2.65 2.135-.107 4.17.666 5.766 2.073 3.303 2.914 4.837 8.183 3.136 12.337-.973 2.39-3.053 4.218-5.512 4.959-.457.137-.639.642-.418 1.051 2.298 4.242 1.648 9.819-1.562 13.424-.599.696.418 1.683 1.028 1z" fill="#231F20" stroke="#000" stroke-width="2"/><path d="M345.027 204.444c2.606-.078 5.166.92 7.058 2.715 2.113 2 3.249 4.851 3.34 7.736.029.909 1.448.906 1.417-.009-.099-3.257-1.39-6.486-3.772-8.751-2.148-2.039-5.081-3.208-8.048-3.118-.916.031-.906 1.448.005 1.427z" fill="#231F20" stroke="#000" stroke-width="2"/><path d="M354.647 209.859c2.098.309 4.179.006 6.099-.892.344-.161.42-.669.236-.975-.213-.353-.623-.4-.975-.236a8.93 8.93 0 01-5.009.73c-.38-.055-.764.11-.862.511-.09.342.13.807.511.862zM344.226 234.07c4.548-1.16 6.505-6.302 5.101-10.538-.224.299-.456.599-.678.905 5.742.345 11.446-2.812 14.241-7.833.44-.797-.795-1.495-1.233-.69-2.563 4.607-7.752 7.431-13.008 7.112-.454-.026-.814.481-.678.905 1.159 3.509-.306 7.807-4.126 8.786-.89.21-.504 1.578.381 1.353zM286.438 234.633c1.963 1.613 4.5 2.471 7.046 2.297.382-.026.707-.313.708-.71-.005-.364-.328-.735-.71-.709-2.172.15-4.37-.512-6.052-1.903-.295-.242-.726-.274-1.001.014-.258.267-.288.763.009 1.011z" fill="#231F20" stroke="#000" stroke-width="2"/><path d="M289.979 236.061c-1.471 2.061-1.511 5-.163 7.134.485.772 1.705.038 1.213-.731-1.095-1.727-1.025-4.01.185-5.705.219-.314.037-.789-.271-.962-.369-.212-.744-.05-.964.264zM276.282 231.148c-.09.974.055 1.98.4 2.888.068.184.165.327.338.424a.728.728 0 00.539.067c.341-.112.629-.502.491-.876a5.318 5.318 0 01-.213-.67 3.502 3.502 0 01-.066-.29c-.011-.07-.028-.13-.04-.199-.005-.048-.008-.201-.002-.008-.005-.218-.049-.432-.053-.65-.009-.233.007-.464.022-.696.035-.366-.358-.726-.71-.708-.414.027-.665.317-.706.718zM240.2 225.246c-2.946 4.772.952 10.316 4.824 13.118 3.697 2.673 8.651 4.05 13.136 2.811 2.844-.785 5.157-2.621 6.887-4.974.539-.736-.7-1.417-1.233-.691-1.36 1.851-3.2 3.351-5.388 4.106-1.944.669-4.059.762-6.078.391-4.004-.738-7.823-3.068-10.125-6.458-1.511-2.226-2.297-5.16-.788-7.604.486-.778-.756-1.474-1.235-.699z" fill="#231F20" stroke="#000" stroke-width="2"/><path d="M240.288 225.79c-3.447-2.013-6.024-5.374-7.016-9.239-.969-3.758-.38-7.882 1.572-11.23.481-.825 1.062-1.613 1.336-2.542.288-1.022.058-2.068-.007-3.104a16.25 16.25 0 01.633-5.612 16.05 16.05 0 016.908-9.1 16.395 16.395 0 015.672-2.207c1.032-.193 2.128-.218 2.988-.907.74-.598 1.091-1.483 1.535-2.297 1.699-3.123 4.661-5.507 8.011-6.654 1.701-.584 3.481-.859 5.275-.765 1.053.053 2.062.15 2.943-.553.714-.574 1.124-1.42 1.629-2.162 1.898-2.79 4.764-4.911 7.907-6.105 3.183-1.221 6.72-1.594 10.069-.875.837.178 1.661.425 2.462.734.82.32 1.623.84 2.531.868.941.027 1.659-.589 2.458-.976a9.325 9.325 0 012.111-.741c.527-.116 1.324-.252 1.781.131.704.572 1.699-.447.985-1.024-1.25-1.01-3.019-.609-4.399-.098-.83.306-1.541.75-2.325 1.133-.863.422-1.833-.286-2.636-.604-3.34-1.321-7.056-1.498-10.554-.756-3.472.743-6.759 2.432-9.325 4.898a15.86 15.86 0 00-1.754 1.979c-.548.73-.96 1.6-1.575 2.268-.757.822-1.922.461-2.912.456a15.82 15.82 0 00-2.778.247c-3.668.653-7.139 2.669-9.516 5.545-.61.74-1.159 1.527-1.619 2.37-.476.872-.796 1.895-1.827 2.21-1.03.315-2.139.352-3.178.636a17.453 17.453 0 00-2.941 1.105c-3.708 1.75-6.757 4.832-8.416 8.584a17.964 17.964 0 00-1.491 5.732c-.091.975-.1 1.95-.012 2.923.098 1.124.259 2.101-.301 3.134-.472.888-1.054 1.701-1.485 2.617a17.04 17.04 0 00-1.035 2.83 16.549 16.549 0 00-.46 6.083 16.493 16.493 0 005.602 10.554 16.996 16.996 0 002.487 1.773c.765.441 1.453-.799.667-1.259z" fill="#231F20" stroke="#000" stroke-width="2"/><path d="M250.89 196.47c2.884-.675 5.971-.426 8.699.736.351.152.762.085.962-.271.172-.308.078-.817-.271-.962a15.838 15.838 0 00-9.781-.861c-.884.2-.501 1.56.391 1.358z" fill="#231F20" stroke="#000" stroke-width="2"/><path d="M252.7 191.35a7.024 7.024 0 001.706 4.037c.241.281.766.246 1.001-.014.269-.311.241-.701-.014-1.002-.014-.02-.185-.224-.099-.118l-.118-.161c-.093-.128-.178-.258-.264-.389a10.788 10.788 0 01-.228-.406c-.032-.056-.058-.121-.09-.177l-.059-.121a6.933 6.933 0 01-.276-.839 8.904 8.904 0 01-.097-.459c-.037-.217.015.142-.014-.077l-.027-.268c-.032-.373-.309-.724-.71-.709-.364.006-.749.309-.711.703zM349.785 199.972c1.866-.745 3.991-.687 5.786.243.808.421 1.506-.814.691-1.233-2.107-1.085-4.652-1.252-6.861-.37-.357.141-.603.478-.491.877.093.33.517.624.875.483z" fill="#231F20" stroke="#000" stroke-width="2"/><path d="M355.037 199.326a23.597 23.597 0 012.226-3.815c.214-.303.04-.806-.271-.961-.377-.186-.737-.052-.962.271a23.619 23.619 0 00-2.226 3.814c-.157.336-.086.787.271.962.314.163.794.084.962-.271zM272.671 168.597c2.739-1.907 6.251-1.907 9.355-.965.877.263 1.228-1.109.358-1.375-3.44-1.042-7.414-.984-10.444 1.127-.746.518-.023 1.733.731 1.213zM311.426 186.687c.331 2.096 1.267 4.039 2.643 5.638.251.286.757.241 1.001-.015.289-.3.229-.713-.014-1.001-1.219-1.417-1.979-3.165-2.268-4.998-.059-.381-.539-.586-.877-.491-.4.105-.544.486-.485.867zM302.326 162.679c3.289-3.611 9.821-2.045 11.734 2.241.371.828 1.582.09 1.213-.731-2.279-5.124-10.109-6.721-13.961-2.489-.623.67.401 1.655 1.014.979z" fill="#231F20" stroke="#000" stroke-width="2"/><path d="M315.087 165.369a13.007 13.007 0 019.369-1.634c3.179.661 5.981 2.572 7.814 5.251a12.975 12.975 0 012.061 4.983c.093.501.667.582 1.051.418 3.332-1.499 7.456-.536 10.118 1.86 3.056 2.757 4.201 7.049 3.77 11.047-.033.285.252.634.534.685 3.488.606 6.216 3.812 6.187 7.364-.003.423.466.85.904.678 2.721-1.083 4.117 2.895 4.766 4.764.757 2.171 1.184 5.238-.983 6.79-.506.361-.407 1.088.187 1.293 1.488.506 2.656 1.944 2.756 3.538.102 1.569-.752 3.059-2.1 3.828-.363.208-.494.837-.124 1.114 2.568 1.977.764 5.535-.632 7.631-1.606 2.416-4.026 4.736-7.088 4.836-.908.029-.906 1.448.01 1.417 3.68-.121 6.527-2.797 8.427-5.725.935-1.431 1.769-3.02 1.958-4.736.181-1.633-.347-3.422-1.69-4.447-.043.369-.083.745-.125 1.114 1.801-1.035 2.972-3.125 2.772-5.217-.213-2.195-1.743-4.027-3.808-4.735.064.429.13.864.186 1.294 2.809-2.008 2.597-5.695 1.543-8.601-.56-1.554-1.179-3.261-2.358-4.453-1.036-1.055-2.661-1.643-4.084-1.08.298.224.599.456.905.678.024-4.144-3.159-8.015-7.255-8.735.177.226.355.452.534.685.38-3.513-.417-7.263-2.512-10.152-1.954-2.701-4.93-4.458-8.259-4.817a10.186 10.186 0 00-5.275.853c.347.138.701.273 1.05.418-.651-3.49-2.683-6.673-5.526-8.791-2.887-2.155-6.553-3.077-10.123-2.622-2.019.26-3.958.92-5.701 1.987-.772.485-.04 1.699.741 1.219z" fill="#231F20" stroke="#000" stroke-width="2"/><path d="M239.356 254.633a6.58 6.58 0 004.549-8.118 6.58 6.58 0 10-12.668 3.569 6.58 6.58 0 008.119 4.549zM370.105 179.755a6.58 6.58 0 10-3.57-12.668 6.58 6.58 0 003.57 12.668zM231.423 230.771a3.544 3.544 0 10-1.921-6.822 3.544 3.544 0 001.921 6.822zM251.678 257.666a3.545 3.545 0 10-1.923-6.823 3.545 3.545 0 001.923 6.823zM354.107 169.03a3.544 3.544 0 10-1.923-6.823 3.544 3.544 0 001.923 6.823zM364.667 194.734a3.544 3.544 0 10-1.922-6.822 3.544 3.544 0 001.922 6.822z" fill="#FF5F76"/><path fill-rule="evenodd" clip-rule="evenodd" d="M237.256 264.87c-.376 78.131-61.933 165.368-61.933 165.368s-45.63 51.145-73.209 71.579c0 0-31.213 27.829 27.077 51.145 0 0 48.263 16.422 88.502-9.026 0 0 3.761 58.291 72.582 68.445 37.732 5.516 73.709-3.635 101.288-41.368 0 0 114.701 32.342 128.866-53.025 7.271-43.75-35.35-107.18-35.35-107.18-57.552-90.167-115.583-133.523-156.664-154.323l-12.595 15.267a2 2 0 01-3.097-.015l-8.061-9.957a2 2 0 00-2.522-.492l-20.925 11.564a2.002 2.002 0 01-2.486-.449l-8.879-10.359a2 2 0 00-2.867-.175l-11.226 10.25a2 2 0 01-2.976-.314l-7.025-9.835a2 2 0 00-2.645-.56l-5.855 3.46z" fill="#7EB9FF"/><path d="M467.278 523.89s37.481 3.886 52.399-2.507c0 0-6.769 77.47-128.24 49.641 0 0-63.43 84.616-154.439 15.294 0 0 74.336 48.136 146.542-40.24 0 .125 71.578 13.789 83.738-22.188z" fill="#005EEB"/><path d="M210.504 423.444s-46.711 13.286-110.402-26.737c0 0-35.08-22.098-22.894 6.511 0 0 25.435 77.769 109.345 53.822" fill="#7EB9FF"/><path d="M188.012 460.434c1.642-.708 2.531-2.562 2.02-4.35-.558-1.9-2.601-3.028-4.45-2.5-33.391 9.559-61.157 3.848-82.396-16.848-16.048-15.572-22.34-34.408-22.389-34.521l-.146-.338c-3.256-7.564-2.051-9.287-2.051-9.287 1.509-1.319 10.666 1.564 19.75 7.288 64.372 40.398 111.216 27.724 113.284 27.102 1.849-.529 2.908-2.591 2.35-4.491-.559-1.901-2.602-3.028-4.451-2.5-.596.123-46.127 12.231-107.471-26.259-4.962-3.083-21.438-12.717-28.203-6.726-5.257 4.671-1.283 14.201.175 17.588.655 2.126 7.483 20.999 24.09 37.267 16.097 15.685 44.636 31.633 89.608 18.829.061-.16.17-.207.28-.254z" fill="#000"/><path d="M458.96 424.693s45.923 18.693 114.31-13.866c0 0 37.672-17.986 22.507 9.161 0 0-33.443 74.692-115.928 41.031" fill="#7EB9FF"/><path d="M478.036 464.241a3.687 3.687 0 01-1.612-4.578c.754-1.832 2.932-2.721 4.749-1.978 32.822 13.423 61.469 10.949 85.004-7.248 17.776-13.682 26.009-31.757 26.069-31.864l.181-.321c4.044-7.174 2.997-9.034 2.997-9.034-1.395-1.492-10.943.321-20.697 4.981-69.113 32.855-115.232 14.757-117.261 13.895-1.818-.743-2.684-2.924-1.93-4.757.753-1.833 2.931-2.721 4.749-1.979.59.192 45.436 17.573 111.298-13.729 5.323-2.501 22.943-10.205 29.19-3.438 4.853 5.275-.111 14.329-1.922 17.541-.875 2.047-9.653 20.096-28.063 34.409-17.837 13.79-48.283 26.397-92.494 8.386-.046-.167-.152-.227-.258-.286z" fill="#000"/><path d="M326.172 440.36c34.779 0 62.044-35.37 62.044-77.714s-27.265-77.714-62.044-77.714c-34.779 0-62.044 35.37-62.044 77.714s27.265 77.714 62.044 77.714zM211.382 408.917c3.505.634 6.769-1.235 9.484-3.921 2.775-2.746 5.456-6.796 7.942-11.721 4.987-9.881 9.451-23.819 12.285-39.487 2.834-15.667 3.536-30.286 2.327-41.287-.603-5.485-1.696-10.217-3.333-13.762-1.602-3.467-4.004-6.361-7.509-6.995-3.504-.633-6.768 1.235-9.483 3.922-2.776 2.746-5.457 6.796-7.943 11.721-4.987 9.881-9.451 23.819-12.285 39.486-2.834 15.668-3.536 30.286-2.326 41.288.602 5.484 1.695 10.217 3.333 13.761 1.601 3.468 4.004 6.361 7.508 6.995z" fill="#4E4E4E" stroke="#000" stroke-width="5"/><ellipse cx="333.693" cy="362.646" rx="52.023" ry="75.214" fill="#000"/><ellipse cx="224.447" cy="350.777" rx="14.416" ry="57.037" transform="rotate(10.254 224.447 350.777)" fill="#000"/><mask id="prefix__a" maskUnits="userSpaceOnUse" x="94.903" y="286.192" width="114" height="96" fill="#000"><path fill="#fff" d="M94.903 286.192h114v96h-114z"/><path fill-rule="evenodd" clip-rule="evenodd" d="M164.507 362.15c-6.773 8.765-16.639 14.285-27.623 14.285-20.424 0-36.98-19.083-36.98-42.622s16.556-42.621 36.98-42.621c18.965 0 34.596 16.455 36.731 37.654 1.596 2.553 3.725 4.663 6.517 5.593a54.39 54.39 0 004.58 1.298c1.42.338 1.49 3.958.05 4.198-1.218.203-1.36 1.901-.195 2.306 7.073 2.46 16.502 5.801 18.129 6.614 2.507 1.254 0 5.014-11.909 4.388-5.657-.298-10.267-.316-13.517-.238-1.569.038-2.082 1.956-.777 2.826 1.276.851.829 2.839-.685 3.082-2.651.426-5.399.913-6.332 1.224-.543.181-2.462.966-4.969 2.013z"/></mask><path fill-rule="evenodd" clip-rule="evenodd" d="M164.507 362.15c-6.773 8.765-16.639 14.285-27.623 14.285-20.424 0-36.98-19.083-36.98-42.622s16.556-42.621 36.98-42.621c18.965 0 34.596 16.455 36.731 37.654 1.596 2.553 3.725 4.663 6.517 5.593a54.39 54.39 0 004.58 1.298c1.42.338 1.49 3.958.05 4.198-1.218.203-1.36 1.901-.195 2.306 7.073 2.46 16.502 5.801 18.129 6.614 2.507 1.254 0 5.014-11.909 4.388-5.657-.298-10.267-.316-13.517-.238-1.569.038-2.082 1.956-.777 2.826 1.276.851.829 2.839-.685 3.082-2.651.426-5.399.913-6.332 1.224-.543.181-2.462.966-4.969 2.013z" fill="#82A6B8"/><path d="M164.507 362.15l-1.927-4.613c-.8.334-1.499.87-2.029 1.556l3.956 3.057zm9.108-33.304l-4.975.501c.077.763.329 1.499.735 2.149l4.24-2.65zm6.517 5.593l1.581-4.743-1.581 4.743zm4.58 1.298l-1.16 4.863 1.16-4.863zm.05 4.198l.822 4.932-.822-4.932zm-.195 2.306l-1.642 4.723 1.642-4.723zm6.22 11.002l.263-4.994-.263 4.994zm-13.517-.238l.12 4.999-.12-4.999zm-.777 2.826l-2.774 4.16 2.774-4.16zm-.685 3.082l.792 4.937-.792-4.937zm-6.332 1.224l1.581 4.744-1.581-4.744zm-8.925-1.044c-5.964 7.718-14.444 12.342-23.667 12.342v10c12.746 0 23.998-6.417 31.58-16.227l-7.913-6.115zm-23.667 12.342c-17.02 0-31.981-16.154-31.981-37.622h-10c0 25.611 18.153 47.622 41.981 47.622v-10zm-31.981-37.622c0-21.467 14.961-37.621 31.981-37.621v-10c-23.828 0-41.98 22.011-41.98 47.621h9.999zm31.981-37.621c15.822 0 29.817 13.894 31.756 33.155l9.95-1.002c-2.33-23.136-19.597-42.153-41.706-42.153v10zm44.829 33.504c-1.315-.438-2.63-1.537-3.858-3.5l-8.48 5.3c1.965 3.142 4.908 6.264 9.175 7.686l3.163-9.486zm4.159 1.177a49.58 49.58 0 01-4.159-1.177l-3.163 9.486a59.593 59.593 0 005.002 1.418l2.32-9.727zm-.288 13.994c2.617-.436 3.968-2.351 4.521-3.555.565-1.23.719-2.499.704-3.515-.016-1.028-.212-2.252-.763-3.423-.518-1.101-1.748-2.922-4.174-3.501l-2.32 9.727c-1.716-.409-2.405-1.651-2.556-1.971-.183-.389-.185-.629-.186-.68-.001-.039-.01-.337.207-.81a3.912 3.912 0 012.923-2.136l1.644 9.864zm.626-7.348c3.707 1.289 3.284 6.696-.626 7.348l-1.644-9.864c-6.345 1.058-7.054 9.861-1.015 11.961l3.285-9.445zm18.722 6.864c-1.147-.574-4.28-1.736-7.559-2.92a1036.847 1036.847 0 00-11.163-3.944l-3.285 9.445c3.528 1.227 7.632 2.67 11.05 3.904 1.711.618 3.232 1.178 4.417 1.629a74.36 74.36 0 011.462.572c.189.077.339.14.451.189l.155.069 4.472-8.944zm-14.408 13.853c6.272.33 11.035-.406 14.084-2.129 1.406-.795 3.54-2.448 3.916-5.295.449-3.396-1.852-5.559-3.592-6.429l-4.472 8.944c-.487-.243-2.161-1.466-1.85-3.824.239-1.809 1.472-2.325 1.077-2.102-.556.314-3.001 1.145-8.637.848l-.526 9.987zm-13.134-.232c3.123-.075 7.606-.059 13.134.232l.526-9.987c-5.786-.304-10.524-.324-13.901-.242l.241 9.997zm1.876-6.333c1.189.792 1.749 2.325 1.362 3.748-.396 1.458-1.727 2.548-3.238 2.585l-.241-9.997c-3.079.074-5.451 2.143-6.17 4.786-.71 2.609.247 5.536 2.74 7.198l5.547-8.32zM176.6 363.85c5.913-.948 7.803-8.755 2.666-12.179l-5.547 8.32c-2.584-1.723-1.588-5.552 1.297-6.015l1.584 9.874zm-5.543 1.031c-.019.006.123-.038.519-.127.356-.079.811-.171 1.348-.272 1.072-.202 2.372-.423 3.676-.632l-1.584-9.874c-1.347.217-2.746.453-3.944.679-1.075.202-2.334.458-3.177.739l3.162 9.487zm-4.622 1.883c1.247-.521 2.336-.972 3.175-1.313.42-.17.766-.309 1.032-.413.133-.052.238-.092.317-.121l.098-.036-3.162-9.487c-.768.256-2.922 1.143-5.315 2.143l3.855 9.227z" fill="#000" mask="url(#prefix__a)"/><ellipse cx="133.75" cy="333.813" rx="33.846" ry="42.621" fill="#C7EFFF"/><ellipse cx="119.774" cy="337.363" rx="13.467" ry="25.547" transform="rotate(-9.162 119.774 337.363)" fill="#000"/><path d="M83.706 356.325c2.817-.455 4.4-3.106 5.15-5.685.798-2.74.946-6.229.362-9.853-.585-3.624-1.823-6.889-3.441-9.239-1.524-2.213-3.859-4.232-6.677-3.778-2.817.455-4.399 3.106-5.15 5.685-.798 2.74-.946 6.229-.362 9.853.585 3.623 1.823 6.889 3.441 9.239 1.524 2.213 3.859 4.232 6.677 3.778z" fill="#1ECDFD" stroke="#000" stroke-width="4"/><path d="M182.397 498.116l.012.002c5.726 1.178 11.696-.022 16.532-3.207 2.137-1.408 3.974-3.152 5.331-5.186 9.511-12.945 29.528-47.578 8.622-90.482-3.904-8.166-12.682-12.781-21.597-11.99l-.019.002-.019.002c-26.856 2.733-94.194 10.69-134.36 26.294l-.066.025-.064.029c-.743.329-1.786.811-2.672 1.395-4.212 2.774-6.578 7.55-6.56 12.579v.066l.003.067c.242 5.082 2.842 9.67 7.178 12.35l.013.008.012.008c11.848 7.164 32.705 19.338 56.086 30.877 23.336 11.516 49.384 22.5 71.568 27.161z" fill="#FFB6E9" stroke="#000" stroke-width="6"/><path d="M195.41 403.668c-.194-3.271-4.535-5.674-9.695-5.368-5.161.307-9.187 3.207-8.993 6.478.195 3.27 4.536 5.673 9.696 5.367 5.161-.307 9.187-3.207 8.992-6.477z" fill="#000"/><mask id="prefix__b" maskUnits="userSpaceOnUse" x="180.404" y="282.428" width="184" height="153" fill="#000"><path fill="#fff" d="M180.404 282.428h184v153h-184z"/><path fill-rule="evenodd" clip-rule="evenodd" d="M293.709 406.39c-11.355 14.692-27.895 23.945-46.309 23.945-34.24 0-61.996-31.991-61.996-71.453 0-39.463 27.756-71.454 61.996-71.454 31.796 0 58.001 27.587 61.58 63.127 2.675 4.28 6.245 7.817 10.924 9.377a91.508 91.508 0 007.679 2.175c2.381.568 2.497 6.637.083 7.039-2.04.34-2.28 3.186-.326 3.866 11.858 4.124 27.666 9.725 30.392 11.088 4.203 2.101 0 8.406-19.965 7.355-10.868-.572-19.433-.527-24.901-.33-1.876.067-2.486 2.387-.924 3.429l3.606 2.404c1.528 1.018.993 3.396-.821 3.677-4.992.776-10.877 1.776-12.686 2.379-.91.303-4.129 1.62-8.332 3.376z"/></mask><path fill-rule="evenodd" clip-rule="evenodd" d="M293.709 406.39c-11.355 14.692-27.895 23.945-46.309 23.945-34.24 0-61.996-31.991-61.996-71.453 0-39.463 27.756-71.454 61.996-71.454 31.796 0 58.001 27.587 61.58 63.127 2.675 4.28 6.245 7.817 10.924 9.377a91.508 91.508 0 007.679 2.175c2.381.568 2.497 6.637.083 7.039-2.04.34-2.28 3.186-.326 3.866 11.858 4.124 27.666 9.725 30.392 11.088 4.203 2.101 0 8.406-19.965 7.355-10.868-.572-19.433-.527-24.901-.33-1.876.067-2.486 2.387-.924 3.429l3.606 2.404c1.528 1.018.993 3.396-.821 3.677-4.992.776-10.877 1.776-12.686 2.379-.91.303-4.129 1.62-8.332 3.376z" fill="#82A6B8"/><path d="M293.709 406.39l-1.928-4.614a5 5 0 00-2.028 1.556l3.956 3.058zm15.271-55.835l-4.975.501a5 5 0 00.735 2.149l4.24-2.65zm10.924 9.377l1.581-4.744-1.581 4.744zm7.679 2.175l1.16-4.863-1.16 4.863zm.083 7.039l-.822-4.932.822 4.932zm-.326 3.866l-1.642 4.722 1.642-4.722zm30.392 11.088l2.236-4.472-2.236 4.472zm-19.965 7.355l-.262 4.993.262-4.993zm-24.901-.33l.18 4.996-.18-4.996zm-.924 3.429l-2.773 4.16 2.773-4.16zm3.606 2.404l2.774-4.16-2.774 4.16zm-.821 3.677l.768 4.941-.768-4.941zm-12.686 2.379l1.581 4.743-1.581-4.743zm-12.288.318c-10.547 13.646-25.7 22.003-42.353 22.003v10c20.176 0 38.102-10.15 50.265-25.888l-7.912-6.115zM247.4 425.335c-30.835 0-56.996-29.062-56.996-66.453h-10c0 41.534 29.352 76.453 66.996 76.453v-10zm-56.996-66.453c0-37.391 26.161-66.454 56.996-66.454v-10c-37.644 0-66.996 34.92-66.996 76.454h10zm56.996-66.454c28.652 0 53.221 25.026 56.605 58.628l9.949-1.002c-3.774-37.477-31.615-67.626-66.554-67.626v10zm74.085 62.76c-3.202-1.067-5.959-3.593-8.266-7.283l-8.479 5.3c3.043 4.869 7.427 9.418 13.583 11.47l3.162-9.487zm7.258 2.056a86.441 86.441 0 01-7.258-2.056l-3.162 9.487a96.7 96.7 0 008.1 2.296l2.32-9.727zm-.255 16.834c2.861-.477 4.392-2.575 5.062-4.035.683-1.486.893-3.083.872-4.431-.021-1.358-.282-2.914-.957-4.349-.642-1.366-2.055-3.383-4.722-4.019l-2.32 9.727c-1.476-.352-1.982-1.398-2.008-1.453-.059-.126.004-.033.008.247.005.291-.06.322.04.105.088-.192.727-1.38 2.381-1.656l1.644 9.864zm.495-5.789c2.919 1.015 2.592 5.274-.495 5.789l-1.644-9.864c-7.168 1.195-7.973 11.146-1.146 13.52l3.285-9.445zm30.985 11.339c-1.697-.849-6.7-2.713-12.309-4.739a1762.32 1762.32 0 00-18.676-6.6l-3.285 9.445c5.92 2.059 12.816 4.483 18.564 6.56 5.94 2.146 10.205 3.763 11.234 4.278l4.472-8.944zm-22.463 16.82c10.3.543 17.501-.724 21.768-3.135 2.016-1.14 4.455-3.177 4.877-6.375.495-3.747-2.017-6.228-4.182-7.31l-4.472 8.944c-.063-.032-1.525-.936-1.259-2.943.192-1.458 1.12-1.59.116-1.022-1.775 1.003-6.658 2.364-16.323 1.855l-.525 9.986zm-24.459-.327c5.319-.191 13.736-.237 24.459.327l.525-9.986c-11.014-.579-19.727-.537-25.344-.334l.36 9.993zm1.67-5.727c1.076.717 1.567 2.107 1.23 3.369-.345 1.293-1.527 2.309-2.9 2.358l-.36-9.993c-7.057.254-8.843 9.035-3.517 12.586l5.547-8.32zm3.606 2.404l-3.606-2.404-5.547 8.32 3.606 2.404 5.547-8.32zm-2.827 12.778c6.257-.972 8.201-9.196 2.827-12.778l-5.547 8.32c-2.319-1.546-1.444-5.015 1.184-5.423l1.536 9.881zm-11.873 2.181c.503-.167 2.053-.51 4.463-.948a304.44 304.44 0 017.41-1.233l-1.536-9.881c-2.516.391-5.282.842-7.663 1.275-2.233.406-4.53.865-5.836 1.301l3.162 9.486zm-7.986 3.246c4.317-1.804 7.301-3.017 7.986-3.246l-3.162-9.486c-1.136.378-4.589 1.797-8.679 3.505l3.855 9.227z" fill="#000" mask="url(#prefix__b)"/><ellipse cx="242.146" cy="358.882" rx="56.742" ry="71.453" fill="#C7EFFF"/><ellipse cx="218.716" cy="364.833" rx="22.578" ry="42.829" transform="rotate(-9.162 218.716 364.833)" fill="#000"/><path d="M171.822 392.404c3.909-.631 6.328-4.372 7.551-8.573 1.27-4.362 1.525-10.003.57-15.924-.955-5.922-2.971-11.197-5.547-14.938-2.482-3.603-5.955-6.395-9.863-5.765-3.909.631-6.328 4.373-7.551 8.573-1.27 4.362-1.525 10.003-.57 15.925.955 5.922 2.971 11.196 5.547 14.937 2.482 3.604 5.955 6.395 9.863 5.765z" fill="#1ECDFD" stroke="#000" stroke-width="4"/></svg>