<svg width="649" height="618" viewBox="0 0 649 618" fill="none" xmlns="http://www.w3.org/2000/svg">
<g clip-path="url(#clip0_2591_502)">
<path d="M331.946 92.6138L334.373 92.0141L331.946 92.6139C333.239 97.846 333.011 104.987 332.018 112.403C331.035 119.753 329.34 127.103 327.888 132.623C327.197 135.248 329.049 137.239 330.41 138.123C331.818 139.037 334.158 139.775 336.247 138.687C341.15 136.136 346.262 136.316 351.483 138.354C356.772 140.419 362.057 144.359 366.979 149.113C376.815 158.611 384.65 170.806 387.577 175.61C388.193 176.622 389.166 177.406 390.034 177.932C390.914 178.466 392.015 178.934 393.107 179.062C402.926 180.214 412.132 185.868 419.952 192.808C427.741 199.72 433.925 207.701 437.695 213.104C439.002 214.978 441.198 215.383 442.895 214.839C444.62 214.287 446.204 212.615 445.994 210.229C442.817 174.103 420.01 149.988 409.977 141.004C418.669 140.977 428.22 143.479 435.635 146.026C438.083 146.867 440.208 145.532 441.169 143.95C442.147 142.339 442.329 139.723 440.138 138.052C415.61 119.347 392.196 115.432 382.558 114.625C391.447 102.569 402.539 97.4041 409.982 95.1961C412.276 94.5156 413.32 92.399 413.435 90.6848C413.552 88.9516 412.728 86.5151 410.101 85.887C381.714 79.1001 359.781 97.5257 352.586 104.61C348.493 95.7379 343.25 90.3192 339.07 87.1404C338.142 86.4353 337.042 86.155 335.957 86.3088C334.925 86.4551 334.069 86.9665 333.444 87.5667C332.236 88.7255 331.459 90.6418 331.946 92.6138Z" fill="#FF009F" stroke="black" stroke-width="5" stroke-linejoin="round"/>
<path d="M361.372 208.224C364.317 203.42 361.866 196.479 356.942 195.239C357.143 191.46 353.997 187.78 350.092 186.845C348.249 186.407 349.904 185.43 349.707 183.636C349.536 182.022 349.172 180.356 348.521 178.853C347.417 176.317 345.559 174.27 343.026 173.11C341.797 172.548 340.424 172.221 339.07 172.165C338.036 172.123 336.412 172.719 335.645 172.1C334.764 171.391 334.148 169.464 333.45 168.541C332.543 167.337 331.481 166.217 330.313 165.265C326.248 161.95 319.756 162.108 315.153 164.598C313.67 163.02 312.897 160.391 310.751 159.885C307.789 159.187 304.005 160.18 301.086 160.987C299.001 160.869 297.295 162.241 295.394 163.036C294.156 163.247 293.058 162.949 291.733 162.535C289.741 161.913 287.807 161.322 285.807 162.056C284.604 161.843 283.374 161.768 282.069 162.03C278.362 162.775 275.46 165.255 272.855 167.839C270.763 169.913 268.834 170.667 265.915 170.986C264.169 171.179 262.464 171.432 260.786 171.953C257.714 172.908 254.751 174.684 253.042 177.485C252.63 178.153 252.413 178.879 252.064 179.569C251.248 181.162 250.52 181.513 248.854 181.82C247.219 182.119 245.696 182.442 244.2 183.205C241.64 184.51 239.414 186.597 237.97 189.072C236.163 190.287 235.39 192.378 235.324 194.676C235.271 196.532 235.686 198.378 235.623 200.228C235.555 202.348 234.599 204.134 233.724 206.01C231.077 211.696 231.673 218.332 236.038 223.055C236.981 224.071 238.989 225.038 239.528 226.289C239.856 227.048 239.82 228.218 240.053 229.045C240.278 229.841 240.55 230.608 240.9 231.361C242.189 234.12 244.257 236.538 246.842 238.17C252.088 241.476 257.344 242.283 264.91 236.436C267.558 243.387 272.602 245.372 278.252 246.626C285.408 248.219 291.791 245.171 298.696 243.858C303.13 243.014 307.212 243.802 310.516 246.026C310.714 246.213 310.906 246.403 311.097 246.592C312.328 247.883 313.414 249.435 314.857 250.496C315.171 250.976 315.473 251.474 315.75 251.996C316.449 253.324 317.01 254.739 317.371 256.195C317.741 257.68 317.683 259.432 318.498 260.768C320.076 263.348 324.169 262.763 326.708 262.388C330.104 261.893 332.454 260.444 332.634 256.768C332.735 254.68 331.228 252.582 330.757 250.509C335.119 250.302 340.797 248.434 344.478 246.302C348.772 243.81 352.571 240.599 353.636 235.659C353.695 235.408 353.789 234.789 353.721 234.606C353.758 234.019 354.697 231.508 354.597 230.895C357.738 229.548 359.237 229.085 361.154 226.16C362.715 223.782 363.696 219.118 362.665 216.497C364.954 214.692 364.574 214.524 364.289 211.554C364.015 209.288 363.329 208.638 361.372 208.224Z" fill="#FF5F76"/>
<path d="M362.843 209.415C362.305 208.658 361.562 208.121 360.739 207.704C360.15 207.4 359.463 207.236 358.896 206.893C357.884 206.295 357.536 205.492 356.84 204.634C355.504 202.999 353.894 202.699 351.885 202.592C350.682 202.525 349.975 202.489 348.983 201.731C348.097 201.064 347.491 200.294 346.289 200.316C343.805 200.367 343.438 203.958 340.66 202.648C338.033 201.41 336.448 197.112 335.061 194.721C332.638 190.554 330.038 183.371 324.318 183.077C322.393 182.979 320.881 183.916 319.637 185.288C318.801 186.205 318.038 187.644 316.602 187.611C315.326 187.573 314.113 186.35 313.052 185.749C311.381 184.8 309.206 184.188 307.425 185.209C305.38 186.386 305.725 188.673 305.371 190.67C304.818 193.803 302.664 197.24 299.104 196.865C296.797 196.623 294.237 195.941 292.756 198.313C291.553 200.233 292.663 204.576 289.083 203.873C286.806 203.42 286.002 200.565 283.478 200.416C281.31 200.289 279.73 202.138 279.238 204.077C278.556 206.751 279.895 209.804 277.215 211.662C271.86 215.369 269.383 206.894 265.287 205.137C264.476 204.79 263.68 205.249 263.3 205.972C262.698 207.115 262.532 208.281 262.566 209.553C262.6 210.971 263.125 212.778 262.529 214.114C261.189 217.103 255.055 215.482 252.622 215.137C245.349 214.105 237.568 211.245 235.292 203.484C235.032 202.592 233.71 203.053 233.787 203.9C233.805 204.138 233.839 204.372 233.872 204.606C233.709 204.717 233.566 204.87 233.456 205.088C231.34 209.463 231.344 214.686 233.566 219.031C234.803 221.464 236.898 223.056 238.41 225.257C240.061 227.663 240.448 230.733 242.011 233.229C246.89 241.018 258.301 243.577 264.586 236.381C267.645 239.841 270.978 243.233 275.375 244.881C280.48 246.792 286.459 246.454 291.707 245.389C294.536 244.81 297.206 243.49 300.044 243.056C303.083 242.589 306.085 243.657 308.532 245.433C312.558 248.353 314.31 252.669 316.881 256.73C318.912 259.937 322.239 263.022 326.348 261.832C330.036 260.76 332.6 256.647 331.522 252.88C331.277 252.008 330.619 251.228 330.425 250.366C330.103 248.908 330.677 248.957 331.979 248.801C332.466 248.745 333.194 248.881 333.657 248.912C336.478 249.082 339.378 249.214 342.099 248.277C346.422 246.783 350.339 242.435 352.128 238.509C353.124 236.314 353.716 231.394 354.035 231.175C355.363 230.273 357.486 229.432 359.293 227.787C360.688 226.518 361.868 225.066 362.351 223.211C362.697 221.905 362.56 220.614 362.623 219.282C362.702 217.808 363.106 216.421 363.398 214.984C363.794 213.137 364.004 211.058 362.843 209.415Z" fill="#FF385E"/>
<path d="M307.151 162.651C306.567 162.71 306.151 163.42 306.407 163.956C306.928 165.026 307.833 165.849 308.374 166.905C308.935 168.004 309.044 169.255 309.579 170.345C309.921 171.043 310.798 171.161 311.305 170.572C313.646 167.885 310.649 162.314 307.151 162.651Z" fill="white"/>
<path d="M308.969 173.162C308.828 173.494 308.609 173.782 308.39 174.071C308.171 174.36 307.974 174.667 307.701 174.906C307.149 175.394 307.636 176.433 308.382 176.085C308.94 175.822 309.439 175.462 309.739 174.916C310.016 174.4 310.087 173.877 310.062 173.3C310.046 172.696 309.175 172.682 308.969 173.162Z" fill="white"/>
<path d="M241.08 190.352C240.152 190.598 239.519 190.768 239.057 191.693C238.624 192.545 238.696 193.433 239.046 194.299C239.265 194.846 240.208 194.913 240.398 194.291C240.576 193.714 240.851 193.166 241.056 192.598C241.17 192.282 241.305 191.984 241.331 191.644C241.352 191.346 241.31 191.082 241.423 190.791C241.497 190.592 241.33 190.29 241.08 190.352Z" fill="white"/>
<path d="M346.611 188.281C345.984 187.322 344.759 186.256 343.52 186.548C342.875 186.706 342.297 187.388 342.647 188.084C343.009 188.793 343.694 189.208 344.13 189.864C344.503 190.44 344.905 191.146 345.151 191.79C345.459 192.596 346.554 192.482 346.894 191.786C347.488 190.556 347.359 189.408 346.611 188.281Z" fill="white"/>
<path d="M347.407 194.355C347.102 193.76 346.309 193.594 345.867 194.157C345.723 194.335 345.629 194.548 345.562 194.77C345.534 194.875 345.507 194.98 345.482 195.092C345.473 195.119 345.476 195.127 345.47 195.136C345.444 195.217 345.418 195.297 345.392 195.377C345.289 195.731 345.283 196.057 345.059 196.412C344.856 196.729 344.845 197.121 345.126 197.399C345.382 197.643 345.825 197.721 346.112 197.47C346.534 197.099 346.99 196.703 347.246 196.201C347.507 195.657 347.683 194.902 347.407 194.355Z" fill="white"/>
<path d="M353.497 232.056C352.964 236.035 351.273 239.82 348.61 242.833C345.764 246.06 341.916 248.232 337.708 249.101C335.21 249.618 332.614 249.644 330.102 249.192C329.213 249.029 328.855 250.322 329.743 250.567C329.682 250.551 329.605 250.508 329.568 250.462C329.57 250.47 329.622 250.512 329.622 250.512C329.622 250.512 329.592 250.463 329.666 250.58C329.756 250.725 329.836 250.897 329.901 251.041C330.117 251.548 330.275 252.079 330.423 252.605C330.743 253.74 331.01 254.889 331.224 256.054C331.603 258.145 331.28 261.431 328.533 261.873C326.429 262.206 323.897 262.603 321.663 262.446C320.621 262.375 319.983 261.435 319.532 260.524C318.889 259.221 318.566 257.788 318.115 256.415C317.628 254.946 316.86 253.605 316.03 252.298C315.049 250.774 313.936 249.328 312.69 248.016C310.315 245.514 307.258 243.302 303.834 242.547C302.295 242.21 300.737 242.293 299.221 242.728C297.51 243.218 295.89 243.975 294.182 244.472C290.503 245.55 286.67 246.135 282.837 246.177C279.311 246.213 275.665 245.822 272.514 244.139C269.995 242.797 268.035 240.705 266.687 238.197C266.363 237.591 266.073 236.967 265.819 236.325C265.486 235.486 264.116 235.864 264.452 236.71C265.569 239.494 267.219 242.07 269.608 243.927C272.425 246.126 275.84 247.135 279.364 247.464C283.367 247.828 287.442 247.466 291.371 246.643C293.27 246.246 295.143 245.726 296.966 245.058C298.606 244.458 300.185 243.73 301.958 243.749C303.698 243.762 305.398 244.442 306.909 245.257C308.576 246.166 310.055 247.356 311.383 248.701C313.779 251.132 315.933 254.142 316.953 257.415C317.674 259.742 318.487 263.52 321.445 263.83C322.716 263.966 324.036 263.813 325.305 263.683C326.494 263.558 327.677 263.412 328.86 263.233C331.956 262.766 333.095 259.354 332.744 256.582C332.601 255.471 332.354 254.365 332.08 253.274C331.808 252.167 331.526 250.965 330.96 249.964C330.766 249.621 330.507 249.305 330.117 249.188C329.994 249.644 329.881 250.106 329.758 250.562C334.48 251.43 339.39 250.695 343.66 248.494C347.556 246.488 350.735 243.208 352.72 239.315C353.823 237.155 354.561 234.822 354.889 232.418C354.983 231.516 353.614 231.147 353.497 232.056Z" fill="#231F20" stroke="black" stroke-width="2"/>
<path d="M300.391 243.396C307.198 239.118 315.164 237.855 323.002 236.919C326.626 236.482 330.241 235.958 333.878 235.622C337.283 235.303 340.699 235.079 344.08 234.556C347.747 233.985 351.459 233.053 354.621 231.034C355.39 230.542 354.659 229.329 353.889 229.821C351.112 231.593 347.895 232.467 344.681 233.032C341.297 233.629 337.856 233.853 334.438 234.159C330.84 234.483 327.262 234.997 323.676 235.423C319.782 235.88 315.873 236.373 312.049 237.248C307.692 238.249 303.457 239.799 299.662 242.19C298.881 242.67 299.614 243.891 300.391 243.396Z" fill="#231F20" stroke="black" stroke-width="2"/>
<path d="M308.132 239.494C309.058 241.861 311.308 243.481 313.858 243.525C313.63 243.232 313.399 242.932 313.171 242.64C312.405 246.425 315.168 250.042 319.064 250.168C319.513 250.18 319.953 250.129 320.394 250.053C320.773 249.987 321.193 249.868 321.569 250.022C321.998 250.193 322.356 250.571 322.764 250.78C323.124 250.963 323.507 251.114 323.895 251.224C325.58 251.706 327.428 251.445 328.91 250.516C329.682 250.031 328.951 248.818 328.179 249.303C326.959 250.068 325.468 250.245 324.095 249.805C323.345 249.562 322.81 249.015 322.108 248.71C321.391 248.41 320.678 248.586 319.939 248.697C316.676 249.179 313.91 246.211 314.558 242.987C314.649 242.532 314.343 242.107 313.871 242.102C311.995 242.063 310.205 240.864 309.514 239.104C309.166 238.27 307.804 238.646 308.132 239.494Z" fill="#231F20" stroke="black" stroke-width="2"/>
<path d="M265.609 234.801C264.056 230.267 263.257 224.556 267.079 220.875C267.894 220.086 268.838 219.609 269.901 219.237C270.454 219.04 270.991 218.816 271.44 218.422C271.901 218.016 272.216 217.465 272.552 216.957C273.757 215.133 275.48 213.707 277.438 212.741C279.382 211.78 281.59 211.328 283.753 211.432C284.929 211.49 286.005 211.885 287.161 212.045C288.445 212.227 289.329 211.564 289.993 210.525C291.386 208.357 292.769 206.272 294.716 204.547C296.554 202.926 298.77 201.751 301.189 201.328C302.472 201.105 303.823 201.121 305.094 201.428C306.399 201.742 307.717 202.506 308.792 201.254C309.226 200.751 309.535 200.12 309.899 199.571C310.293 198.982 310.717 198.416 311.187 197.895C312.12 196.861 313.265 196.003 314.709 195.945C315.174 195.928 315.501 195.503 315.387 195.041C314.74 192.457 316.079 189.671 318.448 188.493C319.266 188.084 318.527 186.873 317.717 187.279C314.781 188.747 313.226 192.267 314.027 195.424C314.251 195.125 314.482 194.825 314.704 194.519C312.003 194.632 310.144 196.696 308.723 198.792C308.401 199.264 308.136 199.817 307.774 200.26C307.297 200.84 306.589 200.374 306.003 200.191C304.843 199.845 303.611 199.705 302.404 199.769C297.096 200.041 292.891 203.626 290.016 207.843C289.66 208.365 289.326 208.905 288.999 209.443C288.717 209.912 288.406 210.535 287.823 210.65C287.239 210.766 286.553 210.432 285.99 210.307C285.428 210.182 284.853 210.1 284.278 210.044C281.987 209.829 279.632 210.25 277.526 211.151C275.463 212.033 273.571 213.377 272.158 215.129C271.4 216.065 270.917 217.344 269.73 217.793C268.587 218.228 267.55 218.634 266.588 219.424C264.606 221.053 263.392 223.536 263.031 226.055C262.596 229.146 263.259 232.244 264.26 235.165C264.54 236.043 265.902 235.668 265.609 234.801Z" fill="#231F20" stroke="black" stroke-width="2"/>
<path d="M270.636 229.762C276.546 232.776 284.283 231.334 288.656 226.331C288.489 226.402 288.315 226.475 288.149 226.546C292.445 225.993 296.869 224.624 300.486 222.178C303.23 220.318 305.764 217.479 305.574 213.956C305.176 214.125 304.77 214.296 304.373 214.472C308.536 217.703 314.397 215.938 318.764 214.051C323.153 212.157 327.035 209.238 329.709 205.232C331.443 202.635 332.581 199.679 333.248 196.636C333.443 195.745 332.069 195.387 331.874 196.277C330.818 201.108 328.481 205.506 324.712 208.766C321.489 211.547 317.373 213.461 313.238 214.416C310.649 215.015 307.568 215.162 305.356 213.441C304.91 213.096 304.12 213.287 304.155 213.958C304.283 216.339 302.914 218.331 301.194 219.853C299.102 221.7 296.43 222.923 293.808 223.808C292.327 224.307 290.814 224.692 289.274 224.956C288.873 225.028 288.439 225.045 288.044 225.14C287.694 225.223 287.53 225.472 287.293 225.725C286.876 226.175 286.419 226.596 285.941 226.974C284.044 228.473 281.726 229.427 279.335 229.776C276.617 230.177 273.779 229.776 271.325 228.522C270.519 228.108 269.821 229.343 270.636 229.762Z" fill="#231F20" stroke="black" stroke-width="2"/>
<path d="M277.323 233.174C276.05 234.96 276.383 237.664 277.996 239.132C278.281 239.392 278.728 239.396 278.998 239.117C279.263 238.848 279.268 238.376 278.983 238.116C278.898 238.042 278.818 237.959 278.738 237.877C278.705 237.845 278.679 237.812 278.644 237.773C278.718 237.866 278.628 237.745 278.608 237.735C278.478 237.56 278.371 237.38 278.274 237.18C278.276 237.188 278.193 237.008 278.229 237.079C278.26 237.16 278.196 236.991 278.192 236.976C278.153 236.865 278.116 236.762 278.084 236.65C278.056 236.552 278.036 236.452 278.016 236.352C278.009 236.298 277.992 236.238 277.985 236.183C277.997 236.285 277.985 236.183 277.979 236.136C277.96 235.922 277.955 235.705 277.968 235.49C277.97 235.441 277.975 235.399 277.979 235.357C277.992 235.143 277.966 235.426 277.987 235.298C278.004 235.188 278.029 235.075 278.054 234.963C278.076 234.868 278.103 234.763 278.142 234.67C278.145 234.678 278.207 234.498 278.177 234.563C278.149 234.636 278.216 234.471 278.221 234.462C278.318 234.256 278.433 234.061 278.566 233.87C278.786 233.557 278.603 233.081 278.295 232.908C277.929 232.703 277.545 232.868 277.323 233.174Z" fill="#231F20" stroke="black" stroke-width="2"/>
<path d="M292.932 237.073C293.802 237.111 294.434 236.56 295.133 236.136C295.991 235.61 296.986 235.776 297.939 235.905C299.904 236.17 301.732 236.126 303.57 235.308C305.357 234.512 306.63 233.188 307.714 231.593C308.234 230.822 308.755 229.994 309.509 229.417C310.163 228.916 310.946 228.647 311.759 228.507C313.458 228.206 315.21 228.435 316.931 228.298C318.811 228.15 320.35 227.538 321.736 226.239C322.499 225.521 323.216 224.784 324.197 224.353C325.156 223.929 326.226 223.781 327.266 223.732C329.131 223.644 331.028 223.985 332.881 223.739C334.701 223.494 336.458 222.877 338.091 222.052C339.675 221.257 341.237 220.208 342.351 218.808C342.913 218.098 341.905 217.109 341.327 217.823C339.421 220.209 336.197 221.693 333.248 222.249C331.522 222.573 329.744 222.279 328.004 222.291C325.981 222.309 323.869 222.613 322.225 223.887C321.438 224.49 320.802 225.285 320.001 225.868C319.328 226.358 318.562 226.631 317.752 226.778C316.077 227.079 314.352 226.86 312.661 226.988C310.96 227.11 309.314 227.574 308.082 228.813C306.759 230.135 306.068 231.943 304.561 233.098C302.843 234.426 300.751 234.861 298.619 234.578C297.575 234.442 296.416 234.185 295.379 234.477C294.929 234.604 294.519 234.849 294.131 235.113C293.769 235.353 293.405 235.674 292.946 235.657C292.011 235.621 292.021 237.037 292.932 237.073Z" fill="#231F20" stroke="black" stroke-width="2"/>
<path d="M252.947 209.205C256.724 208.854 258.662 205.283 259.857 202.099C260.474 200.458 261.028 198.769 262.018 197.306C263.025 195.813 264.554 194.791 266.222 194.15C268.183 193.395 270.28 193.064 272.352 192.763C272.733 192.705 272.931 192.227 272.843 191.887C272.737 191.479 272.35 191.345 271.967 191.396C268.476 191.901 264.686 192.555 262.044 195.092C259.452 197.583 259.067 201.252 257.368 204.261C256.435 205.927 254.967 207.597 252.942 207.779C252.034 207.865 252.036 209.283 252.947 209.205Z" fill="#231F20" stroke="black" stroke-width="2"/>
<path d="M270.1 177.52C271.588 176.266 273.89 176.55 275.004 178.142C276.212 179.87 275.368 182.054 274.779 183.85C273.633 187.352 272.188 191.117 273.65 194.752C274.354 196.5 275.579 197.915 277.372 198.578C278.232 198.895 278.574 197.517 277.731 197.203C276.147 196.619 275.164 195.088 274.731 193.523C274.207 191.635 274.483 189.708 274.991 187.854C275.953 184.33 278.925 179.194 275.191 176.305C273.353 174.876 270.836 175.067 269.091 176.531C268.382 177.121 269.405 178.106 270.1 177.52Z" fill="#231F20" stroke="black" stroke-width="2"/>
<path d="M283.73 168.755C286.093 169.573 287.971 171.575 288.679 173.971C288.934 174.848 290.301 174.462 290.046 173.585C289.197 170.686 286.936 168.363 284.089 167.381C283.729 167.255 283.315 167.542 283.227 167.891C283.119 168.287 283.362 168.632 283.73 168.755Z" fill="#231F20" stroke="black" stroke-width="2"/>
<path d="M293.379 170.392C290.147 170.922 288.373 174.642 288.218 177.605C288.18 178.362 288.253 179.168 288.526 179.878C288.667 180.236 289.004 180.481 289.403 180.369C289.741 180.274 290.035 179.85 289.894 179.493C289.83 179.324 289.774 179.153 289.73 178.971C289.712 178.879 289.692 178.779 289.675 178.687C289.647 178.532 289.678 178.726 289.66 178.577C289.622 178.182 289.621 177.777 289.647 177.38C289.709 176.593 289.941 175.716 290.27 174.958C290.944 173.406 292.087 172.021 293.77 171.75C294.151 171.691 294.357 171.212 294.261 170.873C294.134 170.479 293.758 170.326 293.379 170.392Z" fill="#231F20" stroke="black" stroke-width="2"/>
<path d="M288.286 177.846C286.129 179.403 284.921 181.852 284.637 184.47C284.297 187.607 285.41 190.724 286.917 193.422C287.361 194.222 288.574 193.491 288.13 192.691C286.797 190.293 285.81 187.595 286.023 184.81C286.188 182.606 287.198 180.375 289.017 179.059C289.751 178.528 289.028 177.313 288.286 177.846Z" fill="#231F20" stroke="black" stroke-width="2"/>
<path d="M245.921 196.248C245.724 194.227 245.93 192.166 246.776 190.306C247.539 188.639 248.713 187.221 250.113 186.057C251.651 184.78 253.512 183.728 255.442 183.209C256.708 182.868 258.023 182.757 259.326 182.86C259.924 182.911 260.543 183.093 261.131 182.879C261.684 182.682 261.956 182.208 262.141 181.686C262.94 179.425 265.313 178.724 267.449 178.187C268.334 177.962 267.949 176.594 267.064 176.819C265.058 177.328 262.811 178.018 261.533 179.757C261.227 180.167 261.018 180.607 260.847 181.093C260.75 181.38 260.753 181.509 260.459 181.559C260.113 181.625 259.57 181.453 259.213 181.424C257.89 181.335 256.547 181.462 255.259 181.784C251.371 182.75 247.554 185.61 245.726 189.198C244.623 191.383 244.248 193.824 244.487 196.255C244.595 197.157 246.014 197.155 245.921 196.248Z" fill="#231F20" stroke="black" stroke-width="2"/>
<path d="M294.372 170.576C294.138 168.338 295.128 166.324 296.793 164.865C298.108 163.716 300.073 162.748 301.854 162.993C302.747 163.114 303.116 161.745 302.212 161.618C299.9 161.297 297.602 162.325 295.867 163.796C293.905 165.468 292.688 167.968 292.96 170.576C293.046 171.484 294.465 171.482 294.372 170.576Z" fill="#231F20" stroke="black" stroke-width="2"/>
<path d="M289.337 194.815C290.976 194.385 292.827 194.764 294.116 195.885C295.5 197.085 296.173 199.012 295.838 200.818C295.668 201.709 297.044 202.075 297.213 201.176C297.639 198.891 296.884 196.411 295.101 194.862C293.427 193.411 291.089 192.886 288.952 193.447C288.078 193.685 288.454 195.048 289.337 194.815Z" fill="#231F20" stroke="black" stroke-width="2"/>
<path d="M278.936 199.693C281.367 200.119 282.607 202.706 281.4 204.87C280.873 205.822 280.192 206.744 280.296 207.89C280.395 208.99 281.075 209.99 282.086 210.443C282.914 210.818 283.612 209.584 282.777 209.211C281.727 208.736 281.489 207.66 281.992 206.683C282.565 205.58 283.216 204.667 283.299 203.378C283.466 200.947 281.671 198.752 279.291 198.336C278.4 198.165 278.039 199.532 278.936 199.693Z" fill="#231F20" stroke="black" stroke-width="2"/>
<path d="M263.737 207.091C264.72 207.268 265.739 207.459 266.596 207.996C267.572 208.613 267.665 209.69 268.086 210.666C268.938 212.624 270.752 214.084 272.836 214.543C273.727 214.738 274.085 213.363 273.195 213.168C272.185 212.95 271.271 212.47 270.529 211.738C269.745 210.969 269.362 210.072 269.023 209.04C268.675 207.978 268.046 207.158 267.061 206.624C266.15 206.127 265.113 205.9 264.096 205.716C263.199 205.555 262.838 206.922 263.737 207.091Z" fill="#231F20" stroke="black" stroke-width="2"/>
<path d="M249.611 209.287C245.839 209.717 242.044 211.07 239.824 214.332C237.968 217.069 237.899 220.795 240.189 223.312C241.364 224.603 242.96 225.086 244.647 225.26C246.251 225.424 248.173 225.337 249.447 226.519C250.15 227.172 250.174 228.034 250.287 228.926C250.398 229.779 250.641 230.586 251.05 231.347C251.868 232.868 253.26 234.066 254.785 234.844C256.159 235.544 257.772 236.03 259.309 236.189C260.937 236.355 262.573 235.943 264.135 235.502C265.014 235.255 264.631 233.895 263.75 234.135C262.48 234.493 261.174 234.836 259.841 234.798C258.704 234.762 257.559 234.411 256.496 234.038C255.047 233.53 253.66 232.607 252.742 231.365C252.298 230.768 251.972 230.098 251.791 229.37C251.586 228.528 251.65 227.634 251.331 226.815C250.772 225.408 249.394 224.604 247.985 224.238C246.393 223.827 244.705 224.027 243.127 223.547C240.198 222.653 239.224 219.108 240.272 216.468C241.769 212.713 245.887 211.123 249.619 210.696C250.516 210.597 250.513 209.179 249.611 209.287Z" fill="#231F20" stroke="black" stroke-width="2"/>
<path d="M242.995 211.564C241.517 208.737 240.037 205.358 241.059 202.134C241.912 199.461 244.543 197.487 247.327 197.351C248.238 197.305 248.229 195.888 247.317 195.934C243.973 196.098 240.959 198.326 239.791 201.461C238.437 205.119 240.09 209.058 241.774 212.298C242.203 213.101 243.416 212.37 242.995 211.564Z" fill="#231F20" stroke="black" stroke-width="2"/>
<path d="M314.259 165.424C316.485 169.266 315.808 174.233 313.272 177.754C311.943 179.597 309.984 180.733 308.413 182.327C306.757 184.018 305.893 186.362 306.808 188.659C307.817 191.205 310.575 192.561 313.221 191.905C314.109 191.687 313.723 190.32 312.836 190.537C310.598 191.087 308.349 189.669 307.915 187.407C307.466 185.067 309.216 183.39 310.864 182.042C312.524 180.682 314.053 179.343 315.147 177.469C316.227 175.632 316.854 173.541 317.001 171.415C317.163 169.083 316.652 166.721 315.474 164.701C315.013 163.898 313.799 164.629 314.259 165.424Z" fill="#231F20" stroke="black" stroke-width="2"/>
<path d="M316.859 173.646C320.754 170.342 326.713 170.48 330.418 173.986C332.166 175.642 333.23 177.776 333.605 180.144C333.995 182.621 333.889 185.181 333.634 187.67C333.376 190.152 332.926 192.614 332.308 195.027C332.079 195.91 333.453 196.269 333.683 195.385C334.949 190.438 335.767 185.025 335.006 179.935C334.204 174.614 329.9 170.304 324.469 169.855C321.348 169.599 318.221 170.651 315.845 172.666C315.143 173.254 316.174 174.236 316.859 173.646Z" fill="#231F20" stroke="black" stroke-width="2"/>
<path d="M342.958 218.085C346.606 213.992 347.322 207.756 344.715 202.935C344.577 203.282 344.442 203.636 344.297 203.985C346.809 203.229 348.985 201.512 350.256 199.2C351.57 196.81 351.771 193.955 351.23 191.318C350.229 186.442 346.288 181.867 341.034 181.815C338.302 181.79 335.666 182.97 334.056 185.2C333.527 185.941 334.767 186.63 335.289 185.891C336.484 184.232 338.511 183.337 340.52 183.241C342.655 183.134 344.69 183.907 346.286 185.314C349.589 188.228 351.123 193.497 349.422 197.651C348.449 200.041 346.369 201.869 343.91 202.61C343.453 202.747 343.271 203.252 343.492 203.661C345.79 207.903 345.14 213.48 341.93 217.085C341.331 217.781 342.348 218.768 342.958 218.085Z" fill="#231F20" stroke="black" stroke-width="2"/>
<path d="M345.027 204.444C347.633 204.366 350.193 205.364 352.085 207.159C354.198 209.159 355.334 212.01 355.425 214.895C355.454 215.804 356.873 215.801 356.842 214.886C356.743 211.629 355.452 208.4 353.07 206.135C350.922 204.096 347.989 202.927 345.022 203.017C344.106 203.048 344.116 204.465 345.027 204.444Z" fill="#231F20" stroke="black" stroke-width="2"/>
<path d="M354.647 209.859C356.745 210.168 358.826 209.865 360.746 208.967C361.09 208.806 361.166 208.298 360.982 207.992C360.769 207.639 360.359 207.592 360.007 207.756C358.466 208.474 356.682 208.734 354.998 208.486C354.618 208.431 354.234 208.596 354.136 208.997C354.046 209.339 354.266 209.804 354.647 209.859Z" fill="#231F20" stroke="black" stroke-width="2"/>
<path d="M344.226 234.07C348.774 232.91 350.731 227.768 349.327 223.532C349.103 223.831 348.871 224.131 348.649 224.437C354.391 224.782 360.095 221.625 362.89 216.604C363.33 215.807 362.095 215.109 361.657 215.914C359.094 220.521 353.905 223.345 348.649 223.026C348.195 223 347.835 223.507 347.971 223.931C349.13 227.44 347.665 231.738 343.845 232.717C342.955 232.927 343.341 234.295 344.226 234.07Z" fill="#231F20" stroke="black" stroke-width="2"/>
<path d="M286.438 234.633C288.401 236.246 290.938 237.104 293.484 236.93C293.866 236.904 294.191 236.617 294.192 236.22C294.187 235.856 293.864 235.485 293.482 235.511C291.31 235.661 289.112 234.999 287.43 233.608C287.135 233.366 286.704 233.334 286.429 233.622C286.171 233.889 286.141 234.385 286.438 234.633Z" fill="#231F20" stroke="black" stroke-width="2"/>
<path d="M289.979 236.061C288.508 238.122 288.468 241.061 289.816 243.195C290.301 243.967 291.521 243.233 291.029 242.464C289.934 240.737 290.004 238.454 291.214 236.759C291.433 236.445 291.251 235.97 290.943 235.797C290.574 235.585 290.199 235.747 289.979 236.061Z" fill="#231F20" stroke="black" stroke-width="2"/>
<path d="M276.282 231.148C276.192 232.122 276.337 233.128 276.682 234.036C276.75 234.22 276.847 234.363 277.02 234.46C277.175 234.546 277.395 234.581 277.559 234.527C277.9 234.415 278.188 234.025 278.05 233.651C277.964 233.432 277.893 233.208 277.837 232.981C277.809 232.883 277.789 232.783 277.771 232.691C277.76 232.621 277.743 232.561 277.731 232.492C277.726 232.444 277.723 232.291 277.729 232.484C277.724 232.266 277.68 232.052 277.676 231.834C277.667 231.601 277.683 231.37 277.698 231.138C277.733 230.772 277.34 230.412 276.988 230.43C276.574 230.457 276.323 230.747 276.282 231.148Z" fill="#231F20" stroke="black" stroke-width="2"/>
<path d="M240.2 225.246C237.254 230.018 241.152 235.562 245.024 238.364C248.721 241.037 253.675 242.414 258.16 241.175C261.004 240.39 263.317 238.554 265.047 236.201C265.586 235.465 264.347 234.784 263.814 235.51C262.454 237.361 260.614 238.861 258.426 239.616C256.482 240.285 254.367 240.378 252.348 240.007C248.344 239.269 244.525 236.939 242.223 233.549C240.712 231.323 239.926 228.389 241.435 225.945C241.921 225.167 240.679 224.471 240.2 225.246Z" fill="#231F20" stroke="black" stroke-width="2"/>
<path d="M240.288 225.79C236.841 223.777 234.264 220.416 233.272 216.551C232.303 212.793 232.892 208.669 234.844 205.321C235.325 204.496 235.906 203.708 236.18 202.779C236.468 201.757 236.238 200.711 236.173 199.675C236.052 197.779 236.272 195.884 236.806 194.063C237.91 190.297 240.374 187.039 243.714 184.963C245.453 183.881 247.374 183.129 249.386 182.756C250.418 182.563 251.514 182.538 252.374 181.849C253.114 181.251 253.465 180.366 253.909 179.552C255.608 176.429 258.57 174.045 261.92 172.898C263.621 172.314 265.401 172.039 267.195 172.133C268.248 172.186 269.257 172.283 270.138 171.58C270.852 171.006 271.262 170.16 271.767 169.418C273.665 166.628 276.531 164.507 279.674 163.313C282.857 162.092 286.394 161.719 289.743 162.438C290.58 162.616 291.404 162.863 292.205 163.172C293.025 163.492 293.828 164.012 294.736 164.04C295.677 164.067 296.395 163.451 297.194 163.064C297.865 162.737 298.579 162.479 299.305 162.323C299.832 162.207 300.629 162.071 301.086 162.454C301.79 163.026 302.785 162.007 302.071 161.43C300.821 160.42 299.052 160.821 297.672 161.332C296.842 161.638 296.131 162.082 295.347 162.465C294.484 162.887 293.514 162.179 292.711 161.861C289.371 160.54 285.655 160.363 282.157 161.105C278.685 161.848 275.398 163.537 272.832 166.003C272.193 166.613 271.608 167.273 271.078 167.982C270.53 168.712 270.118 169.582 269.503 170.25C268.746 171.072 267.581 170.711 266.591 170.706C265.657 170.702 264.726 170.794 263.813 170.953C260.145 171.606 256.674 173.622 254.297 176.498C253.687 177.238 253.138 178.025 252.678 178.868C252.202 179.74 251.882 180.763 250.851 181.078C249.821 181.393 248.712 181.43 247.673 181.714C246.664 181.99 245.675 182.366 244.732 182.819C241.024 184.569 237.975 187.651 236.316 191.403C235.506 193.221 235.002 195.147 234.825 197.135C234.734 198.11 234.725 199.085 234.813 200.058C234.911 201.182 235.072 202.159 234.512 203.192C234.04 204.08 233.458 204.893 233.027 205.809C232.601 206.716 232.253 207.665 231.992 208.639C231.469 210.611 231.301 212.694 231.532 214.722C231.998 218.792 234.03 222.607 237.134 225.276C237.906 225.943 238.745 226.533 239.621 227.049C240.386 227.49 241.074 226.25 240.288 225.79Z" fill="#231F20" stroke="black" stroke-width="2"/>
<path d="M250.89 196.47C253.774 195.795 256.861 196.044 259.589 197.206C259.94 197.358 260.351 197.291 260.551 196.935C260.723 196.627 260.629 196.118 260.28 195.973C257.185 194.663 253.78 194.35 250.499 195.112C249.615 195.312 249.998 196.672 250.89 196.47Z" fill="#231F20" stroke="black" stroke-width="2"/>
<path d="M252.7 191.35C252.825 192.856 253.417 194.238 254.406 195.387C254.647 195.668 255.172 195.633 255.407 195.373C255.676 195.062 255.648 194.672 255.393 194.371C255.379 194.351 255.208 194.147 255.294 194.253C255.255 194.199 255.215 194.145 255.176 194.092C255.083 193.964 254.998 193.834 254.912 193.703C254.835 193.571 254.755 193.432 254.684 193.297C254.652 193.241 254.626 193.176 254.594 193.12C254.574 193.077 254.556 193.042 254.535 192.999C254.562 193.064 254.562 193.064 254.542 193.021C254.429 192.737 254.334 192.455 254.259 192.16C254.224 192.008 254.189 191.855 254.162 191.701C254.125 191.484 254.177 191.843 254.148 191.624C254.14 191.537 254.129 191.442 254.121 191.356C254.089 190.983 253.812 190.632 253.411 190.647C253.047 190.653 252.662 190.956 252.7 191.35Z" fill="#231F20" stroke="black" stroke-width="2"/>
<path d="M349.785 199.972C351.651 199.227 353.776 199.285 355.571 200.215C356.379 200.636 357.077 199.401 356.262 198.982C354.155 197.897 351.61 197.73 349.401 198.612C349.044 198.753 348.798 199.09 348.91 199.489C349.003 199.819 349.427 200.113 349.785 199.972Z" fill="#231F20" stroke="black" stroke-width="2"/>
<path d="M355.037 199.326C355.658 197.991 356.401 196.711 357.263 195.511C357.477 195.208 357.303 194.705 356.992 194.55C356.615 194.364 356.255 194.498 356.03 194.821C355.168 196.02 354.426 197.3 353.804 198.635C353.647 198.971 353.718 199.422 354.075 199.597C354.389 199.76 354.869 199.681 355.037 199.326Z" fill="#231F20" stroke="black" stroke-width="2"/>
<path d="M272.671 168.597C275.41 166.69 278.922 166.69 282.026 167.632C282.903 167.895 283.254 166.523 282.384 166.257C278.944 165.215 274.97 165.273 271.94 167.384C271.194 167.902 271.917 169.117 272.671 168.597Z" fill="#231F20" stroke="black" stroke-width="2"/>
<path d="M311.426 186.687C311.757 188.783 312.693 190.726 314.069 192.325C314.32 192.611 314.826 192.566 315.07 192.31C315.359 192.01 315.299 191.597 315.056 191.309C313.837 189.892 313.077 188.144 312.788 186.311C312.729 185.93 312.249 185.725 311.911 185.82C311.511 185.925 311.367 186.306 311.426 186.687Z" fill="#231F20" stroke="black" stroke-width="2"/>
<path d="M302.326 162.679C305.615 159.068 312.147 160.634 314.06 164.92C314.431 165.748 315.642 165.01 315.273 164.189C312.994 159.065 305.164 157.468 301.312 161.7C300.689 162.37 301.713 163.355 302.326 162.679Z" fill="#231F20" stroke="black" stroke-width="2"/>
<path d="M315.087 165.369C317.868 163.669 321.26 163.07 324.456 163.735C327.635 164.396 330.437 166.307 332.27 168.986C333.304 170.495 333.996 172.174 334.331 173.969C334.424 174.47 334.998 174.551 335.382 174.387C338.714 172.888 342.838 173.851 345.5 176.247C348.556 179.004 349.701 183.296 349.27 187.294C349.237 187.579 349.522 187.928 349.804 187.979C353.292 188.585 356.02 191.791 355.991 195.343C355.988 195.766 356.457 196.193 356.895 196.021C359.616 194.938 361.012 198.916 361.661 200.785C362.418 202.956 362.845 206.023 360.678 207.575C360.172 207.936 360.271 208.663 360.865 208.868C362.353 209.374 363.521 210.812 363.621 212.406C363.723 213.975 362.869 215.465 361.521 216.234C361.158 216.442 361.027 217.071 361.397 217.348C363.965 219.325 362.161 222.883 360.765 224.979C359.159 227.395 356.739 229.715 353.677 229.815C352.769 229.844 352.771 231.263 353.687 231.232C357.367 231.111 360.214 228.435 362.114 225.507C363.049 224.076 363.883 222.487 364.072 220.771C364.253 219.138 363.725 217.349 362.382 216.324C362.339 216.693 362.299 217.069 362.257 217.438C364.058 216.403 365.229 214.313 365.029 212.221C364.816 210.026 363.286 208.194 361.221 207.486C361.285 207.915 361.351 208.35 361.407 208.78C364.216 206.772 364.004 203.085 362.95 200.179C362.39 198.625 361.771 196.918 360.592 195.726C359.556 194.671 357.931 194.083 356.508 194.646C356.806 194.87 357.107 195.102 357.413 195.324C357.437 191.18 354.254 187.309 350.158 186.589C350.335 186.815 350.513 187.041 350.692 187.274C351.072 183.761 350.275 180.011 348.18 177.122C346.226 174.421 343.25 172.664 339.921 172.305C338.106 172.11 336.31 172.414 334.646 173.158C334.993 173.296 335.347 173.431 335.696 173.576C335.045 170.086 333.013 166.903 330.17 164.785C327.283 162.63 323.617 161.708 320.047 162.163C318.028 162.423 316.089 163.083 314.346 164.15C313.574 164.635 314.306 165.849 315.087 165.369Z" fill="#231F20" stroke="black" stroke-width="2"/>
<path d="M239.356 254.633C242.854 253.648 244.891 250.013 243.905 246.515C242.92 243.016 239.285 240.98 235.787 241.965C232.288 242.951 230.252 246.586 231.237 250.084C232.223 253.582 235.858 255.619 239.356 254.633Z" fill="#FF5F76"/>
<path d="M370.105 179.755C373.603 178.769 375.64 175.134 374.654 171.636C373.668 168.138 370.033 166.101 366.535 167.087C363.037 168.072 361 171.707 361.986 175.206C362.972 178.704 366.607 180.741 370.105 179.755Z" fill="#FF5F76"/>
<path d="M231.423 230.771C233.307 230.24 234.404 228.283 233.873 226.399C233.343 224.515 231.385 223.418 229.501 223.949C227.617 224.48 226.52 226.437 227.051 228.321C227.582 230.205 229.539 231.302 231.423 230.771Z" fill="#FF5F76"/>
<path d="M251.678 257.666C253.562 257.135 254.659 255.177 254.128 253.293C253.597 251.409 251.64 250.313 249.756 250.843C247.872 251.374 246.775 253.332 247.306 255.216C247.837 257.1 249.794 258.197 251.678 257.666Z" fill="#FF5F76"/>
<path d="M354.107 169.03C355.991 168.499 357.087 166.542 356.557 164.658C356.026 162.774 354.068 161.677 352.184 162.208C350.3 162.739 349.203 164.696 349.734 166.58C350.265 168.464 352.223 169.561 354.107 169.03Z" fill="#FF5F76"/>
<path d="M364.667 194.734C366.551 194.204 367.647 192.246 367.117 190.362C366.586 188.478 364.628 187.381 362.744 187.912C360.86 188.443 359.763 190.401 360.294 192.285C360.825 194.168 362.783 195.265 364.667 194.734Z" fill="#FF5F76"/>
<path fill-rule="evenodd" clip-rule="evenodd" d="M237.256 264.87C236.88 343.001 175.323 430.238 175.323 430.238C175.323 430.238 129.693 481.383 102.114 501.817C102.114 501.817 70.9006 529.646 129.191 552.962C129.191 552.962 177.454 569.384 217.693 543.936C217.693 543.936 221.454 602.227 290.275 612.381C328.007 617.897 363.984 608.746 391.563 571.013C391.563 571.013 506.264 603.355 520.429 517.988C527.7 474.238 485.079 410.808 485.079 410.808C427.527 320.641 369.496 277.285 328.415 256.485L315.82 271.752C315.015 272.727 313.518 272.72 312.723 271.737L304.662 261.78C304.052 261.026 302.989 260.819 302.14 261.288L281.215 272.852C280.385 273.31 279.347 273.123 278.729 272.403L269.85 262.044C269.116 261.187 267.817 261.107 266.983 261.869L255.757 272.119C254.871 272.928 253.478 272.78 252.781 271.805L245.756 261.97C245.152 261.125 244.004 260.882 243.111 261.41L237.256 264.87Z" fill="#7EB9FF"/>
<path d="M467.278 523.89C467.278 523.89 504.759 527.776 519.677 521.383C519.677 521.383 512.908 598.853 391.437 571.024C391.437 571.024 328.007 655.64 236.998 586.318C236.998 586.318 311.334 634.454 383.54 546.078C383.54 546.203 455.118 559.867 467.278 523.89Z" fill="#005EEB"/>
<path d="M210.504 423.444C210.504 423.444 163.793 436.73 100.102 396.707C100.102 396.707 65.0213 374.609 77.2081 403.218C77.2081 403.218 102.643 480.987 186.553 457.04" fill="#7EB9FF"/>
<path d="M188.012 460.434C189.654 459.726 190.543 457.872 190.032 456.084C189.474 454.184 187.431 453.056 185.582 453.584C152.191 463.143 124.425 457.432 103.186 436.736C87.1378 421.164 80.8457 402.328 80.7971 402.215C80.7485 402.103 80.6999 401.99 80.6513 401.877C77.395 394.313 78.5999 392.59 78.5999 392.59C80.1087 391.271 89.2661 394.154 98.3492 399.878C162.722 440.276 209.566 427.602 211.634 426.98C213.483 426.451 214.542 424.389 213.984 422.489C213.425 420.588 211.382 419.461 209.533 419.989C208.937 420.112 163.406 432.22 102.062 393.73C97.1005 390.647 80.624 381.013 73.8588 387.004C68.6024 391.675 72.5755 401.205 74.0335 404.592C74.6894 406.718 81.5166 425.591 98.1239 441.859C114.221 457.544 142.76 473.492 187.732 460.688C187.793 460.528 187.902 460.481 188.012 460.434Z" fill="black"/>
<path d="M458.96 424.693C458.96 424.693 504.883 443.386 573.27 410.827C573.27 410.827 610.942 392.841 595.777 419.988C595.777 419.988 562.334 494.68 479.849 461.019" fill="#7EB9FF"/>
<path d="M478.036 464.241C476.445 463.344 475.731 461.389 476.424 459.663C477.178 457.831 479.356 456.942 481.173 457.685C513.995 471.108 542.642 468.634 566.177 450.437C583.953 436.755 592.186 418.68 592.246 418.573C592.307 418.466 592.367 418.359 592.427 418.252C596.471 411.078 595.424 409.218 595.424 409.218C594.029 407.726 584.481 409.539 574.727 414.199C505.614 447.054 459.495 428.956 457.466 428.094C455.648 427.351 454.782 425.17 455.536 423.337C456.289 421.504 458.467 420.616 460.285 421.358C460.875 421.55 505.721 438.931 571.583 407.629C576.906 405.128 594.526 397.424 600.773 404.191C605.626 409.466 600.662 418.52 598.851 421.732C597.976 423.779 589.198 441.828 570.788 456.141C552.951 469.931 522.505 482.538 478.294 464.527C478.248 464.36 478.142 464.3 478.036 464.241Z" fill="black"/>
<path d="M326.172 440.36C360.951 440.36 388.216 404.99 388.216 362.646C388.216 320.302 360.951 284.932 326.172 284.932C291.393 284.932 264.128 320.302 264.128 362.646C264.128 404.99 291.393 440.36 326.172 440.36Z" fill="#4E4E4E" stroke="black" stroke-width="5"/>
<path d="M211.382 408.917C214.887 409.551 218.151 407.682 220.866 404.996C223.641 402.25 226.322 398.2 228.808 393.275C233.795 383.394 238.259 369.456 241.093 353.788C243.927 338.121 244.629 323.502 243.42 312.501C242.817 307.016 241.724 302.284 240.087 298.739C238.485 295.272 236.083 292.378 232.578 291.744C229.074 291.111 225.81 292.979 223.095 295.666C220.319 298.412 217.638 302.462 215.152 307.387C210.165 317.268 205.701 331.206 202.867 346.873C200.033 362.541 199.331 377.159 200.541 388.161C201.143 393.645 202.236 398.378 203.874 401.922C205.475 405.39 207.878 408.283 211.382 408.917Z" fill="#4E4E4E" stroke="black" stroke-width="5"/>
<ellipse cx="333.693" cy="362.646" rx="52.023" ry="75.214" fill="black"/>
<ellipse cx="224.447" cy="350.777" rx="14.416" ry="57.0372" transform="rotate(10.2536 224.447 350.777)" fill="black"/>
<mask id="path-63-outside-1_2591_502" maskUnits="userSpaceOnUse" x="94.9034" y="286.192" width="114" height="96" fill="black">
<rect fill="white" x="94.9034" y="286.192" width="114" height="96"/>
<path fill-rule="evenodd" clip-rule="evenodd" d="M164.507 362.15C157.734 370.915 147.868 376.435 136.884 376.435C116.46 376.435 99.9034 357.352 99.9034 333.813C99.9034 310.274 116.46 291.192 136.884 291.192C155.849 291.192 171.48 307.647 173.615 328.846C175.211 331.399 177.34 333.509 180.132 334.439C181.648 334.945 183.191 335.374 184.712 335.737C186.132 336.075 186.202 339.695 184.762 339.935C183.544 340.138 183.402 341.836 184.567 342.241C191.64 344.701 201.069 348.042 202.696 348.855C205.203 350.109 202.696 353.869 190.787 353.243C185.13 352.945 180.52 352.927 177.27 353.005C175.701 353.043 175.188 354.961 176.493 355.831C177.769 356.682 177.322 358.67 175.808 358.913C173.157 359.339 170.409 359.826 169.476 360.137C168.933 360.318 167.014 361.103 164.507 362.15Z"/>
</mask>
<path fill-rule="evenodd" clip-rule="evenodd" d="M164.507 362.15C157.734 370.915 147.868 376.435 136.884 376.435C116.46 376.435 99.9034 357.352 99.9034 333.813C99.9034 310.274 116.46 291.192 136.884 291.192C155.849 291.192 171.48 307.647 173.615 328.846C175.211 331.399 177.34 333.509 180.132 334.439C181.648 334.945 183.191 335.374 184.712 335.737C186.132 336.075 186.202 339.695 184.762 339.935C183.544 340.138 183.402 341.836 184.567 342.241C191.64 344.701 201.069 348.042 202.696 348.855C205.203 350.109 202.696 353.869 190.787 353.243C185.13 352.945 180.52 352.927 177.27 353.005C175.701 353.043 175.188 354.961 176.493 355.831C177.769 356.682 177.322 358.67 175.808 358.913C173.157 359.339 170.409 359.826 169.476 360.137C168.933 360.318 167.014 361.103 164.507 362.15Z" fill="#82A6B8"/>
<path d="M164.507 362.15L162.58 357.537C161.78 357.871 161.081 358.407 160.551 359.093L164.507 362.15ZM173.615 328.846L168.64 329.347C168.717 330.11 168.969 330.846 169.375 331.496L173.615 328.846ZM180.132 334.439L181.713 329.696V329.696L180.132 334.439ZM184.712 335.737L183.552 340.6L184.712 335.737ZM184.762 339.935L185.584 344.867H185.584L184.762 339.935ZM184.567 342.241L182.925 346.964V346.964L184.567 342.241ZM190.787 353.243L191.05 348.249L190.787 353.243ZM177.27 353.005L177.39 358.004H177.39L177.27 353.005ZM176.493 355.831L173.719 359.991H173.719L176.493 355.831ZM175.808 358.913L176.6 363.85H176.6L175.808 358.913ZM169.476 360.137L171.057 364.881L169.476 360.137ZM160.551 359.093C154.587 366.811 146.107 371.435 136.884 371.435V381.435C149.63 381.435 160.882 375.018 168.464 365.208L160.551 359.093ZM136.884 371.435C119.864 371.435 104.903 355.281 104.903 333.813H94.9034C94.9034 359.424 113.056 381.435 136.884 381.435V371.435ZM104.903 333.813C104.903 312.346 119.864 296.192 136.884 296.192V286.192C113.056 286.192 94.9034 308.203 94.9034 333.813H104.903ZM136.884 296.192C152.706 296.192 166.701 310.086 168.64 329.347L178.59 328.345C176.26 305.209 158.993 286.192 136.884 286.192V296.192ZM181.713 329.696C180.398 329.258 179.083 328.159 177.855 326.196L169.375 331.496C171.34 334.638 174.283 337.76 178.55 339.182L181.713 329.696ZM185.872 330.873C184.472 330.539 183.072 330.149 181.713 329.696L178.55 339.182C180.224 339.74 181.909 340.208 183.552 340.6L185.872 330.873ZM185.584 344.867C188.201 344.431 189.552 342.516 190.105 341.312C190.67 340.082 190.824 338.813 190.809 337.797C190.793 336.769 190.597 335.545 190.046 334.374C189.528 333.273 188.298 331.452 185.872 330.873L183.552 340.6C181.836 340.191 181.147 338.949 180.996 338.629C180.813 338.24 180.811 338 180.81 337.949C180.809 337.91 180.8 337.612 181.017 337.139C181.223 336.692 182.042 335.319 183.94 335.003L185.584 344.867ZM186.21 337.519C189.917 338.808 189.494 344.215 185.584 344.867L183.94 335.003C177.595 336.061 176.886 344.864 182.925 346.964L186.21 337.519ZM204.932 344.383C203.785 343.809 200.652 342.647 197.373 341.463C193.901 340.209 189.755 338.751 186.21 337.519L182.925 346.964C186.453 348.191 190.557 349.634 193.975 350.868C195.686 351.486 197.207 352.046 198.392 352.497C198.985 352.723 199.475 352.915 199.854 353.069C200.043 353.146 200.193 353.209 200.305 353.258C200.426 353.311 200.469 353.332 200.46 353.327L204.932 344.383ZM190.524 358.236C196.796 358.566 201.559 357.83 204.608 356.107C206.014 355.312 208.148 353.659 208.524 350.812C208.973 347.416 206.672 345.253 204.932 344.383L200.46 353.327C199.973 353.084 198.299 351.861 198.61 349.503C198.849 347.694 200.082 347.178 199.687 347.401C199.131 347.715 196.686 348.546 191.05 348.249L190.524 358.236ZM177.39 358.004C180.513 357.929 184.996 357.945 190.524 358.236L191.05 348.249C185.264 347.945 180.526 347.925 177.149 348.007L177.39 358.004ZM179.266 351.671C180.455 352.463 181.015 353.996 180.628 355.419C180.232 356.877 178.901 357.967 177.39 358.004L177.149 348.007C174.07 348.081 171.698 350.15 170.979 352.793C170.269 355.402 171.226 358.329 173.719 359.991L179.266 351.671ZM176.6 363.85C182.513 362.902 184.403 355.095 179.266 351.671L173.719 359.991C171.135 358.268 172.131 354.439 175.016 353.976L176.6 363.85ZM171.057 364.881C171.038 364.887 171.18 364.843 171.576 364.754C171.932 364.675 172.387 364.583 172.924 364.482C173.996 364.28 175.296 364.059 176.6 363.85L175.016 353.976C173.669 354.193 172.27 354.429 171.072 354.655C169.997 354.857 168.738 355.113 167.895 355.394L171.057 364.881ZM166.435 366.764C167.682 366.243 168.771 365.792 169.61 365.451C170.03 365.281 170.376 365.142 170.642 365.038C170.775 364.986 170.88 364.946 170.959 364.917C171.045 364.885 171.071 364.876 171.057 364.881L167.895 355.394C167.127 355.65 164.973 356.537 162.58 357.537L166.435 366.764Z" fill="black" mask="url(#path-63-outside-1_2591_502)"/>
<ellipse cx="133.75" cy="333.813" rx="33.8463" ry="42.6212" fill="#C7EFFF"/>
<ellipse cx="119.774" cy="337.363" rx="13.4675" ry="25.5473" transform="rotate(-9.16196 119.774 337.363)" fill="black"/>
<path d="M83.7057 356.325C86.5233 355.87 88.1051 353.219 88.856 350.64C89.6537 347.9 89.8021 344.411 89.2177 340.787C88.6333 337.163 87.3954 333.898 85.7767 331.548C84.2529 329.335 81.918 327.316 79.1003 327.77C76.2827 328.225 74.701 330.876 73.95 333.455C73.1523 336.195 73.0039 339.684 73.5883 343.308C74.1728 346.931 75.4106 350.197 77.0293 352.547C78.5531 354.76 80.888 356.779 83.7057 356.325Z" fill="#1ECDFD" stroke="black" stroke-width="4"/>
<path d="M182.397 498.116L182.409 498.118C188.135 499.296 194.105 498.096 198.941 494.911C201.078 493.503 202.915 491.759 204.272 489.725C213.783 476.78 233.8 442.147 212.894 399.243C208.99 391.077 200.212 386.462 191.297 387.253L191.278 387.255L191.259 387.257C164.403 389.99 97.0646 397.947 56.8982 413.551L56.8328 413.576L56.7686 413.605C56.026 413.934 54.983 414.416 54.0973 415C49.8852 417.774 47.519 422.55 47.5363 427.579L47.5365 427.645L47.5396 427.712C47.7815 432.794 50.3821 437.382 54.7185 440.062L54.7309 440.07L54.7434 440.078C66.5912 447.242 87.448 459.416 110.829 470.955C134.165 482.471 160.213 493.455 182.397 498.116Z" fill="#FFB6E9" stroke="black" stroke-width="6"/>
<path d="M195.41 403.668C195.216 400.397 190.875 397.994 185.715 398.3C180.554 398.607 176.528 401.507 176.722 404.778C176.917 408.048 181.258 410.451 186.418 410.145C191.579 409.838 195.605 406.938 195.41 403.668Z" fill="black"/>
<mask id="path-70-outside-2_2591_502" maskUnits="userSpaceOnUse" x="180.404" y="282.428" width="184" height="153" fill="black">
<rect fill="white" x="180.404" y="282.428" width="184" height="153"/>
<path fill-rule="evenodd" clip-rule="evenodd" d="M293.709 406.39C282.354 421.082 265.814 430.335 247.4 430.335C213.16 430.335 185.404 398.344 185.404 358.882C185.404 319.419 213.16 287.428 247.4 287.428C279.196 287.428 305.401 315.015 308.98 350.555C311.655 354.835 315.225 358.372 319.904 359.932C322.447 360.779 325.032 361.499 327.583 362.107C329.964 362.675 330.08 368.744 327.666 369.146C325.626 369.486 325.386 372.332 327.34 373.012C339.198 377.136 355.006 382.737 357.732 384.1C361.935 386.201 357.732 392.506 337.767 391.455C326.899 390.883 318.334 390.928 312.866 391.125C310.99 391.192 310.38 393.512 311.942 394.554L315.548 396.958C317.076 397.976 316.541 400.354 314.727 400.635C309.735 401.411 303.85 402.411 302.041 403.014C301.131 403.317 297.912 404.634 293.709 406.39Z"/>
</mask>
<path fill-rule="evenodd" clip-rule="evenodd" d="M293.709 406.39C282.354 421.082 265.814 430.335 247.4 430.335C213.16 430.335 185.404 398.344 185.404 358.882C185.404 319.419 213.16 287.428 247.4 287.428C279.196 287.428 305.401 315.015 308.98 350.555C311.655 354.835 315.225 358.372 319.904 359.932C322.447 360.779 325.032 361.499 327.583 362.107C329.964 362.675 330.08 368.744 327.666 369.146C325.626 369.486 325.386 372.332 327.34 373.012C339.198 377.136 355.006 382.737 357.732 384.1C361.935 386.201 357.732 392.506 337.767 391.455C326.899 390.883 318.334 390.928 312.866 391.125C310.99 391.192 310.38 393.512 311.942 394.554L315.548 396.958C317.076 397.976 316.541 400.354 314.727 400.635C309.735 401.411 303.85 402.411 302.041 403.014C301.131 403.317 297.912 404.634 293.709 406.39Z" fill="#82A6B8"/>
<path d="M293.709 406.39L291.781 401.776C290.982 402.11 290.283 402.646 289.753 403.332L293.709 406.39ZM308.98 350.555L304.005 351.056C304.082 351.819 304.333 352.554 304.74 353.205L308.98 350.555ZM319.904 359.932L321.485 355.188H321.485L319.904 359.932ZM327.583 362.107L328.743 357.244H328.743L327.583 362.107ZM327.666 369.146L326.844 364.214H326.844L327.666 369.146ZM327.34 373.012L325.698 377.734L327.34 373.012ZM357.732 384.1L359.968 379.628V379.628L357.732 384.1ZM337.767 391.455L337.505 396.448H337.505L337.767 391.455ZM312.866 391.125L313.046 396.121H313.046L312.866 391.125ZM311.942 394.554L309.169 398.714L309.169 398.714L311.942 394.554ZM315.548 396.958L318.322 392.798V392.798L315.548 396.958ZM314.727 400.635L315.495 405.576H315.495L314.727 400.635ZM302.041 403.014L303.622 407.757L303.622 407.757L302.041 403.014ZM289.753 403.332C279.206 416.978 264.053 425.335 247.4 425.335V435.335C267.576 435.335 285.502 425.185 297.665 409.447L289.753 403.332ZM247.4 425.335C216.565 425.335 190.404 396.273 190.404 358.882H180.404C180.404 400.416 209.756 435.335 247.4 435.335V425.335ZM190.404 358.882C190.404 321.491 216.565 292.428 247.4 292.428V282.428C209.756 282.428 180.404 317.348 180.404 358.882H190.404ZM247.4 292.428C276.052 292.428 300.621 317.454 304.005 351.056L313.954 350.054C310.18 312.577 282.339 282.428 247.4 282.428V292.428ZM321.485 355.188C318.283 354.121 315.526 351.595 313.219 347.905L304.74 353.205C307.783 358.074 312.167 362.623 318.323 364.675L321.485 355.188ZM328.743 357.244C326.314 356.664 323.871 355.984 321.485 355.188L318.323 364.675C321.023 365.575 323.751 366.333 326.423 366.971L328.743 357.244ZM328.488 374.078C331.349 373.601 332.88 371.503 333.55 370.043C334.233 368.557 334.443 366.96 334.422 365.612C334.401 364.254 334.14 362.698 333.465 361.263C332.823 359.897 331.41 357.88 328.743 357.244L326.423 366.971C324.947 366.619 324.441 365.573 324.415 365.518C324.356 365.392 324.419 365.485 324.423 365.765C324.428 366.056 324.363 366.087 324.463 365.87C324.551 365.678 325.19 364.49 326.844 364.214L328.488 374.078ZM328.983 368.289C331.902 369.304 331.575 373.563 328.488 374.078L326.844 364.214C319.676 365.409 318.871 375.36 325.698 377.734L328.983 368.289ZM359.968 379.628C358.271 378.779 353.268 376.915 347.659 374.889C341.857 372.793 334.92 370.354 328.983 368.289L325.698 377.734C331.618 379.793 338.514 382.217 344.262 384.294C350.202 386.44 354.467 388.057 355.496 388.572L359.968 379.628ZM337.505 396.448C347.805 396.991 355.006 395.724 359.273 393.313C361.289 392.173 363.728 390.136 364.15 386.938C364.645 383.191 362.133 380.71 359.968 379.628L355.496 388.572C355.433 388.54 353.971 387.636 354.237 385.629C354.429 384.171 355.357 384.039 354.353 384.607C352.578 385.61 347.695 386.971 338.03 386.462L337.505 396.448ZM313.046 396.121C318.365 395.93 326.782 395.884 337.505 396.448L338.03 386.462C327.016 385.883 318.303 385.925 312.686 386.128L313.046 396.121ZM314.716 390.394C315.792 391.111 316.283 392.501 315.946 393.763C315.601 395.056 314.419 396.072 313.046 396.121L312.686 386.128C305.629 386.382 303.843 395.163 309.169 398.714L314.716 390.394ZM318.322 392.798L314.716 390.394L309.169 398.714L312.775 401.118L318.322 392.798ZM315.495 405.576C321.752 404.604 323.696 396.38 318.322 392.798L312.775 401.118C310.456 399.572 311.331 396.103 313.959 395.695L315.495 405.576ZM303.622 407.757C304.125 407.59 305.675 407.247 308.085 406.809C310.347 406.397 313.019 405.961 315.495 405.576L313.959 395.695C311.443 396.086 308.677 396.537 306.296 396.97C304.063 397.376 301.766 397.835 300.46 398.271L303.622 407.757ZM295.636 411.003C299.953 409.199 302.937 407.986 303.622 407.757L300.46 398.271C299.324 398.649 295.871 400.068 291.781 401.776L295.636 411.003Z" fill="black" mask="url(#path-70-outside-2_2591_502)"/>
<ellipse cx="242.146" cy="358.882" rx="56.7423" ry="71.4532" fill="#C7EFFF"/>
<ellipse cx="218.716" cy="364.833" rx="22.5779" ry="42.8293" transform="rotate(-9.16196 218.716 364.833)" fill="black"/>
<path d="M171.822 392.404C175.731 391.773 178.15 388.032 179.373 383.831C180.643 379.469 180.898 373.828 179.943 367.907C178.988 361.985 176.972 356.71 174.396 352.969C171.914 349.366 168.441 346.574 164.533 347.204C160.624 347.835 158.205 351.577 156.982 355.777C155.712 360.139 155.457 365.78 156.412 371.702C157.367 377.624 159.383 382.898 161.959 386.639C164.441 390.243 167.914 393.034 171.822 392.404Z" fill="#1ECDFD" stroke="black" stroke-width="4"/>
<g style="mix-blend-mode:multiply" filter="url(#filter0_f_2591_502)">
<circle cx="445.175" cy="466.049" r="132.115" fill="#00C2FF" fill-opacity="0.39"/>
</g>
</g>
<defs>
<filter id="filter0_f_2591_502" x="128.061" y="148.934" width="634.229" height="634.229" filterUnits="userSpaceOnUse" color-interpolation-filters="sRGB">
<feFlood flood-opacity="0" result="BackgroundImageFix"/>
<feBlend mode="normal" in="SourceGraphic" in2="BackgroundImageFix" result="shape"/>
<feGaussianBlur stdDeviation="92.5" result="effect1_foregroundBlur_2591_502"/>
</filter>
<clipPath id="clip0_2591_502">
<rect width="649" height="618" fill="white"/>
</clipPath>
</defs>
</svg>
