<svg width="987" height="680" viewBox="0 0 987 680" fill="none" xmlns="http://www.w3.org/2000/svg">
<path d="M948.5 455V654.5H43.5V455C43.5 205.091 246.091 2.5 496 2.5C745.909 2.5 948.5 205.091 948.5 455Z" fill="#EFF8FF" stroke="black" stroke-width="5"/>
<path d="M71 446.5C71 211.503 261.503 21 496.5 21V21C731.497 21 922 211.503 922 446.5V657H71V446.5Z" fill="black" fill-opacity="0.44"/>
<path d="M919.5 446.5V654.5H73.5V446.5C73.5 212.884 262.884 23.5 496.5 23.5C730.116 23.5 919.5 212.884 919.5 446.5Z" stroke="#0343BF" stroke-opacity="0.5" stroke-width="5"/>
<path d="M104 438.5C104 221.728 279.728 46 496.5 46V46C713.272 46 889 221.728 889 438.5V632H104V438.5Z" fill="black" fill-opacity="0.44"/>
<path d="M886.5 438.5V629.5H106.5V438.5C106.5 223.109 281.109 48.5 496.5 48.5C711.891 48.5 886.5 223.109 886.5 438.5Z" stroke="#0343BF" stroke-opacity="0.4" stroke-width="5"/>
<path d="M140 429.5C140 232.611 299.61 73 496.5 73V73C693.389 73 853 232.611 853 429.5V605H140V429.5Z" fill="black" fill-opacity="0.44"/>
<path d="M850.5 429.5V602.5H142.5V429.5C142.5 233.991 300.991 75.5 496.5 75.5C692.009 75.5 850.5 233.991 850.5 429.5Z" stroke="#0343BF" stroke-opacity="0.3" stroke-width="5"/>
<path d="M176 420.5C176 243.493 319.493 100 496.5 100V100C673.507 100 817 243.493 817 420.5V578H176V420.5Z" fill="black" fill-opacity="0.44"/>
<path d="M814.5 420.5V575.5H178.5V420.5C178.5 244.873 320.873 102.5 496.5 102.5C672.127 102.5 814.5 244.873 814.5 420.5Z" stroke="#0343BF" stroke-opacity="0.2" stroke-width="5"/>
<path d="M211 411.5C211 253.823 338.823 126 496.5 126V126C654.177 126 782 253.823 782 411.5V552H211V411.5Z" fill="black" fill-opacity="0.44"/>
<path d="M779.5 411.5V549.5H213.5V411.5C213.5 255.203 340.203 128.5 496.5 128.5C652.797 128.5 779.5 255.203 779.5 411.5Z" stroke="#0343BF" stroke-opacity="0.1" stroke-width="5"/>
<path d="M254 400.5C254 266.571 362.571 158 496.5 158V158C630.429 158 739 266.571 739 400.5V520H254V400.5Z" fill="black" fill-opacity="0.44"/>
<path d="M736.5 400.5V517.5H256.5V400.5C256.5 267.952 363.952 160.5 496.5 160.5C629.048 160.5 736.5 267.952 736.5 400.5Z" stroke="#0343BF" stroke-opacity="0.1" stroke-width="5"/>
<path d="M297 389.5C297 279.319 386.319 190 496.5 190V190C606.681 190 696 279.319 696 389.5V488H297V389.5Z" fill="black" fill-opacity="0.44"/>
<path d="M693.5 389.5V485.5H299.5V389.5C299.5 280.7 387.7 192.5 496.5 192.5C605.3 192.5 693.5 280.7 693.5 389.5Z" stroke="#0343BF" stroke-opacity="0.05" stroke-width="5"/>
<path d="M579.594 83.7642L528.953 65.6887C527.722 65.2497 526.408 66.0883 526.289 67.3889L503.753 312.089C503.534 314.467 506.914 315.159 507.648 312.887L580.824 86.2624C581.157 85.2338 580.611 84.1275 579.594 83.7642Z" fill="url(#paint0_linear_169_612)"/>
<path d="M488.925 59.9639L435.182 61.673C433.876 61.7145 432.96 62.9758 433.325 64.23L501.895 300.205C502.561 302.498 505.96 301.905 505.811 299.522L490.984 61.8383C490.917 60.7596 490.005 59.9295 488.925 59.9639Z" fill="url(#paint1_linear_169_612)"/>
<path d="M414.824 83.291L364.099 101.128C362.867 101.562 362.374 103.04 363.099 104.126L499.642 308.435C500.969 310.42 504.031 308.831 503.17 306.603L417.353 84.4571C416.964 83.4489 415.844 82.9325 414.824 83.291Z" fill="url(#paint2_linear_169_612)"/>
<path fill-rule="evenodd" clip-rule="evenodd" d="M439.221 241.575C438.786 331.808 367.695 432.557 367.695 432.557C367.695 432.557 314.998 491.624 283.148 515.221C283.148 515.221 247.1 547.361 314.419 574.288C314.419 574.288 370.156 593.254 416.628 563.865C416.628 563.865 420.971 631.184 500.451 642.91C544.027 649.28 585.577 638.712 617.427 595.136C617.427 595.136 749.893 632.487 766.252 533.897C774.649 483.371 725.427 410.117 725.427 410.117C658.961 305.984 591.942 255.914 544.498 231.893L529.712 249.815C528.907 250.79 527.41 250.784 526.614 249.801L516.903 237.805C516.293 237.051 515.23 236.843 514.381 237.313L489.768 250.915C488.937 251.374 487.899 251.186 487.282 250.466L476.655 238.069C475.921 237.211 474.622 237.132 473.788 237.893L460.329 250.182C459.443 250.991 458.05 250.844 457.353 249.868L448.872 237.994C448.269 237.15 447.12 236.907 446.227 237.435L439.221 241.575Z" fill="#7EB9FF"/>
<path d="M704.868 540.709C704.868 540.709 748.155 545.197 765.383 537.813C765.383 537.813 757.566 627.283 617.281 595.143C617.281 595.143 544.027 692.864 438.922 612.805C438.922 612.805 524.772 668.398 608.161 566.334C608.161 566.478 690.826 582.258 704.868 540.709Z" fill="#005EEB"/>
<path d="M379.372 449.312C379.372 449.312 325.426 464.655 251.87 418.434C251.87 418.434 211.356 392.914 225.43 425.953C225.43 425.953 254.804 515.768 351.711 488.111" fill="#7EB9FF"/>
<path d="M353.395 492.03C355.292 491.214 356.318 489.072 355.729 487.007C355.084 484.813 352.725 483.51 350.59 484.12C312.026 495.159 279.961 488.564 255.432 464.662C236.898 446.678 229.632 424.926 229.575 424.795C229.519 424.665 229.463 424.535 229.407 424.404C225.646 415.669 227.038 413.679 227.038 413.679C228.78 412.156 239.356 415.485 249.846 422.096C324.189 468.751 378.289 454.114 380.677 453.395C382.812 452.785 384.036 450.404 383.39 448.209C382.745 446.014 380.386 444.712 378.251 445.322C377.562 445.464 324.979 459.447 254.133 414.995C248.404 411.435 229.376 400.309 221.563 407.228C215.492 412.623 220.08 423.629 221.764 427.54C222.522 429.996 230.406 451.791 249.586 470.579C268.176 488.693 301.135 507.111 353.072 492.324C353.142 492.139 353.269 492.085 353.395 492.03Z" fill="black"/>
<path d="M695.263 426.156C695.263 426.156 748.299 447.744 827.278 410.143C827.278 410.143 870.784 389.371 853.27 420.723C853.27 420.723 814.648 506.984 719.387 468.109" fill="#7EB9FF"/>
<path d="M717.294 471.828C715.457 470.792 714.631 468.534 715.432 466.542C716.302 464.425 718.818 463.399 720.917 464.256C758.822 479.759 791.906 476.901 819.086 455.887C839.615 440.085 849.123 419.211 849.193 419.087C849.263 418.964 849.332 418.84 849.402 418.716C854.073 410.432 852.863 408.283 852.863 408.283C851.252 406.56 840.226 408.655 828.96 414.036C749.143 451.979 695.882 431.078 693.538 430.082C691.439 429.225 690.438 426.706 691.308 424.589C692.179 422.473 694.694 421.446 696.793 422.304C697.475 422.525 749.267 442.598 825.329 406.449C831.477 403.56 851.826 394.663 859.041 402.478C864.645 408.57 858.912 419.026 856.82 422.735C855.811 425.099 845.673 445.944 824.411 462.474C803.812 478.399 768.65 492.959 717.592 472.159C717.539 471.966 717.416 471.897 717.294 471.828Z" fill="black"/>
<path d="M533.222 451.081C573.095 451.081 604.489 410.496 604.489 361.718C604.489 312.94 573.095 272.354 533.222 272.354C493.35 272.354 461.956 312.94 461.956 361.718C461.956 410.496 493.35 451.081 533.222 451.081Z" fill="#4E4E4E" stroke="black" stroke-width="5"/>
<ellipse cx="541.909" cy="361.718" rx="60.0804" ry="86.8632" fill="black"/>
<path d="M407.969 211.505L444.613 221.764C446.447 222.278 447.893 220.178 446.758 218.647L420.698 183.492C419.778 182.25 417.856 182.478 417.251 183.901L406.668 208.797C406.196 209.908 406.807 211.18 407.969 211.505Z" fill="#7EB9FF" stroke="black" stroke-width="5" stroke-linecap="round" stroke-linejoin="round"/>
<path d="M553.188 195.587L525.21 221.379C523.809 222.67 524.837 225.003 526.735 224.842L570.338 221.133C571.879 221.002 572.695 219.247 571.802 217.985L556.176 195.902C555.479 194.917 554.075 194.769 553.188 195.587Z" fill="#7EB9FF" stroke="black" stroke-width="5" stroke-linecap="round" stroke-linejoin="round"/>
<path d="M433.408 142.541L472.853 190.081C474.204 191.709 476.828 190.398 476.338 188.34L462.412 129.849C462.124 128.642 460.818 127.985 459.677 128.475L434.159 139.426C432.931 139.953 432.555 141.513 433.408 142.541Z" fill="#7EB9FF" stroke="black" stroke-width="5" stroke-linecap="round" stroke-linejoin="round"/>
<path d="M528.55 126.923L511.291 186.237C510.7 188.268 513.256 189.706 514.686 188.147L555.318 143.828C556.156 142.913 555.968 141.463 554.923 140.793L531.55 125.799C530.426 125.077 528.923 125.64 528.55 126.923Z" fill="#7EB9FF" stroke="black" stroke-width="5" stroke-linecap="round" stroke-linejoin="round"/>
<path id='dollar1' d="M531.463 418.374C531.423 419.754 532.51 420.905 533.89 420.945L540.933 421.149C542.313 421.188 543.464 420.102 543.504 418.722L543.77 409.54C548.785 409.156 553.321 408.062 557.345 406.215L557.352 406.212C562.928 403.632 567.31 399.874 570.41 394.934C573.536 389.966 575.164 384.113 575.387 377.468L575.388 377.44C575.488 372.916 574.895 368.789 573.551 365.1C572.253 361.463 570.353 358.25 567.845 355.489C565.374 352.768 562.438 350.468 559.06 348.581C555.728 346.721 552.076 345.215 548.114 344.055L545.686 343.301L546.261 323.428C547.449 323.918 548.453 324.557 549.296 325.325C551.266 327.119 552.437 329.641 552.634 333.167C552.707 334.464 553.76 335.489 555.058 335.527L572.881 336.042C573.549 336.062 574.198 335.812 574.682 335.35C575.165 334.887 575.443 334.25 575.453 333.581C575.549 327.091 574.224 321.234 571.404 316.082C568.59 310.941 564.551 306.875 559.342 303.905C555.64 301.783 551.499 300.387 546.948 299.686L547.216 290.411C547.256 289.031 546.17 287.879 544.79 287.84L537.746 287.636C536.366 287.596 535.215 288.682 535.175 290.062L534.905 299.414C530.563 299.891 526.505 301.024 522.747 302.831C517.243 305.48 512.822 309.284 509.537 314.234L509.537 314.234L509.531 314.244C506.245 319.245 504.561 325.1 504.399 331.712C504.137 339.787 506.229 346.557 510.92 351.74C515.445 356.739 521.619 360.404 529.29 362.825C529.294 362.826 529.297 362.827 529.3 362.828L533.035 364.041L532.415 385.478C531.815 385.273 531.238 385.038 530.685 384.772C528.617 383.735 527.007 382.275 525.807 380.368C524.665 378.474 523.984 376.028 523.893 372.912C523.854 371.589 522.79 370.525 521.466 370.486L503.472 369.966C502.801 369.946 502.15 370.198 501.666 370.663C501.182 371.129 500.906 371.769 500.9 372.441C500.826 380.141 502.234 386.829 505.261 392.388L505.27 392.404C508.314 397.9 512.66 402.126 518.258 405.043L518.263 405.045C522.277 407.125 526.775 408.492 531.729 409.177L531.463 418.374ZM544.46 385.674L544.964 368.255C545.468 368.492 545.945 368.731 546.395 368.973L546.407 368.979C548.349 370.009 549.652 371.15 550.468 372.34L550.485 372.365C551.251 373.454 551.677 374.855 551.623 376.719C551.565 378.732 551 380.41 549.97 381.841C548.927 383.291 547.454 384.455 545.446 385.3L545.436 385.305C545.122 385.439 544.797 385.562 544.46 385.674ZM534.217 323.186L533.759 339.019C532.876 338.521 532.084 337.989 531.379 337.428C530.386 336.605 529.635 335.667 529.096 334.611C528.646 333.676 528.414 332.511 528.503 331.031C528.505 331.005 528.506 330.979 528.507 330.953C528.558 329.186 529.029 327.697 529.882 326.414C530.751 325.15 531.995 324.132 533.724 323.391L533.754 323.378C533.904 323.311 534.059 323.247 534.217 323.186Z" fill="#FF0099" stroke="black" stroke-width="5" stroke-linejoin="round"/>
<path d="M410.391 407.657C414.412 408.509 418.382 406.857 421.93 403.977C425.499 401.081 428.978 396.688 432.219 391.262C438.714 380.389 444.548 364.867 448.275 347.266C452.003 329.665 452.961 313.111 451.431 300.538C450.667 294.265 449.268 288.839 447.179 284.744C445.103 280.674 442.143 277.554 438.121 276.703C434.1 275.851 430.13 277.503 426.582 280.382C423.013 283.279 419.534 287.672 416.293 293.098C409.798 303.971 403.964 319.493 400.237 337.094C396.509 354.695 395.551 371.249 397.081 383.822C397.845 390.095 399.244 395.521 401.333 399.616C403.409 403.686 406.369 406.806 410.391 407.657Z" fill="#4E4E4E" stroke="black" stroke-width="5"/>
<ellipse cx="426.981" cy="342.756" rx="19.2665" ry="64.4292" transform="rotate(11.9563 426.981 342.756)" fill="black"/>
<path id='dollar2' d="M394.238 397.135C393.9 398.474 394.71 399.833 396.049 400.172L400.904 401.4C402.242 401.738 403.602 400.928 403.94 399.589L405.989 391.492C409.485 391.814 412.821 391.474 415.969 390.424L415.977 390.421C420.552 388.877 424.429 386.081 427.594 382.117C430.778 378.14 433.089 373.174 434.594 367.309L434.6 367.288C435.591 363.283 436.023 359.533 435.848 356.058C435.696 352.632 435.041 349.462 433.85 346.575C432.676 343.731 431.077 341.171 429.052 338.905C427.069 336.687 424.779 334.741 422.191 333.064L420.976 332.243L425.252 315.336C425.464 315.619 425.652 315.92 425.819 316.237C426.77 318.046 427.103 320.496 426.494 323.805C426.255 325.1 427.062 326.358 428.339 326.681L440.624 329.789C441.272 329.953 441.958 329.851 442.529 329.505C443.101 329.16 443.511 328.601 443.668 327.952C445.055 322.207 445.34 316.804 444.442 311.782C443.546 306.765 441.563 302.433 438.446 298.874C436.336 296.453 433.791 294.572 430.846 293.221L432.919 285.027C433.257 283.688 432.447 282.329 431.108 281.99L426.253 280.762C424.915 280.424 423.555 281.234 423.217 282.573L421.124 290.844C418.049 290.699 415.035 291.142 412.101 292.189C407.577 293.802 403.664 296.628 400.365 300.578L400.365 300.578L400.359 300.585C397.054 304.573 394.707 309.531 393.251 315.371C391.434 322.471 391.471 328.809 393.686 334.203C395.837 339.44 399.461 343.768 404.454 347.188L406.509 348.626L401.832 367.114C400.743 366.007 399.954 364.565 399.515 362.688C399.109 360.809 399.136 358.469 399.725 355.602C399.995 354.292 399.186 353.003 397.89 352.675L385.486 349.537C384.837 349.373 384.149 349.476 383.577 349.823C383.004 350.171 382.595 350.733 382.441 351.384C380.818 358.227 380.422 364.386 381.379 369.8L381.382 369.815C382.365 375.182 384.53 379.719 387.953 383.302L387.957 383.306C390.29 385.737 393.08 387.636 396.29 389.022L394.238 397.135ZM415.51 313.041L412.418 325.266C412.336 325.144 412.257 325.021 412.18 324.897C411.699 324.078 411.374 323.161 411.215 322.123C411.091 321.188 411.172 320.053 411.555 318.681C411.556 318.675 411.558 318.668 411.56 318.662C411.563 318.649 411.567 318.636 411.57 318.623C411.988 316.972 412.65 315.663 413.514 314.63C414.107 313.941 414.768 313.417 415.51 313.041ZM414.568 367.23C413.711 368.19 412.729 368.875 411.599 369.313L415.134 355.335C416.066 356.382 416.641 357.445 416.935 358.527L416.942 358.552C417.248 359.637 417.266 361.01 416.824 362.757C416.35 364.633 415.58 366.097 414.568 367.23Z" fill="#FF0099" stroke="black" stroke-width="5" stroke-linejoin="round"/>
<path d="M420.344 470.911L420.356 470.913C425.577 471.987 431.019 470.893 435.426 467.99C437.372 466.708 439.051 465.116 440.295 463.255C448.86 451.595 466.898 420.381 448.059 381.72C444.494 374.268 436.489 370.066 428.369 370.787L428.35 370.788L428.331 370.79C404.23 373.243 343.74 380.388 307.639 394.413L307.574 394.438L307.509 394.467C306.842 394.763 305.885 395.204 305.067 395.743C301.193 398.295 299.023 402.682 299.039 407.293L299.039 407.359L299.043 407.425C299.264 412.084 301.65 416.297 305.632 418.759L305.644 418.766L305.657 418.774C316.296 425.208 335.027 436.141 356.027 446.504C376.98 456.845 400.391 466.719 420.344 470.911Z" fill="#FFB6E9" stroke="black" stroke-width="6"/>
<path d="M432.486 387.373C432.311 384.437 428.414 382.28 423.782 382.555C419.149 382.83 415.536 385.433 415.71 388.369C415.884 391.305 419.781 393.462 424.414 393.187C429.046 392.912 432.66 390.309 432.486 387.373Z" fill="black"/>
<rect x="2" y="655" width="983" height="23" rx="11.5" fill="#D9D9D9" stroke="black" stroke-width="4"/>
<defs>
<linearGradient id="paint0_linear_169_612" x1="554.637" y1="67.4112" x2="507.36" y2="312.392" gradientUnits="userSpaceOnUse">
<stop stop-color="white" stop-opacity="0"/>
<stop offset="1" stop-color="#FFC700"/>
</linearGradient>
<linearGradient id="paint1_linear_169_612" x1="459.715" y1="53.8775" x2="505.362" y2="299.167" gradientUnits="userSpaceOnUse">
<stop stop-color="white" stop-opacity="0"/>
<stop offset="1" stop-color="#FFC700"/>
</linearGradient>
<linearGradient id="paint2_linear_169_612" x1="385.139" y1="86.2971" x2="502.635" y2="306.4" gradientUnits="userSpaceOnUse">
<stop stop-color="white" stop-opacity="0"/>
<stop offset="1" stop-color="#FFC700"/>
</linearGradient>
</defs>
</svg>
