<svg width="544" height="464" viewBox="0 0 544 464" fill="none" xmlns="http://www.w3.org/2000/svg">
<path d="M171.56 106.153C171.56 106.153 169.161 77.3761 205.638 80.9101C205.638 80.9101 314.183 87.9782 421.088 255.467C421.088 255.467 464.002 319.332 456.681 363.381C442.419 449.334 326.931 416.771 326.931 416.771C299.164 454.761 262.94 463.975 224.949 458.422C155.656 448.198 151.87 389.508 151.87 389.508C111.355 415.13 62.7615 398.595 62.7615 398.595C4.07114 375.119 35.4989 347.099 35.4989 347.099C63.2664 326.526 109.209 275.03 109.209 275.03C109.209 275.03 172.443 185.417 171.56 106.153Z" fill="#7EB9FF"/>
<path d="M403.165 369.321C403.165 369.321 440.904 373.234 455.924 366.797C455.924 366.797 449.108 444.798 326.805 416.778C326.805 416.778 262.94 501.974 171.307 432.177C171.307 432.177 246.153 480.644 318.853 391.661C318.853 391.788 390.922 405.545 403.165 369.321Z" fill="#005EEB"/>
<path d="M171.431 89.3564C172.118 91.9819 174.707 92.8075 176.328 92.9074C178.003 93.0106 180.403 92.5001 181.684 90.5206C184.719 85.8298 189.296 83.4446 194.889 82.6415C200.555 81.8279 207.15 82.6677 213.828 84.4026C227.172 87.8692 240.097 94.7026 245.031 97.4639C246.065 98.0422 247.298 98.2472 248.312 98.2791C249.341 98.3115 250.53 98.178 251.544 97.7522C260.742 93.8934 271.635 94.303 281.943 96.5276C292.209 98.7434 301.59 102.694 307.56 105.566C309.62 106.557 311.732 105.831 312.943 104.523C314.173 103.195 314.732 100.961 313.378 98.9856C292.703 68.8151 260.707 58.9536 247.486 56.0487C255.133 51.6943 264.811 49.1553 272.602 47.721C275.147 47.2523 276.345 45.0464 276.405 43.1961C276.468 41.313 275.343 38.9437 272.614 38.5629C241.774 34.2599 219.257 42.4422 210.418 46.5C212.248 31.4732 219.46 21.4312 224.905 15.8151C226.571 14.0971 226.443 11.7403 225.702 10.1899C224.953 8.62241 223.04 6.90358 220.443 7.64404C192.132 15.7163 182.008 42.7847 179.21 52.5441C171.2 46.7596 163.894 44.6045 158.65 43.8916C157.497 43.7348 156.401 44.0325 155.532 44.7001C154.707 45.3349 154.213 46.2012 153.964 47.0318C153.484 48.6354 153.752 50.686 155.148 52.1616C158.886 56.1115 162.231 62.5084 165.038 69.527C167.821 76.4836 169.975 83.7921 171.431 89.3564Z" fill="#FF009F" stroke="black" stroke-width="5" stroke-linejoin="round"/>
<path d="M144.632 268.189C144.632 268.189 97.6003 281.566 33.4722 241.269C33.4722 241.269 -1.84838 219.019 10.4219 247.824C10.4219 247.824 36.031 326.126 120.516 302.015" fill="#7EB9FF"/>
<path d="M121.985 305.433C123.638 304.721 124.533 302.854 124.02 301.054C123.457 299.141 121.4 298.005 119.539 298.537C85.9185 308.161 57.9629 302.412 36.5779 281.573C20.4198 265.894 14.0846 246.93 14.0356 246.816C13.9867 246.702 13.9378 246.589 13.8888 246.475C10.6102 238.86 11.8233 237.125 11.8233 237.125C13.3425 235.797 22.5626 238.699 31.708 244.462C96.5217 285.138 143.688 272.377 145.77 271.75C147.631 271.218 148.698 269.142 148.135 267.229C147.573 265.315 145.516 264.18 143.654 264.712C143.054 264.835 97.211 277.026 35.4458 238.272C30.4507 235.168 13.8614 225.469 7.04979 231.5C1.75734 236.204 5.75761 245.799 7.22566 249.209C7.88601 251.35 14.76 270.352 31.4812 286.731C47.6882 302.524 76.423 318.581 121.703 305.689C121.764 305.528 121.875 305.481 121.985 305.433Z" fill="black"/>
<path d="M394.792 269.442C394.792 269.442 441.029 288.263 509.885 255.482C509.885 255.482 547.815 237.372 532.546 264.705C532.546 264.705 498.874 339.909 415.823 306.017" fill="#7EB9FF"/>
<path d="M413.998 309.263C412.397 308.36 411.677 306.391 412.375 304.654C413.134 302.809 415.327 301.914 417.157 302.662C450.203 316.177 479.047 313.686 502.743 295.365C520.641 281.589 528.93 263.39 528.991 263.282C529.052 263.174 529.113 263.066 529.174 262.959C533.245 255.736 532.191 253.863 532.191 253.863C530.786 252.361 521.173 254.187 511.352 258.878C441.765 291.958 395.33 273.736 393.287 272.868C391.457 272.12 390.585 269.924 391.343 268.079C392.102 266.233 394.295 265.339 396.125 266.086C396.72 266.28 441.873 283.779 508.186 252.263C513.546 249.745 531.286 241.988 537.577 248.802C542.462 254.113 537.464 263.229 535.641 266.463C534.761 268.523 525.922 286.697 507.386 301.108C489.427 314.992 458.772 327.685 414.258 309.551C414.212 309.383 414.105 309.323 413.998 309.263Z" fill="black"/>
<ellipse cx="268.665" cy="206.968" rx="52.3796" ry="75.7295" fill="black"/>
<mask id="path-9-outside-1_2305_29" maskUnits="userSpaceOnUse" x="120.41" y="142.645" width="115" height="96" fill="black">
<rect fill="white" x="120.41" y="142.645" width="115" height="96"/>
<path fill-rule="evenodd" clip-rule="evenodd" d="M190.454 219.093C183.635 227.915 173.702 233.471 162.644 233.471C142.08 233.471 125.41 214.258 125.41 190.558C125.41 166.858 142.08 147.645 162.644 147.645C181.74 147.645 197.479 164.213 199.628 185.558C201.234 188.129 203.378 190.253 206.189 191.19C207.716 191.699 209.269 192.131 210.8 192.497C212.23 192.838 212.3 196.482 210.85 196.724C209.625 196.928 209.481 198.638 210.655 199.046C217.776 201.523 227.27 204.886 228.907 205.705C231.432 206.967 228.907 210.754 216.917 210.123C211.222 209.823 206.579 209.805 203.307 209.884C201.728 209.922 201.211 211.853 202.525 212.729C203.81 213.585 203.36 215.588 201.835 215.832C199.166 216.26 196.399 216.751 195.46 217.064C194.913 217.247 192.98 218.038 190.454 219.093Z"/>
</mask>
<path fill-rule="evenodd" clip-rule="evenodd" d="M190.454 219.093C183.635 227.915 173.702 233.471 162.644 233.471C142.08 233.471 125.41 214.258 125.41 190.558C125.41 166.858 142.08 147.645 162.644 147.645C181.74 147.645 197.479 164.213 199.628 185.558C201.234 188.129 203.378 190.253 206.189 191.19C207.716 191.699 209.269 192.131 210.8 192.497C212.23 192.838 212.3 196.482 210.85 196.724C209.625 196.928 209.481 198.638 210.655 199.046C217.776 201.523 227.27 204.886 228.907 205.705C231.432 206.967 228.907 210.754 216.917 210.123C211.222 209.823 206.579 209.805 203.307 209.884C201.728 209.922 201.211 211.853 202.525 212.729C203.81 213.585 203.36 215.588 201.835 215.832C199.166 216.26 196.399 216.751 195.46 217.064C194.913 217.247 192.98 218.038 190.454 219.093Z" fill="#82A6B8"/>
<path d="M190.454 219.093L188.527 214.479C187.727 214.813 187.028 215.349 186.498 216.035L190.454 219.093ZM199.628 185.558L194.653 186.059C194.73 186.823 194.981 187.558 195.388 188.209L199.628 185.558ZM206.189 191.19L204.607 195.934L204.607 195.934L206.189 191.19ZM210.8 192.497L211.961 187.633L210.8 192.497ZM210.85 196.724L211.672 201.656L211.672 201.656L210.85 196.724ZM210.655 199.046L212.297 194.323L212.297 194.323L210.655 199.046ZM228.907 205.705L226.671 210.177L226.671 210.177L228.907 205.705ZM216.917 210.123L216.654 215.116L216.917 210.123ZM203.307 209.884L203.186 204.885L203.307 209.884ZM202.525 212.729L199.751 216.889H199.751L202.525 212.729ZM201.835 215.832L201.043 210.895L201.043 210.895L201.835 215.832ZM195.46 217.064L197.041 221.808H197.041L195.46 217.064ZM186.498 216.035C180.487 223.811 171.941 228.471 162.644 228.471V238.471C175.463 238.471 186.782 232.019 194.41 222.15L186.498 216.035ZM162.644 228.471C145.485 228.471 130.41 212.187 130.41 190.558H120.41C120.41 216.33 138.676 238.471 162.644 238.471V228.471ZM130.41 190.558C130.41 168.929 145.485 152.645 162.644 152.645V142.645C138.676 142.645 120.41 164.786 120.41 190.558H130.41ZM162.644 152.645C178.597 152.645 192.699 166.652 194.653 186.059L204.602 185.058C202.259 161.775 184.884 142.645 162.644 142.645V152.645ZM207.77 186.447C206.436 186.002 205.106 184.89 203.867 182.908L195.388 188.209C197.363 191.368 200.32 194.505 204.607 195.934L207.77 186.447ZM211.961 187.633C210.55 187.297 209.14 186.903 207.77 186.447L204.607 195.934C206.292 196.495 207.987 196.966 209.64 197.36L211.961 187.633ZM211.672 201.656C214.292 201.219 215.645 199.303 216.199 198.096C216.765 196.864 216.92 195.591 216.905 194.571C216.889 193.54 216.692 192.313 216.14 191.14C215.621 190.036 214.389 188.213 211.961 187.633L209.64 197.36C207.926 196.951 207.24 195.712 207.09 195.395C206.909 195.008 206.907 194.771 206.906 194.724C206.905 194.688 206.895 194.393 207.112 193.923C207.316 193.478 208.133 192.108 210.028 191.792L211.672 201.656ZM212.297 194.323C215.996 195.61 215.574 201.006 211.672 201.656L210.028 191.792C203.675 192.851 202.966 201.665 209.012 203.768L212.297 194.323ZM231.143 201.233C229.991 200.657 226.839 199.488 223.536 198.295C220.041 197.032 215.866 195.565 212.297 194.323L209.012 203.768C212.564 205.004 216.697 206.457 220.139 207.7C221.861 208.322 223.393 208.886 224.586 209.34C225.183 209.567 225.678 209.761 226.059 209.916C226.25 209.994 226.401 210.057 226.514 210.107C226.636 210.16 226.68 210.181 226.671 210.177L231.143 201.233ZM216.654 215.116C222.967 215.448 227.755 214.706 230.815 212.977C232.228 212.178 234.365 210.521 234.742 207.671C235.191 204.271 232.888 202.105 231.143 201.233L226.671 210.177C226.189 209.936 224.517 208.716 224.828 206.362C225.066 204.557 226.296 204.044 225.895 204.271C225.327 204.592 222.857 205.428 217.18 205.129L216.654 215.116ZM203.428 214.882C206.573 214.806 211.088 214.823 216.654 215.116L217.18 205.129C211.356 204.823 206.585 204.803 203.186 204.885L203.428 214.882ZM205.298 208.569C206.482 209.358 207.042 210.886 206.656 212.305C206.26 213.758 204.933 214.846 203.428 214.882L203.186 204.885C200.102 204.96 197.727 207.032 197.006 209.679C196.296 212.292 197.253 215.224 199.751 216.889L205.298 208.569ZM202.627 220.769C208.551 219.819 210.443 211.999 205.298 208.569L199.751 216.889C197.176 215.172 198.169 211.356 201.043 210.895L202.627 220.769ZM197.041 221.808C197.024 221.814 197.168 221.769 197.567 221.68C197.926 221.6 198.384 221.507 198.925 221.405C200.005 221.201 201.314 220.98 202.627 220.769L201.043 210.895C199.688 211.113 198.279 211.351 197.073 211.578C195.99 211.782 194.725 212.039 193.879 212.321L197.041 221.808ZM192.382 223.706C193.638 223.181 194.736 222.727 195.581 222.384C196.004 222.212 196.353 222.072 196.622 221.967C196.756 221.915 196.861 221.874 196.941 221.845C197.027 221.812 197.054 221.803 197.041 221.808L193.879 212.321C193.107 212.578 190.938 213.472 188.527 214.479L192.382 223.706Z" fill="black" mask="url(#path-9-outside-1_2305_29)"/>
<ellipse cx="159.488" cy="190.558" rx="34.0783" ry="42.9134" fill="#C7EFFF"/>
<ellipse cx="145.417" cy="194.13" rx="13.5598" ry="25.7224" transform="rotate(-3.28478 145.417 194.13)" fill="black"/>
<path d="M140.983 202.586C142.533 202.641 143.682 201.393 144.387 200.033C145.131 198.599 145.601 196.668 145.676 194.574C145.75 192.48 145.418 190.521 144.777 189.038C144.17 187.632 143.113 186.305 141.563 186.25C140.014 186.195 138.865 187.443 138.159 188.803C137.415 190.237 136.945 192.168 136.871 194.262C136.797 196.356 137.129 198.315 137.769 199.798C138.377 201.204 139.434 202.531 140.983 202.586Z" fill="#1ECDFD" stroke="black" stroke-width="2"/>
<path d="M159.336 335.838L159.349 335.84C165.108 337.025 171.114 335.819 175.978 332.614C178.128 331.198 179.976 329.443 181.34 327.398C190.915 314.367 211.064 279.504 190.02 236.317C186.093 228.103 177.263 223.46 168.295 224.256L168.276 224.258L168.257 224.26C141.216 227.012 73.419 235.023 32.9804 250.733L32.9149 250.758L32.8507 250.787C32.1031 251.118 31.0543 251.603 30.1641 252.19C25.9293 254.979 23.55 259.78 23.5674 264.838L23.5676 264.904L23.5707 264.97C23.8139 270.081 26.429 274.694 30.789 277.389L30.8015 277.397L30.814 277.405C42.7427 284.618 63.7419 296.875 87.2829 308.493C110.778 320.088 137.003 331.146 159.336 335.838Z" fill="#FFB6E9" stroke="black" stroke-width="6"/>
<path d="M172.435 240.767C172.239 237.474 167.868 235.054 162.672 235.363C157.477 235.672 153.423 238.592 153.619 241.885C153.814 245.178 158.185 247.597 163.381 247.289C168.577 246.98 172.63 244.06 172.435 240.767Z" fill="black"/>
<mask id="path-16-outside-2_2305_29" maskUnits="userSpaceOnUse" x="191.351" y="130.016" width="135" height="154" fill="black">
<rect fill="white" x="191.351" y="130.016" width="135" height="154"/>
<path d="M321.193 206.959C321.193 246.692 293.246 278.902 258.772 278.902C224.298 278.902 196.351 246.692 196.351 206.959C196.351 167.226 224.298 135.016 258.772 135.016C293.246 135.016 321.193 167.226 321.193 206.959Z"/>
</mask>
<path d="M321.193 206.959C321.193 246.692 293.246 278.902 258.772 278.902C224.298 278.902 196.351 246.692 196.351 206.959C196.351 167.226 224.298 135.016 258.772 135.016C293.246 135.016 321.193 167.226 321.193 206.959Z" fill="#82A6B8"/>
<path d="M316.193 206.959C316.193 244.62 289.842 273.902 258.772 273.902V283.902C296.651 283.902 326.193 248.763 326.193 206.959H316.193ZM258.772 273.902C227.702 273.902 201.351 244.62 201.351 206.959H191.351C191.351 248.763 220.893 283.902 258.772 283.902V273.902ZM201.351 206.959C201.351 169.297 227.702 140.016 258.772 140.016V130.016C220.893 130.016 191.351 165.154 191.351 206.959H201.351ZM258.772 140.016C289.842 140.016 316.193 169.297 316.193 206.959H326.193C326.193 165.154 296.651 130.016 258.772 130.016V140.016Z" fill="black" mask="url(#path-16-outside-2_2305_29)"/>
<ellipse cx="253.482" cy="206.959" rx="57.1312" ry="71.943" fill="#C7EFFF"/>
<ellipse cx="225.989" cy="207.258" rx="22.7327" ry="43.1229" transform="rotate(0.341672 225.989 207.258)" fill="black"/>
<path d="M215.661 218.93C217.771 218.91 219.363 217.129 220.366 214.963C221.404 212.721 222.002 209.703 221.971 206.429C221.939 203.156 221.282 200.15 220.201 197.929C219.157 195.783 217.53 194.033 215.42 194.053C213.311 194.073 211.718 195.855 210.715 198.02C209.678 200.262 209.079 203.281 209.111 206.554C209.142 209.827 209.799 212.834 210.88 215.055C211.924 217.201 213.551 218.951 215.661 218.93Z" fill="#1ECDFD" stroke="black" stroke-width="2"/>
</svg>
