<svg width="993" height="774" fill="none" xmlns="http://www.w3.org/2000/svg"><path fill-rule="evenodd" clip-rule="evenodd" d="M346.047 771c83.665 0 160.435-32.57 220.462-86.845 34.909 21.008 74.771 32.915 117.098 32.915 130.046 0 236.824-112.401 248.177-255.794l52.045-31.484c8.232-4.98 7.551-17.136-1.186-21.164l-54.162-24.978c-21.719-130.281-123.094-228.848-244.874-228.848a222.898 222.898 0 00-55.601 7.025C564.76 65.591 462.029 3 346.047 3 153.826 3-2 174.923-2 387s155.826 384 348.047 384z" fill="url(#prefix__paint0_linear_2305_13)"/><path d="M566.509 684.155l1.289-2.142a2.5 2.5 0 00-2.966.288l1.677 1.854zm365.275-222.879l-1.294-2.139a2.504 2.504 0 00-1.198 1.942l2.492.197zm52.045-31.484l-1.294-2.139 1.294 2.139zm-1.186-21.164l-1.047 2.27 1.047-2.27zm-54.162-24.978l-2.466.411a2.502 2.502 0 001.419 1.859l1.047-2.27zM628.006 161.827l-2.089 1.373a2.501 2.501 0 002.712 1.049l-.623-2.422zm-63.174 520.474C505.226 736.195 429.041 768.5 346.047 768.5v5c84.335 0 161.691-32.835 222.139-87.49l-3.354-3.709zm118.775 32.269c-41.848 0-81.267-11.77-115.809-32.557l-2.578 4.284c35.276 21.229 75.581 33.273 118.387 33.273v-5zm245.685-253.491C918.02 603.441 812.095 714.57 683.607 714.57v5c131.604 0 239.234-113.673 250.67-258.096l-4.985-.395zm3.786 2.336l52.045-31.484-2.588-4.278-52.045 31.484 2.588 4.278zm52.045-31.484c9.947-6.017 9.124-20.706-1.433-25.574l-2.094 4.541c6.917 3.189 7.456 12.813.939 16.755l2.588 4.278zm-1.433-25.574l-54.162-24.978-2.094 4.541 54.162 24.978 2.094-4.541zM683.607 157.302c120.327 0 220.85 97.44 242.408 226.759l4.932-.822c-21.879-131.244-124.107-230.937-247.34-230.937v5zm-54.978 6.947a220.367 220.367 0 0154.978-6.947v-5a225.37 225.37 0 00-56.223 7.104l1.245 4.843zM346.047 5.5c115.038 0 217.027 62.078 279.87 157.7l4.179-2.746C566.446 63.604 462.972.5 346.047.5v5zM.5 387C.5 176.066 155.432 5.5 346.047 5.5v-5C152.22.5-4.5 173.779-4.5 387h5zm345.547 381.5C155.432 768.5.5 597.934.5 387h-5c0 213.221 156.72 386.5 350.547 386.5v-5z" fill="#000"/><defs><linearGradient id="prefix__paint0_linear_2305_13" x1="927.274" y1="414.464" x2="37.447" y2="518.325" gradientUnits="userSpaceOnUse"><stop stop-color="#C8D4FF"/><stop offset="1" stop-color="#D4F5FF"/></linearGradient></defs></svg>