<svg width="993" height="774" viewBox="0 0 993 774" fill="none" xmlns="http://www.w3.org/2000/svg">
<path fill-rule="evenodd" clip-rule="evenodd" d="M346.047 771C429.712 771 506.482 738.43 566.509 684.155C601.418 705.163 641.28 717.07 683.607 717.07C813.653 717.07 920.431 604.669 931.784 461.276L983.829 429.792C992.061 424.812 991.38 412.656 982.643 408.628L928.481 383.65C906.762 253.369 805.387 154.802 683.607 154.802C664.495 154.802 645.885 157.23 628.006 161.827C564.76 65.5908 462.029 3 346.047 3C153.826 3 -2 174.923 -2 387C-2 599.077 153.826 771 346.047 771Z" fill="url(#paint0_linear_2305_13)"/>
<path d="M566.509 684.155L567.798 682.013C566.854 681.445 565.649 681.562 564.832 682.301L566.509 684.155ZM931.784 461.276L930.49 459.137C929.802 459.554 929.356 460.277 929.292 461.079L931.784 461.276ZM983.829 429.792L982.535 427.653L983.829 429.792ZM982.643 408.628L981.596 410.898V410.898L982.643 408.628ZM928.481 383.65L926.015 384.061C926.151 384.877 926.683 385.573 927.434 385.92L928.481 383.65ZM628.006 161.827L625.917 163.2C626.504 164.093 627.594 164.515 628.629 164.249L628.006 161.827ZM564.832 682.301C505.226 736.195 429.041 768.5 346.047 768.5V773.5C430.382 773.5 507.738 740.665 568.186 686.01L564.832 682.301ZM683.607 714.57C641.759 714.57 602.34 702.8 567.798 682.013L565.22 686.297C600.496 707.526 640.801 719.57 683.607 719.57V714.57ZM929.292 461.079C918.02 603.441 812.095 714.57 683.607 714.57V719.57C815.211 719.57 922.841 605.897 934.277 461.474L929.292 461.079ZM933.078 463.415L985.123 431.931L982.535 427.653L930.49 459.137L933.078 463.415ZM985.123 431.931C995.07 425.914 994.247 411.225 983.69 406.357L981.596 410.898C988.513 414.087 989.052 423.711 982.535 427.653L985.123 431.931ZM983.69 406.357L929.528 381.379L927.434 385.92L981.596 410.898L983.69 406.357ZM683.607 157.302C803.934 157.302 904.457 254.742 926.015 384.061L930.947 383.239C909.068 251.995 806.84 152.302 683.607 152.302V157.302ZM628.629 164.249C646.307 159.703 664.708 157.302 683.607 157.302V152.302C664.282 152.302 645.463 154.757 627.384 159.406L628.629 164.249ZM346.047 5.5C461.085 5.5 563.074 67.5778 625.917 163.2L630.096 160.454C566.446 63.6039 462.972 0.5 346.047 0.5V5.5ZM0.5 387C0.5 176.066 155.432 5.5 346.047 5.5V0.5C152.22 0.5 -4.5 173.779 -4.5 387H0.5ZM346.047 768.5C155.432 768.5 0.5 597.934 0.5 387H-4.5C-4.5 600.221 152.22 773.5 346.047 773.5V768.5Z" fill="black"/>
<defs>
<linearGradient id="paint0_linear_2305_13" x1="927.274" y1="414.464" x2="37.4475" y2="518.325" gradientUnits="userSpaceOnUse">
<stop stop-color="#C8D4FF"/>
<stop offset="1" stop-color="#D4F5FF"/>
</linearGradient>
</defs>
</svg>
